Inter-Light.ufo
<glyph name="exclam" format="2">
  <advance width="768"/>
  <unicode hex="0021"/>
  <outline>
    <contour>
      <point x="485" y="2048" type="line"/>
      <point x="283" y="2048" type="line"/>
      <point x="296" y="587" type="line"/>
      <point x="472" y="587" type="line"/>
    </contour>
    <component base="period" xOffset="7"/>
  </outline>
</glyph>
<glyph name="numbersign" format="2">
  <advance width="1779"/>
  <unicode hex="0023"/>
  <note>
1. outline
2. slant 9.4 deg
3. remove extra shapes created by outlining
</note>
  <outline>
    <contour>
      <point x="1004" y="0" type="line"/>
      <point x="1159" y="0" type="line"/>
      <point x="1495" y="2048" type="line"/>
      <point x="1340" y="2048" type="line"/>
    </contour>
    <contour>
      <point x="53" y="591" type="line"/>
      <point x="1581" y="591" type="line"/>
      <point x="1607" y="745" type="line"/>
      <point x="79" y="745" type="line"/>
    </contour>
    <contour>
      <point x="284" y="0" type="line"/>
      <point x="439" y="0" type="line"/>
      <point x="775" y="2048" type="line"/>
      <point x="620" y="2048" type="line"/>
    </contour>
    <contour>
      <point x="172" y="1303" type="line"/>
      <point x="1700" y="1303" type="line"/>
      <point x="1725" y="1457" type="line"/>
      <point x="197" y="1457" type="line"/>
    </contour>
  </outline>
</glyph>
<glyph name="percent" format="2">
  <advance width="2251"/>
  <unicode hex="0025"/>
  <outline>
    <contour>
      <point x="1264" y="380" type="line" smooth="yes"/>
      <point x="1264" y="151"/>
      <point x="1406" y="-28"/>
      <point x="1643" y="-28" type="curve" smooth="yes"/>
      <point x="1877" y="-28"/>
      <point x="2019" y="151"/>
      <point x="2019" y="380" type="curve" smooth="yes"/>
      <point x="2019" y="473" type="line" smooth="yes"/>
      <point x="2019" y="702"/>
      <point x="1879" y="881"/>
      <point x="1643" y="881" type="curve" smooth="yes"/>
      <point x="1409" y="881"/>
      <point x="1264" y="702"/>
      <point x="1264" y="473" type="curve" smooth="yes"/>
    </contour>
    <contour>
      <point x="1421" y="473" type="line" smooth="yes"/>
      <point x="1421" y="624"/>
      <point x="1498" y="745"/>
      <point x="1643" y="745" type="curve" smooth="yes"/>
      <point x="1790" y="745"/>
      <point x="1861" y="624"/>
      <point x="1861" y="473" type="curve" smooth="yes"/>
      <point x="1861" y="380" type="line" smooth="yes"/>
      <point x="1861" y="229"/>
      <point x="1787" y="108"/>
      <point x="1643" y="108" type="curve" smooth="yes"/>
      <point x="1496" y="108"/>
      <point x="1421" y="229"/>
      <point x="1421" y="380" type="curve" smooth="yes"/>
    </contour>
    <contour>
      <point x="232" y="1575" type="line" smooth="yes"/>
      <point x="232" y="1346"/>
      <point x="374" y="1167"/>
      <point x="611" y="1167" type="curve" smooth="yes"/>
      <point x="845" y="1167"/>
      <point x="987" y="1346"/>
      <point x="987" y="1575" type="curve" smooth="yes"/>
      <point x="987" y="1668" type="line" smooth="yes"/>
      <point x="987" y="1897"/>
      <point x="847" y="2076"/>
      <point x="611" y="2076" type="curve" smooth="yes"/>
      <point x="377" y="2076"/>
      <point x="232" y="1897"/>
      <point x="232" y="1668" type="curve" smooth="yes"/>
    </contour>
    <contour>
      <point x="389" y="1668" type="line" smooth="yes"/>
      <point x="389" y="1819"/>
      <point x="466" y="1940"/>
      <point x="611" y="1940" type="curve" smooth="yes"/>
      <point x="758" y="1940"/>
      <point x="829" y="1819"/>
      <point x="829" y="1668" type="curve" smooth="yes"/>
      <point x="829" y="1575" type="line" smooth="yes"/>
      <point x="829" y="1424"/>
      <point x="755" y="1303"/>
      <point x="611" y="1303" type="curve" smooth="yes"/>
      <point x="464" y="1303"/>
      <point x="389" y="1424"/>
      <point x="389" y="1575" type="curve" smooth="yes"/>
    </contour>
    <component base="fraction" xOffset="731"/>
  </outline>
</glyph>
<glyph name="ampersand" format="2">
  <advance width="1748"/>
  <unicode hex="0026"/>
  <outline>
    <contour>
      <point x="783" y="-28" type="curve" smooth="yes"/>
      <point x="980" y="-28"/>
      <point x="1195" y="49"/>
      <point x="1328" y="196" type="curve" smooth="yes"/>
      <point x="1344" y="215"/>
      <point x="1358" y="235"/>
      <point x="1373" y="256" type="curve" smooth="yes"/>
      <point x="1451" y="345"/>
      <point x="1592" y="513"/>
      <point x="1601" y="843" type="curve"/>
      <point x="1428" y="845" type="line"/>
      <point x="1405" y="414"/>
      <point x="1116" y="135"/>
      <point x="777" y="132" type="curve" smooth="yes"/>
      <point x="519" y="133"/>
      <point x="337" y="317"/>
      <point x="337" y="533" type="curve" smooth="yes"/>
      <point x="337" y="625"/>
      <point x="400" y="760"/>
      <point x="604" y="913" type="curve" smooth="yes"/>
      <point x="976" y="1191" type="line" smooth="yes"/>
      <point x="1157" y="1328"/>
      <point x="1255" y="1461"/>
      <point x="1255" y="1647" type="curve" smooth="yes"/>
      <point x="1255" y="1879"/>
      <point x="1072" y="2071"/>
      <point x="789" y="2071" type="curve" smooth="yes"/>
      <point x="511" y="2071"/>
      <point x="313" y="1879"/>
      <point x="313" y="1617" type="curve" smooth="yes"/>
      <point x="313" y="1405"/>
      <point x="461" y="1253"/>
      <point x="668" y="1001" type="curve" smooth="yes"/>
      <point x="1484" y="0" type="line"/>
      <point x="1700" y="0" type="line"/>
      <point x="764" y="1156" type="line" smooth="yes"/>
      <point x="613" y="1341"/>
      <point x="495" y="1475"/>
      <point x="495" y="1615" type="curve" smooth="yes"/>
      <point x="495" y="1765"/>
      <point x="624" y="1913"/>
      <point x="795" y="1913" type="curve" smooth="yes"/>
      <point x="959" y="1913"/>
      <point x="1073" y="1784"/>
      <point x="1073" y="1647" type="curve" smooth="yes"/>
      <point x="1073" y="1505"/>
      <point x="998" y="1418"/>
      <point x="856" y="1317" type="curve" smooth="yes"/>
      <point x="559" y="1096" type="line" smooth="yes"/>
      <point x="304" y="915"/>
      <point x="156" y="765"/>
      <point x="156" y="533" type="curve" smooth="yes"/>
      <point x="156" y="212"/>
      <point x="405" y="-28"/>
    </contour>
  </outline>
</glyph>
<glyph name="parenleft" format="2">
  <advance width="976"/>
  <unicode hex="0028"/>
  <guideline x="644" y="1301" angle="0.0"/>
  <outline>
    <contour>
      <point x="309" y="864" type="curve" smooth="yes"/>
      <point x="309" y="385"/>
      <point x="435" y="-41"/>
      <point x="661" y="-416" type="curve"/>
      <point x="823" y="-416" type="line"/>
      <point x="629" y="-103"/>
      <point x="493" y="403"/>
      <point x="493" y="864" type="curve" smooth="yes"/>
      <point x="493" y="1324"/>
      <point x="628" y="1830"/>
      <point x="823" y="2144" type="curve"/>
      <point x="661" y="2144" type="line"/>
      <point x="435" y="1771"/>
      <point x="309" y="1344"/>
    </contour>
  </outline>
</glyph>
<glyph name="asterisk" format="2">
  <advance width="1408"/>
  <unicode hex="002A"/>
  <note>
hexagonal angle: 30 deg
</note>
  <guideline x="704" y="1472" angle="30.0"/>
  <guideline x="784" y="1472" angle="0.0"/>
  <guideline x="704" y="1472" angle="330.0"/>
  <outline>
    <contour>
      <point x="629" y="896" type="line"/>
      <point x="779" y="896" type="line"/>
      <point x="768" y="1363" type="line"/>
      <point x="1167" y="1119" type="line"/>
      <point x="1241" y="1249" type="line"/>
      <point x="829" y="1472" type="line"/>
      <point x="1241" y="1695" type="line"/>
      <point x="1167" y="1825" type="line"/>
      <point x="768" y="1581" type="line"/>
      <point x="779" y="2048" type="line"/>
      <point x="629" y="2048" type="line"/>
      <point x="640" y="1581" type="line"/>
      <point x="241" y="1825" type="line"/>
      <point x="167" y="1695" type="line"/>
      <point x="579" y="1472" type="line"/>
      <point x="167" y="1249" type="line"/>
      <point x="241" y="1119" type="line"/>
      <point x="640" y="1363" type="line"/>
    </contour>
  </outline>
</glyph>
<glyph name="plus" format="2">
  <advance width="1835"/>
  <unicode hex="002B"/>
  <guideline x="268" y="800" angle="0.0"/>
  <outline>
    <contour>
      <point x="832" y="167" type="line"/>
      <point x="1003" y="167" type="line"/>
      <point x="1003" y="1433" type="line"/>
      <point x="832" y="1433" type="line"/>
    </contour>
    <contour>
      <point x="284" y="715" type="line"/>
      <point x="1551" y="715" type="line"/>
      <point x="1551" y="885" type="line"/>
      <point x="284" y="885" type="line"/>
    </contour>
  </outline>
</glyph>
<glyph name="comma" format="2">
  <advance width="766"/>
  <unicode hex="002C"/>
  <outline>
    <contour>
      <point x="531" y="280" type="line"/>
      <point x="337" y="280" type="line"/>
      <point x="323" y="168" type="line" smooth="yes"/>
      <point x="287" y="-103"/>
      <point x="233" y="-365"/>
      <point x="207" y="-500" type="curve"/>
      <point x="344" y="-500" type="line"/>
      <point x="392" y="-359"/>
      <point x="478" y="-43"/>
      <point x="513" y="173" type="curve" smooth="yes"/>
    </contour>
  </outline>
</glyph>
<glyph name="period" format="2">
  <advance width="755"/>
  <unicode hex="002E"/>
  <outline>
    <contour>
      <point x="377" y="-15" type="curve" smooth="yes"/>
      <point x="457" y="-15"/>
      <point x="521" y="50"/>
      <point x="521" y="129" type="curve" smooth="yes"/>
      <point x="521" y="209"/>
      <point x="457" y="273"/>
      <point x="377" y="273" type="curve" smooth="yes"/>
      <point x="298" y="273"/>
      <point x="233" y="209"/>
      <point x="233" y="129" type="curve" smooth="yes"/>
      <point x="233" y="50"/>
      <point x="298" y="-15"/>
    </contour>
  </outline>
</glyph>
<glyph name="slash" format="2">
  <advance width="973"/>
  <unicode hex="002F"/>
  <outline>
    <contour>
      <point x="900" y="2144" type="line"/>
      <point x="733" y="2144" type="line"/>
      <point x="73" y="-308" type="line"/>
      <point x="240" y="-308" type="line"/>
    </contour>
  </outline>
</glyph>
<glyph name="zero" format="2">
  <advance width="1728"/>
  <unicode hex="0030"/>
  <guideline x="832" y="1209" angle="90.0"/>
  <outline>
    <contour>
      <point x="864" y="-28" type="curve" smooth="yes"/>
      <point x="1295" y="-28"/>
      <point x="1548" y="361"/>
      <point x="1548" y="1024" type="curve" smooth="yes"/>
      <point x="1548" y="1684"/>
      <point x="1293" y="2076"/>
      <point x="864" y="2076" type="curve" smooth="yes"/>
      <point x="435" y="2076"/>
      <point x="180" y="1684"/>
      <point x="180" y="1024" type="curve" smooth="yes"/>
      <point x="180" y="361"/>
      <point x="433" y="-28"/>
    </contour>
    <contour>
      <point x="864" y="140" type="curve" smooth="yes"/>
      <point x="549" y="140"/>
      <point x="361" y="463"/>
      <point x="361" y="1024" type="curve" smooth="yes"/>
      <point x="361" y="1584"/>
      <point x="550" y="1911"/>
      <point x="864" y="1911" type="curve" smooth="yes"/>
      <point x="1178" y="1911"/>
      <point x="1367" y="1584"/>
      <point x="1367" y="1024" type="curve" smooth="yes"/>
      <point x="1367" y="463"/>
      <point x="1179" y="140"/>
    </contour>
  </outline>
</glyph>
<glyph name="two" format="2">
  <advance width="1719"/>
  <unicode hex="0032"/>
  <outline>
    <contour>
      <point x="228" y="0" type="line"/>
      <point x="1501" y="0" type="line"/>
      <point x="1501" y="168" type="line"/>
      <point x="488" y="168" type="line"/>
      <point x="488" y="181" type="line"/>
      <point x="996" y="748" type="line" smooth="yes"/>
      <point x="1336" y="1124"/>
      <point x="1437" y="1294"/>
      <point x="1437" y="1521" type="curve" smooth="yes"/>
      <point x="1437" y="1833"/>
      <point x="1191" y="2076"/>
      <point x="848" y="2076" type="curve" smooth="yes"/>
      <point x="502" y="2076"/>
      <point x="245" y="1832"/>
      <point x="245" y="1493" type="curve"/>
      <point x="424" y="1493" type="line"/>
      <point x="424" y="1736"/>
      <point x="590" y="1911"/>
      <point x="843" y="1911" type="curve" smooth="yes"/>
      <point x="1081" y="1911"/>
      <point x="1261" y="1755"/>
      <point x="1261" y="1521" type="curve" smooth="yes"/>
      <point x="1261" y="1327"/>
      <point x="1158" y="1183"/>
      <point x="897" y="889" type="curve" smooth="yes"/>
      <point x="228" y="137" type="line"/>
    </contour>
  </outline>
</glyph>
<glyph name="three" format="2">
  <advance width="1771"/>
  <unicode hex="0033"/>
  <outline>
    <contour>
      <point x="893" y="-28" type="curve" smooth="yes"/>
      <point x="1277" y="-28"/>
      <point x="1557" y="220"/>
      <point x="1557" y="548" type="curve" smooth="yes"/>
      <point x="1557" y="808"/>
      <point x="1397" y="999"/>
      <point x="1136" y="1051" type="curve"/>
      <point x="1136" y="1064" type="line"/>
      <point x="1351" y="1128"/>
      <point x="1487" y="1302"/>
      <point x="1487" y="1536" type="curve" smooth="yes"/>
      <point x="1487" y="1829"/>
      <point x="1257" y="2076"/>
      <point x="897" y="2076" type="curve" smooth="yes"/>
      <point x="554" y="2076"/>
      <point x="280" y="1856"/>
      <point x="272" y="1536" type="curve"/>
      <point x="453" y="1536" type="line"/>
      <point x="459" y="1765"/>
      <point x="657" y="1911"/>
      <point x="895" y="1911" type="curve" smooth="yes"/>
      <point x="1142" y="1911"/>
      <point x="1305" y="1754"/>
      <point x="1305" y="1528" type="curve" smooth="yes"/>
      <point x="1305" y="1289"/>
      <point x="1114" y="1136"/>
      <point x="849" y="1136" type="curve" smooth="yes"/>
      <point x="729" y="1136" type="line"/>
      <point x="729" y="968" type="line"/>
      <point x="849" y="968" type="line" smooth="yes"/>
      <point x="1173" y="968"/>
      <point x="1373" y="797"/>
      <point x="1373" y="548" type="curve" smooth="yes"/>
      <point x="1373" y="312"/>
      <point x="1174" y="140"/>
      <point x="891" y="140" type="curve" smooth="yes"/>
      <point x="630" y="140"/>
      <point x="426" y="288"/>
      <point x="416" y="512" type="curve"/>
      <point x="227" y="512" type="line"/>
      <point x="237" y="193"/>
      <point x="513" y="-28"/>
    </contour>
  </outline>
</glyph>
<glyph name="four" format="2">
  <advance width="1764"/>
  <unicode hex="0034"/>
  <outline>
    <contour>
      <point x="179" y="440" type="line"/>
      <point x="1585" y="440" type="line"/>
      <point x="1585" y="608" type="line"/>
      <point x="388" y="608" type="line"/>
      <point x="388" y="621" type="line"/>
      <point x="1121" y="1793" type="line"/>
      <point x="1204" y="1793" type="line"/>
      <point x="1204" y="2048" type="line"/>
      <point x="1092" y="2048" type="line"/>
      <point x="179" y="592" type="line"/>
    </contour>
    <contour>
      <point x="1135" y="0" type="line"/>
      <point x="1313" y="0" type="line"/>
      <point x="1313" y="2048" type="line"/>
      <point x="1135" y="2048" type="line"/>
      <point x="1135" y="558" type="line"/>
      <point x="1135" y="488" type="line"/>
    </contour>
  </outline>
</glyph>
<glyph name="five" format="2">
  <advance width="1677"/>
  <unicode hex="0035"/>
  <guideline x="1405" y="1656" angle="90.0"/>
  <outline>
    <contour>
      <point x="827" y="-28" type="curve" smooth="yes"/>
      <point x="1205" y="-28"/>
      <point x="1479" y="259"/>
      <point x="1480" y="647" type="curve" smooth="yes"/>
      <point x="1481" y="1043"/>
      <point x="1202" y="1324"/>
      <point x="841" y="1324" type="curve" smooth="yes"/>
      <point x="695" y="1324"/>
      <point x="559" y="1271"/>
      <point x="469" y="1195" type="curve"/>
      <point x="459" y="1195" type="line"/>
      <point x="541" y="1880" type="line"/>
      <point x="1396" y="1880" type="line"/>
      <point x="1396" y="2048" type="line"/>
      <point x="384" y="2048" type="line"/>
      <point x="261" y="1053" type="line"/>
      <point x="448" y="1029" type="line"/>
      <point x="536" y="1102"/>
      <point x="677" y="1154"/>
      <point x="815" y="1153" type="curve" smooth="yes"/>
      <point x="1087" y="1152"/>
      <point x="1298" y="944"/>
      <point x="1299" y="644" type="curve" smooth="yes"/>
      <point x="1299" y="355"/>
      <point x="1102" y="140"/>
      <point x="827" y="140" type="curve" smooth="yes"/>
      <point x="591" y="140"/>
      <point x="416" y="295"/>
      <point x="404" y="512" type="curve"/>
      <point x="223" y="512" type="line"/>
      <point x="232" y="199"/>
      <point x="486" y="-28"/>
    </contour>
  </outline>
</glyph>
<glyph name="six" format="2">
  <advance width="1717"/>
  <unicode hex="0036"/>
  <outline>
    <contour>
      <point x="873" y="-28" type="curve" smooth="yes"/>
      <point x="1264" y="-31"/>
      <point x="1521" y="277"/>
      <point x="1521" y="644" type="curve" smooth="yes"/>
      <point x="1521" y="1029"/>
      <point x="1237" y="1311"/>
      <point x="896" y="1311" type="curve" smooth="yes"/>
      <point x="676" y="1311"/>
      <point x="482" y="1193"/>
      <point x="385" y="1012" type="curve"/>
      <point x="372" y="1012" type="line"/>
      <point x="373" y="1587"/>
      <point x="565" y="1911"/>
      <point x="901" y="1911" type="curve" smooth="yes"/>
      <point x="1135" y="1911"/>
      <point x="1277" y="1755"/>
      <point x="1315" y="1536" type="curve"/>
      <point x="1499" y="1536" type="line"/>
      <point x="1459" y="1857"/>
      <point x="1232" y="2079"/>
      <point x="901" y="2079" type="curve" smooth="yes"/>
      <point x="429" y="2079"/>
      <point x="196" y="1608"/>
      <point x="196" y="939" type="curve" smooth="yes"/>
      <point x="196" y="219"/>
      <point x="533" y="-25"/>
    </contour>
    <contour>
      <point x="873" y="140" type="curve" smooth="yes"/>
      <point x="618" y="140"/>
      <point x="429" y="349"/>
      <point x="407" y="632" type="curve" smooth="yes"/>
      <point x="387" y="902"/>
      <point x="600" y="1143"/>
      <point x="873" y="1143" type="curve" smooth="yes"/>
      <point x="1139" y="1143"/>
      <point x="1340" y="921"/>
      <point x="1340" y="644" type="curve" smooth="yes"/>
      <point x="1340" y="365"/>
      <point x="1139" y="140"/>
    </contour>
  </outline>
</glyph>
<glyph name="seven" format="2">
  <advance width="1586"/>
  <unicode hex="0037"/>
  <outline>
    <contour>
      <point x="287" y="0" type="line"/>
      <point x="484" y="0" type="line"/>
      <point x="1416" y="1872" type="line"/>
      <point x="1416" y="2048" type="line"/>
      <point x="145" y="2048" type="line"/>
      <point x="145" y="1880" type="line"/>
      <point x="1220" y="1880" type="line"/>
      <point x="1220" y="1867" type="line"/>
    </contour>
  </outline>
</glyph>
<glyph name="eight" format="2">
  <advance width="1723"/>
  <unicode hex="0038"/>
  <note>
essentially two conjoined "three" glyphs
</note>
  <outline>
    <contour>
      <point x="861" y="-28" type="curve" smooth="yes"/>
      <point x="1251" y="-28"/>
      <point x="1536" y="214"/>
      <point x="1537" y="539" type="curve" smooth="yes"/>
      <point x="1536" y="793"/>
      <point x="1361" y="1016"/>
      <point x="1129" y="1061" type="curve"/>
      <point x="1129" y="1072" type="line"/>
      <point x="1329" y="1129"/>
      <point x="1463" y="1320"/>
      <point x="1464" y="1540" type="curve" smooth="yes"/>
      <point x="1463" y="1846"/>
      <point x="1202" y="2076"/>
      <point x="861" y="2076" type="curve" smooth="yes"/>
      <point x="517" y="2076"/>
      <point x="257" y="1845"/>
      <point x="259" y="1540" type="curve" smooth="yes"/>
      <point x="257" y="1320"/>
      <point x="392" y="1130"/>
      <point x="593" y="1072" type="curve"/>
      <point x="593" y="1061" type="line"/>
      <point x="359" y="1015"/>
      <point x="184" y="793"/>
      <point x="185" y="539" type="curve" smooth="yes"/>
      <point x="184" y="214"/>
      <point x="469" y="-28"/>
    </contour>
    <contour>
      <point x="861" y="140" type="curve" smooth="yes"/>
      <point x="568" y="140"/>
      <point x="368" y="311"/>
      <point x="369" y="548" type="curve" smooth="yes"/>
      <point x="368" y="793"/>
      <point x="579" y="977"/>
      <point x="861" y="977" type="curve" smooth="yes"/>
      <point x="1141" y="977"/>
      <point x="1352" y="793"/>
      <point x="1353" y="548" type="curve" smooth="yes"/>
      <point x="1352" y="311"/>
      <point x="1153" y="140"/>
    </contour>
    <contour>
      <point x="861" y="1137" type="curve" smooth="yes"/>
      <point x="620" y="1137"/>
      <point x="439" y="1303"/>
      <point x="440" y="1529" type="curve" smooth="yes"/>
      <point x="439" y="1753"/>
      <point x="616" y="1911"/>
      <point x="861" y="1911" type="curve" smooth="yes"/>
      <point x="1104" y="1911"/>
      <point x="1281" y="1753"/>
      <point x="1283" y="1529" type="curve" smooth="yes"/>
      <point x="1281" y="1303"/>
      <point x="1100" y="1137"/>
    </contour>
  </outline>
</glyph>
<glyph name="nine" format="2">
  <advance width="1717"/>
  <unicode hex="0039"/>
  <note>
six mirrored
</note>
  <outline>
    <contour>
      <point x="844" y="2080" type="curve" smooth="yes"/>
      <point x="452" y="2083"/>
      <point x="196" y="1775"/>
      <point x="196" y="1408" type="curve" smooth="yes"/>
      <point x="196" y="1023"/>
      <point x="479" y="741"/>
      <point x="821" y="741" type="curve" smooth="yes"/>
      <point x="1041" y="741"/>
      <point x="1236" y="860"/>
      <point x="1332" y="1040" type="curve"/>
      <point x="1345" y="1040" type="line"/>
      <point x="1345" y="464"/>
      <point x="1151" y="140"/>
      <point x="816" y="140" type="curve" smooth="yes"/>
      <point x="583" y="140"/>
      <point x="439" y="297"/>
      <point x="403" y="516" type="curve"/>
      <point x="219" y="516" type="line"/>
      <point x="257" y="193"/>
      <point x="485" y="-28"/>
      <point x="816" y="-28" type="curve" smooth="yes"/>
      <point x="1288" y="-28"/>
      <point x="1521" y="444"/>
      <point x="1521" y="1113" type="curve" smooth="yes"/>
      <point x="1521" y="1832"/>
      <point x="1184" y="2077"/>
    </contour>
    <contour>
      <point x="844" y="1912" type="curve" smooth="yes"/>
      <point x="1099" y="1912"/>
      <point x="1288" y="1703"/>
      <point x="1311" y="1420" type="curve" smooth="yes"/>
      <point x="1331" y="1151"/>
      <point x="1116" y="909"/>
      <point x="844" y="909" type="curve" smooth="yes"/>
      <point x="577" y="909"/>
      <point x="377" y="1129"/>
      <point x="377" y="1408" type="curve" smooth="yes"/>
      <point x="377" y="1687"/>
      <point x="577" y="1912"/>
    </contour>
  </outline>
</glyph>
<glyph name="equal" format="2">
  <advance width="1835"/>
  <unicode hex="003D"/>
  <guideline x="268" y="800" angle="0.0"/>
  <outline>
    <contour>
      <point x="348" y="1004" type="line"/>
      <point x="1487" y="1004" type="line"/>
      <point x="1487" y="1169" type="line"/>
      <point x="348" y="1169" type="line"/>
    </contour>
    <contour>
      <point x="348" y="431" type="line"/>
      <point x="1487" y="431" type="line"/>
      <point x="1487" y="596" type="line"/>
      <point x="348" y="596" type="line"/>
    </contour>
  </outline>
</glyph>
<glyph name="greater" format="2">
  <advance width="1835"/>
  <unicode hex="003E"/>
  <guideline x="268" y="800" angle="0.0"/>
  <outline>
    <contour>
      <point x="1529" y="736" type="line"/>
      <point x="1529" y="864" type="line"/>
      <point x="305" y="1539" type="line"/>
      <point x="305" y="1343" type="line"/>
      <point x="1309" y="801" type="line"/>
      <point x="1300" y="819" type="line"/>
      <point x="1300" y="781" type="line"/>
      <point x="1309" y="799" type="line"/>
      <point x="305" y="257" type="line"/>
      <point x="305" y="61" type="line"/>
    </contour>
  </outline>
</glyph>
<glyph name="question" format="2">
  <advance width="1401"/>
  <unicode hex="003F"/>
  <outline>
    <contour>
      <point x="544" y="587" type="line"/>
      <point x="725" y="587" type="line"/>
      <point x="725" y="641" type="line" smooth="yes"/>
      <point x="728" y="861"/>
      <point x="788" y="961"/>
      <point x="969" y="1080" type="curve" smooth="yes"/>
      <point x="1159" y="1204"/>
      <point x="1255" y="1346"/>
      <point x="1255" y="1549" type="curve" smooth="yes"/>
      <point x="1255" y="1854"/>
      <point x="1027" y="2076"/>
      <point x="695" y="2076" type="curve" smooth="yes"/>
      <point x="376" y="2076"/>
      <point x="129" y="1865"/>
      <point x="119" y="1536" type="curve"/>
      <point x="308" y="1536" type="line"/>
      <point x="318" y="1784"/>
      <point x="495" y="1916"/>
      <point x="695" y="1916" type="curve" smooth="yes"/>
      <point x="906" y="1916"/>
      <point x="1073" y="1773"/>
      <point x="1073" y="1557" type="curve" smooth="yes"/>
      <point x="1073" y="1403"/>
      <point x="991" y="1292"/>
      <point x="845" y="1197" type="curve" smooth="yes"/>
      <point x="646" y="1070"/>
      <point x="546" y="957"/>
      <point x="544" y="641" type="curve" smooth="yes"/>
    </contour>
    <component base="period" xOffset="263"/>
  </outline>
</glyph>
<glyph name="at" format="2">
  <advance width="2636"/>
  <unicode hex="0040"/>
  <outline>
    <contour>
      <point x="1371" y="-541" type="curve" smooth="yes"/>
      <point x="1584" y="-541"/>
      <point x="1832" y="-477"/>
      <point x="1979" y="-397" type="curve"/>
      <point x="1928" y="-257" type="line"/>
      <point x="1820" y="-316"/>
      <point x="1596" y="-392"/>
      <point x="1376" y="-392" type="curve" smooth="yes"/>
      <point x="715" y="-392"/>
      <point x="305" y="41"/>
      <point x="305" y="715" type="curve" smooth="yes"/>
      <point x="305" y="1380"/>
      <point x="720" y="1824"/>
      <point x="1344" y="1824" type="curve" smooth="yes"/>
      <point x="1972" y="1824"/>
      <point x="2339" y="1348"/>
      <point x="2339" y="829" type="curve" smooth="yes"/>
      <point x="2339" y="416"/>
      <point x="2247" y="199"/>
      <point x="2029" y="199" type="curve" smooth="yes"/>
      <point x="1909" y="199"/>
      <point x="1856" y="281"/>
      <point x="1856" y="421" type="curve" smooth="yes"/>
      <point x="1856" y="1348" type="line"/>
      <point x="1693" y="1348" type="line"/>
      <point x="1693" y="1167" type="line"/>
      <point x="1683" y="1167" type="line"/>
      <point x="1632" y="1293"/>
      <point x="1467" y="1389"/>
      <point x="1263" y="1376" type="curve" smooth="yes"/>
      <point x="957" y="1355"/>
      <point x="721" y="1091"/>
      <point x="721" y="728" type="curve" smooth="yes"/>
      <point x="721" y="352"/>
      <point x="925" y="59"/>
      <point x="1263" y="51" type="curve" smooth="yes"/>
      <point x="1485" y="45"/>
      <point x="1627" y="165"/>
      <point x="1691" y="309" type="curve"/>
      <point x="1701" y="309" type="line"/>
      <point x="1717" y="119"/>
      <point x="1880" y="52"/>
      <point x="2027" y="52" type="curve" smooth="yes"/>
      <point x="2404" y="52"/>
      <point x="2499" y="447"/>
      <point x="2499" y="827" type="curve" smooth="yes"/>
      <point x="2499" y="1424"/>
      <point x="2067" y="1971"/>
      <point x="1352" y="1971" type="curve" smooth="yes"/>
      <point x="620" y="1971"/>
      <point x="137" y="1472"/>
      <point x="137" y="720" type="curve" smooth="yes"/>
      <point x="137" y="-49"/>
      <point x="609" y="-541"/>
    </contour>
    <contour>
      <point x="1284" y="208" type="curve" smooth="yes"/>
      <point x="1019" y="208"/>
      <point x="881" y="455"/>
      <point x="881" y="736" type="curve" smooth="yes"/>
      <point x="881" y="1001"/>
      <point x="1045" y="1224"/>
      <point x="1289" y="1224" type="curve" smooth="yes"/>
      <point x="1541" y="1224"/>
      <point x="1701" y="1071"/>
      <point x="1701" y="736" type="curve" smooth="yes"/>
      <point x="1701" y="403"/>
      <point x="1555" y="208"/>
    </contour>
  </outline>
</glyph>
<glyph name="A" format="2">
  <advance width="1848"/>
  <unicode hex="0041"/>
  <outline>
    <contour>
      <point x="275" y="0" type="line"/>
      <point x="917" y="1805" type="line"/>
      <point x="931" y="1805" type="line"/>
      <point x="1573" y="0" type="line"/>
      <point x="1769" y="0" type="line"/>
      <point x="1024" y="2048" type="line"/>
      <point x="824" y="2048" type="line"/>
      <point x="79" y="0" type="line"/>
    </contour>
    <contour>
      <point x="416" y="785" type="line"/>
      <point x="416" y="617" type="line"/>
      <point x="1432" y="617" type="line"/>
      <point x="1432" y="785" type="line"/>
    </contour>
  </outline>
</glyph>
<glyph name="B" format="2">
  <advance width="1823"/>
  <unicode hex="0042"/>
  <guideline x="931" y="1528" angle="90.0"/>
  <outline>
    <contour>
      <point x="272" y="0" type="line"/>
      <point x="1001" y="0" type="line" smooth="yes"/>
      <point x="1441" y="0"/>
      <point x="1644" y="227"/>
      <point x="1644" y="537" type="curve" smooth="yes"/>
      <point x="1644" y="848"/>
      <point x="1438" y="1035"/>
      <point x="1239" y="1049" type="curve"/>
      <point x="1239" y="1065" type="line"/>
      <point x="1422" y="1114"/>
      <point x="1564" y="1256"/>
      <point x="1564" y="1512" type="curve" smooth="yes"/>
      <point x="1564" y="1820"/>
      <point x="1363" y="2048"/>
      <point x="963" y="2048" type="curve" smooth="yes"/>
      <point x="272" y="2048" type="line"/>
    </contour>
    <contour>
      <point x="459" y="168" type="line"/>
      <point x="459" y="957" type="line"/>
      <point x="1009" y="957" type="line" smooth="yes"/>
      <point x="1284" y="957"/>
      <point x="1465" y="771"/>
      <point x="1465" y="537" type="curve" smooth="yes"/>
      <point x="1465" y="325"/>
      <point x="1317" y="168"/>
      <point x="1001" y="168" type="curve" smooth="yes"/>
    </contour>
    <contour>
      <point x="459" y="1123" type="line"/>
      <point x="459" y="1880" type="line"/>
      <point x="963" y="1880" type="line" smooth="yes"/>
      <point x="1243" y="1880"/>
      <point x="1385" y="1729"/>
      <point x="1385" y="1512" type="curve" smooth="yes"/>
      <point x="1385" y="1287"/>
      <point x="1222" y="1123"/>
      <point x="980" y="1123" type="curve" smooth="yes"/>
    </contour>
  </outline>
</glyph>
<glyph name="C" format="2">
  <advance width="2044"/>
  <unicode hex="0043"/>
  <outline>
    <contour>
      <point x="1876" y="1408" type="line"/>
      <point x="1809" y="1785"/>
      <point x="1501" y="2076"/>
      <point x="1065" y="2076" type="curve" smooth="yes"/>
      <point x="548" y="2076"/>
      <point x="180" y="1665"/>
      <point x="180" y="1024" type="curve" smooth="yes"/>
      <point x="180" y="383"/>
      <point x="548" y="-28"/>
      <point x="1065" y="-28" type="curve" smooth="yes"/>
      <point x="1501" y="-28"/>
      <point x="1809" y="264"/>
      <point x="1876" y="640" type="curve"/>
      <point x="1688" y="640" type="line"/>
      <point x="1631" y="359"/>
      <point x="1386" y="148"/>
      <point x="1065" y="148" type="curve" smooth="yes"/>
      <point x="677" y="148"/>
      <point x="361" y="455"/>
      <point x="361" y="1024" type="curve" smooth="yes"/>
      <point x="361" y="1591"/>
      <point x="677" y="1900"/>
      <point x="1065" y="1900" type="curve" smooth="yes"/>
      <point x="1386" y="1900"/>
      <point x="1631" y="1688"/>
      <point x="1688" y="1408" type="curve"/>
    </contour>
  </outline>
</glyph>
<glyph name="D" format="2">
  <advance width="2020"/>
  <unicode hex="0044"/>
  <note>
!post:RemoveOverlap
</note>
  <outline>
    <contour>
      <point x="872" y="0" type="line" smooth="yes"/>
      <point x="1488" y="0"/>
      <point x="1839" y="385"/>
      <point x="1840" y="1029" type="curve" smooth="yes"/>
      <point x="1840" y="1666"/>
      <point x="1494" y="2048"/>
      <point x="908" y="2048" type="curve" smooth="yes"/>
      <point x="368" y="2048" type="line"/>
      <point x="368" y="1880" type="line"/>
      <point x="897" y="1880" type="line" smooth="yes"/>
      <point x="1394" y="1880"/>
      <point x="1658" y="1559"/>
      <point x="1659" y="1029" type="curve" smooth="yes"/>
      <point x="1659" y="494"/>
      <point x="1389" y="168"/>
      <point x="861" y="168" type="curve" smooth="yes"/>
      <point x="376" y="168" type="line"/>
      <point x="376" y="0" type="line"/>
    </contour>
    <contour>
      <point x="459" y="2048" type="line"/>
      <point x="272" y="2048" type="line"/>
      <point x="272" y="0" type="line"/>
      <point x="459" y="0" type="line"/>
    </contour>
  </outline>
</glyph>
<glyph name="E" format="2">
  <advance width="1671"/>
  <unicode hex="0045"/>
  <outline>
    <contour>
      <point x="272" y="0" type="line"/>
      <point x="1480" y="0" type="line"/>
      <point x="1480" y="168" type="line"/>
      <point x="459" y="168" type="line"/>
      <point x="459" y="941" type="line"/>
      <point x="1397" y="941" type="line"/>
      <point x="1397" y="1109" type="line"/>
      <point x="459" y="1109" type="line"/>
      <point x="459" y="1880" type="line"/>
      <point x="1460" y="1880" type="line"/>
      <point x="1460" y="2048" type="line"/>
      <point x="272" y="2048" type="line"/>
    </contour>
  </outline>
</glyph>
<glyph name="F" format="2">
  <advance width="1651"/>
  <unicode hex="0046"/>
  <outline>
    <contour>
      <point x="272" y="0" type="line"/>
      <point x="459" y="0" type="line"/>
      <point x="459" y="941" type="line"/>
      <point x="1364" y="941" type="line"/>
      <point x="1364" y="1109" type="line"/>
      <point x="459" y="1109" type="line"/>
      <point x="459" y="1880" type="line"/>
      <point x="1457" y="1880" type="line"/>
      <point x="1457" y="2048" type="line"/>
      <point x="272" y="2048" type="line"/>
    </contour>
  </outline>
</glyph>
<glyph name="G" format="2">
  <advance width="2088"/>
  <unicode hex="0047"/>
  <guideline x="1877" y="1408" angle="0.0"/>
  <outline>
    <contour>
      <point x="1689" y="1408" type="curve"/>
      <point x="1881" y="1408" type="line"/>
      <point x="1815" y="1769"/>
      <point x="1508" y="2076"/>
      <point x="1060" y="2076" type="curve" smooth="yes"/>
      <point x="541" y="2076"/>
      <point x="180" y="1666"/>
      <point x="180" y="1024" type="curve" smooth="yes"/>
      <point x="180" y="383"/>
      <point x="537" y="-28"/>
      <point x="1073" y="-28" type="curve" smooth="yes"/>
      <point x="1552" y="-28"/>
      <point x="1895" y="299"/>
      <point x="1895" y="824" type="curve" smooth="yes"/>
      <point x="1895" y="992" type="line"/>
      <point x="1117" y="992" type="line"/>
      <point x="1117" y="824" type="line"/>
      <point x="1773" y="824" type="line"/>
      <point x="1713" y="843" type="line"/>
      <point x="1716" y="413"/>
      <point x="1451" y="148"/>
      <point x="1073" y="148" type="curve" smooth="yes"/>
      <point x="659" y="148"/>
      <point x="361" y="474"/>
      <point x="361" y="1024" type="curve" smooth="yes"/>
      <point x="361" y="1576"/>
      <point x="661" y="1900"/>
      <point x="1060" y="1900" type="curve" smooth="yes"/>
      <point x="1398" y="1900"/>
      <point x="1615" y="1680"/>
    </contour>
  </outline>
</glyph>
<glyph name="J" format="2">
  <advance width="1507"/>
  <unicode hex="004A"/>
  <guideline x="1141" y="1736" angle="90.0"/>
  <outline>
    <contour>
      <point x="1048" y="2048" type="line"/>
      <point x="1048" y="571" type="line" smooth="yes"/>
      <point x="1047" y="274"/>
      <point x="897" y="140"/>
      <point x="680" y="140" type="curve" smooth="yes"/>
      <point x="469" y="140"/>
      <point x="311" y="265"/>
      <point x="312" y="448" type="curve"/>
      <point x="128" y="448" type="line"/>
      <point x="127" y="159"/>
      <point x="362" y="-28"/>
      <point x="680" y="-28" type="curve" smooth="yes"/>
      <point x="1005" y="-28"/>
      <point x="1234" y="170"/>
      <point x="1235" y="571" type="curve" smooth="yes"/>
      <point x="1235" y="2048" type="line"/>
    </contour>
  </outline>
</glyph>
<glyph name="K" format="2">
  <advance width="1803"/>
  <unicode hex="004B"/>
  <guideline x="1712" y="2048" angle="227.6708"/>
  <outline>
    <contour>
      <point x="272" y="0" type="line"/>
      <point x="459" y="0" type="line"/>
      <point x="459" y="665" type="line"/>
      <point x="732" y="971" type="line"/>
      <point x="1491" y="0" type="line"/>
      <point x="1719" y="0" type="line"/>
      <point x="848" y="1101" type="line"/>
      <point x="1723" y="2048" type="line"/>
      <point x="1477" y="2048" type="line"/>
      <point x="477" y="945" type="line"/>
      <point x="459" y="945" type="line"/>
      <point x="459" y="2048" type="line"/>
      <point x="272" y="2048" type="line"/>
    </contour>
  </outline>
</glyph>
<glyph name="L" format="2">
  <advance width="1584"/>
  <unicode hex="004C"/>
  <guideline x="536" y="1992" angle="90.0"/>
  <guideline x="683" y="577" angle="90.0"/>
  <outline>
    <contour>
      <point x="272" y="0" type="line"/>
      <point x="1435" y="0" type="line"/>
      <point x="1435" y="168" type="line"/>
      <point x="459" y="168" type="line"/>
      <point x="459" y="2048" type="line"/>
      <point x="272" y="2048" type="line"/>
    </contour>
  </outline>
</glyph>
<glyph name="M" format="2">
  <advance width="2480"/>
  <unicode hex="004D"/>
  <outline>
    <contour>
      <point x="272" y="2048" type="line"/>
      <point x="272" y="0" type="line"/>
      <point x="448" y="0" type="line"/>
      <point x="448" y="1653" type="line"/>
      <point x="464" y="1653" type="line"/>
      <point x="1155" y="0" type="line"/>
      <point x="1325" y="0" type="line"/>
      <point x="2016" y="1653" type="line"/>
      <point x="2032" y="1653" type="line"/>
      <point x="2032" y="0" type="line"/>
      <point x="2208" y="0" type="line"/>
      <point x="2208" y="2048" type="line"/>
      <point x="1992" y="2048" type="line"/>
      <point x="1249" y="264" type="line"/>
      <point x="1231" y="264" type="line"/>
      <point x="488" y="2048" type="line"/>
    </contour>
  </outline>
</glyph>
<glyph name="N" format="2">
  <advance width="2139"/>
  <unicode hex="004E"/>
  <outline>
    <contour>
      <point x="1867" y="2048" type="line"/>
      <point x="1683" y="2048" type="line"/>
      <point x="1683" y="331" type="line"/>
      <point x="1667" y="331" type="line"/>
      <point x="453" y="2048" type="line"/>
      <point x="272" y="2048" type="line"/>
      <point x="272" y="0" type="line"/>
      <point x="459" y="0" type="line"/>
      <point x="459" y="1715" type="line"/>
      <point x="475" y="1715" type="line"/>
      <point x="1685" y="0" type="line"/>
      <point x="1867" y="0" type="line"/>
    </contour>
  </outline>
</glyph>
<glyph name="O" format="2">
  <advance width="2131"/>
  <unicode hex="004F"/>
  <outline>
    <contour>
      <point x="1951" y="1024" type="curve" smooth="yes"/>
      <point x="1951" y="1665"/>
      <point x="1583" y="2076"/>
      <point x="1065" y="2076" type="curve" smooth="yes"/>
      <point x="548" y="2076"/>
      <point x="180" y="1664"/>
      <point x="180" y="1024" type="curve" smooth="yes"/>
      <point x="180" y="384"/>
      <point x="547" y="-28"/>
      <point x="1065" y="-28" type="curve" smooth="yes"/>
      <point x="1583" y="-28"/>
      <point x="1951" y="383"/>
    </contour>
    <contour>
      <point x="1769" y="1024" type="curve" smooth="yes"/>
      <point x="1770" y="473"/>
      <point x="1469" y="148"/>
      <point x="1065" y="148" type="curve" smooth="yes"/>
      <point x="660" y="148"/>
      <point x="361" y="475"/>
      <point x="361" y="1024" type="curve" smooth="yes"/>
      <point x="361" y="1576"/>
      <point x="663" y="1900"/>
      <point x="1065" y="1900" type="curve" smooth="yes"/>
      <point x="1469" y="1900"/>
      <point x="1769" y="1575"/>
    </contour>
  </outline>
</glyph>
<glyph name="P" format="2">
  <advance width="1761"/>
  <unicode hex="0050"/>
  <outline>
    <contour>
      <point x="272" y="0" type="line"/>
      <point x="459" y="0" type="line"/>
      <point x="459" y="1880" type="line"/>
      <point x="928" y="1880" type="line" smooth="yes"/>
      <point x="1252" y="1880"/>
      <point x="1409" y="1685"/>
      <point x="1409" y="1416" type="curve" smooth="yes"/>
      <point x="1409" y="1148"/>
      <point x="1252" y="951"/>
      <point x="931" y="951" type="curve" smooth="yes"/>
      <point x="416" y="951" type="line"/>
      <point x="416" y="783" type="line"/>
      <point x="936" y="783" type="line" smooth="yes"/>
      <point x="1369" y="783"/>
      <point x="1593" y="1058"/>
      <point x="1593" y="1416" type="curve" smooth="yes"/>
      <point x="1593" y="1774"/>
      <point x="1369" y="2048"/>
      <point x="933" y="2048" type="curve" smooth="yes"/>
      <point x="272" y="2048" type="line"/>
    </contour>
  </outline>
</glyph>
<glyph name="Q" format="2">
  <advance width="2131"/>
  <unicode hex="0051"/>
  <outline>
    <contour>
      <point x="1039" y="640" type="line"/>
      <point x="1389" y="179" type="line"/>
      <point x="1431" y="123" type="line"/>
      <point x="1667" y="-192" type="line"/>
      <point x="1875" y="-192" type="line"/>
      <point x="1553" y="235" type="line"/>
      <point x="1509" y="293" type="line"/>
      <point x="1247" y="640" type="line"/>
    </contour>
    <component base="O"/>
  </outline>
</glyph>
<glyph name="R" format="2">
  <advance width="1777"/>
  <unicode hex="0052"/>
  <outline>
    <contour>
      <point x="272" y="0" type="line"/>
      <point x="459" y="0" type="line"/>
      <point x="459" y="1880" type="line"/>
      <point x="928" y="1880" type="line" smooth="yes"/>
      <point x="1252" y="1880"/>
      <point x="1409" y="1703"/>
      <point x="1409" y="1435" type="curve" smooth="yes"/>
      <point x="1409" y="1167"/>
      <point x="1252" y="999"/>
      <point x="931" y="999" type="curve" smooth="yes"/>
      <point x="373" y="999" type="line"/>
      <point x="373" y="828" type="line"/>
      <point x="936" y="828" type="line" smooth="yes"/>
      <point x="1368" y="828"/>
      <point x="1593" y="1077"/>
      <point x="1593" y="1435" type="curve" smooth="yes"/>
      <point x="1593" y="1793"/>
      <point x="1368" y="2048"/>
      <point x="933" y="2048" type="curve" smooth="yes"/>
      <point x="272" y="2048" type="line"/>
    </contour>
    <contour>
      <point x="1175" y="924" type="line"/>
      <point x="964" y="924" type="line"/>
      <point x="1463" y="0" type="line"/>
      <point x="1679" y="0" type="line"/>
    </contour>
  </outline>
</glyph>
<glyph name="S" format="2">
  <advance width="1772"/>
  <unicode hex="0053"/>
  <note>
recipe: use stroke + offset curve filter with 32, no autostroke
</note>
  <outline>
    <contour>
      <point x="1384" y="1536" type="curve"/>
      <point x="1565" y="1536" type="line"/>
      <point x="1551" y="1847"/>
      <point x="1282" y="2077"/>
      <point x="901" y="2077" type="curve" smooth="yes"/>
      <point x="523" y="2077"/>
      <point x="232" y="1850"/>
      <point x="232" y="1520" type="curve" smooth="yes"/>
      <point x="232" y="1257"/>
      <point x="418" y="1092"/>
      <point x="739" y="997" type="curve" smooth="yes"/>
      <point x="984" y="925" type="line" smooth="yes"/>
      <point x="1238" y="851"/>
      <point x="1412" y="756"/>
      <point x="1412" y="547" type="curve" smooth="yes"/>
      <point x="1412" y="301"/>
      <point x="1189" y="136"/>
      <point x="883" y="136" type="curve" smooth="yes"/>
      <point x="607" y="136"/>
      <point x="391" y="269"/>
      <point x="371" y="512" type="curve"/>
      <point x="179" y="512" type="line"/>
      <point x="201" y="188"/>
      <point x="465" y="-35"/>
      <point x="883" y="-35" type="curve" smooth="yes"/>
      <point x="1327" y="-35"/>
      <point x="1593" y="216"/>
      <point x="1593" y="544" type="curve" smooth="yes"/>
      <point x="1593" y="884"/>
      <point x="1297" y="1020"/>
      <point x="1037" y="1093" type="curve" smooth="yes"/>
      <point x="821" y="1155" type="line" smooth="yes"/>
      <point x="622" y="1211"/>
      <point x="413" y="1312"/>
      <point x="413" y="1528" type="curve" smooth="yes"/>
      <point x="413" y="1748"/>
      <point x="610" y="1909"/>
      <point x="896" y="1909" type="curve" smooth="yes"/>
      <point x="1167" y="1909"/>
      <point x="1361" y="1764"/>
    </contour>
  </outline>
</glyph>
<glyph name="T" format="2">
  <advance width="1781"/>
  <unicode hex="0054"/>
  <outline>
    <contour>
      <point x="148" y="1880" type="line"/>
      <point x="797" y="1880" type="line"/>
      <point x="797" y="0" type="line"/>
      <point x="984" y="0" type="line"/>
      <point x="984" y="1880" type="line"/>
      <point x="1633" y="1880" type="line"/>
      <point x="1633" y="2048" type="line"/>
      <point x="148" y="2048" type="line"/>
    </contour>
  </outline>
</glyph>
<glyph name="U" format="2">
  <advance width="2096"/>
  <unicode hex="0055"/>
  <outline>
    <contour>
      <point x="1637" y="2048" type="line"/>
      <point x="1637" y="692" type="line" smooth="yes"/>
      <point x="1637" y="352"/>
      <point x="1371" y="141"/>
      <point x="1048" y="141" type="curve" smooth="yes"/>
      <point x="725" y="141"/>
      <point x="459" y="352"/>
      <point x="459" y="692" type="curve" smooth="yes"/>
      <point x="459" y="2048" type="line"/>
      <point x="272" y="2048" type="line"/>
      <point x="272" y="692" type="line" smooth="yes"/>
      <point x="271" y="247"/>
      <point x="620" y="-35"/>
      <point x="1048" y="-35" type="curve" smooth="yes"/>
      <point x="1476" y="-35"/>
      <point x="1824" y="247"/>
      <point x="1824" y="692" type="curve" smooth="yes"/>
      <point x="1824" y="2048" type="line"/>
    </contour>
  </outline>
</glyph>
<glyph name="V" format="2">
  <advance width="1848"/>
  <unicode hex="0056"/>
  <outline>
    <contour>
      <point x="275" y="2048" type="line"/>
      <point x="79" y="2048" type="line"/>
      <point x="824" y="0" type="line"/>
      <point x="1024" y="0" type="line"/>
      <point x="1769" y="2048" type="line"/>
      <point x="1573" y="2048" type="line"/>
      <point x="933" y="243" type="line"/>
      <point x="915" y="243" type="line"/>
    </contour>
  </outline>
</glyph>
<glyph name="W" format="2">
  <advance width="2619"/>
  <unicode hex="0057"/>
  <outline>
    <contour>
      <point x="628" y="0" type="line"/>
      <point x="828" y="0" type="line"/>
      <point x="1303" y="1737" type="line"/>
      <point x="1316" y="1737" type="line"/>
      <point x="1791" y="0" type="line"/>
      <point x="1991" y="0" type="line"/>
      <point x="2552" y="2048" type="line"/>
      <point x="2361" y="2048" type="line"/>
      <point x="1897" y="287" type="line"/>
      <point x="1881" y="287" type="line"/>
      <point x="1417" y="2048" type="line"/>
      <point x="1201" y="2048" type="line"/>
      <point x="737" y="287" type="line"/>
      <point x="721" y="287" type="line"/>
      <point x="257" y="2048" type="line"/>
      <point x="67" y="2048" type="line"/>
    </contour>
  </outline>
</glyph>
<glyph name="X" format="2">
  <advance width="1755"/>
  <unicode hex="0058"/>
  <note>
recipe: offset curve 32, no auto
</note>
  <outline>
    <contour>
      <point x="304" y="2048" type="line"/>
      <point x="83" y="2048" type="line"/>
      <point x="752" y="1024" type="line"/>
      <point x="83" y="0" type="line"/>
      <point x="304" y="0" type="line"/>
      <point x="871" y="879" type="line"/>
      <point x="884" y="879" type="line"/>
      <point x="1451" y="0" type="line"/>
      <point x="1672" y="0" type="line"/>
      <point x="1013" y="1024" type="line"/>
      <point x="1672" y="2048" type="line"/>
      <point x="1451" y="2048" type="line"/>
      <point x="884" y="1159" type="line"/>
      <point x="871" y="1159" type="line"/>
    </contour>
  </outline>
</glyph>
<glyph name="Y" format="2">
  <advance width="1824"/>
  <unicode hex="0059"/>
  <outline>
    <contour>
      <point x="80" y="2048" type="line"/>
      <point x="819" y="887" type="line"/>
      <point x="819" y="0" type="line"/>
      <point x="1005" y="0" type="line"/>
      <point x="1005" y="887" type="line"/>
      <point x="1744" y="2048" type="line"/>
      <point x="1528" y="2048" type="line"/>
      <point x="921" y="1076" type="line"/>
      <point x="903" y="1076" type="line"/>
      <point x="296" y="2048" type="line"/>
    </contour>
  </outline>
</glyph>
<glyph name="Z" format="2">
  <advance width="1741"/>
  <unicode hex="005A"/>
  <guideline x="1132" y="199" angle="90.0"/>
  <guideline x="609" y="887" angle="90.0"/>
  <outline>
    <contour>
      <point x="191" y="0" type="line"/>
      <point x="1561" y="0" type="line"/>
      <point x="1561" y="168" type="line"/>
      <point x="413" y="168" type="line"/>
      <point x="1551" y="1907" type="line"/>
      <point x="1551" y="2048" type="line"/>
      <point x="185" y="2048" type="line"/>
      <point x="185" y="1880" type="line"/>
      <point x="1328" y="1880" type="line"/>
      <point x="191" y="141" type="line"/>
    </contour>
  </outline>
</glyph>
<glyph name="bracketleft" format="2">
  <advance width="976"/>
  <unicode hex="005B"/>
  <outline>
    <contour>
      <point x="339" y="-416" type="line"/>
      <point x="851" y="-416" type="line"/>
      <point x="851" y="-264" type="line"/>
      <point x="509" y="-264" type="line"/>
      <point x="509" y="1992" type="line"/>
      <point x="851" y="1992" type="line"/>
      <point x="851" y="2144" type="line"/>
      <point x="339" y="2144" type="line"/>
    </contour>
  </outline>
</glyph>
<glyph name="backslash" format="2">
  <advance width="944"/>
  <unicode hex="005C"/>
  <outline>
    <contour>
      <point x="83" y="2048" type="line"/>
      <point x="673" y="-308" type="line"/>
      <point x="857" y="-308" type="line"/>
      <point x="268" y="2048" type="line"/>
    </contour>
  </outline>
</glyph>
<glyph name="asciicircum" format="2">
  <advance width="1256"/>
  <unicode hex="005E"/>
  <outline>
    <contour>
      <point x="597" y="1896" type="line"/>
      <point x="597" y="1808" type="line"/>
      <point x="659" y="1808" type="line"/>
      <point x="659" y="1896" type="line"/>
    </contour>
    <contour>
      <point x="119" y="1120" type="line"/>
      <point x="303" y="1120" type="line"/>
      <point x="641" y="1848" type="line"/>
      <point x="615" y="1848" type="line"/>
      <point x="956" y="1120" type="line"/>
      <point x="1137" y="1120" type="line"/>
      <point x="727" y="1984" type="line"/>
      <point x="529" y="1984" type="line"/>
    </contour>
  </outline>
</glyph>
<glyph name="grave" format="2">
  <advance width="1400"/>
  <unicode hex="0060"/>
  <note>
mirrored version of acute
</note>
  <outline>
    <contour>
      <point x="769" y="1749" type="line"/>
      <point x="929" y="1749" type="line"/>
      <point x="673" y="2203" type="line"/>
      <point x="462" y="2203" type="line"/>
    </contour>
  </outline>
</glyph>
<glyph name="a" format="2">
  <advance width="1567"/>
  <unicode hex="0061"/>
  <guideline x="785" y="1312" angle="90.0"/>
  <outline>
    <contour>
      <point x="664" y="-35" type="curve" smooth="yes"/>
      <point x="920" y="-35"/>
      <point x="1076" y="107"/>
      <point x="1140" y="243" type="curve"/>
      <point x="1151" y="243" type="line"/>
      <point x="1151" y="0" type="line"/>
      <point x="1329" y="0" type="line"/>
      <point x="1329" y="1043" type="line" smooth="yes"/>
      <point x="1329" y="1455"/>
      <point x="1019" y="1557"/>
      <point x="784" y="1557" type="curve" smooth="yes"/>
      <point x="549" y="1557"/>
      <point x="307" y="1464"/>
      <point x="203" y="1213" type="curve"/>
      <point x="372" y="1152" type="line"/>
      <point x="428" y="1284"/>
      <point x="567" y="1397"/>
      <point x="789" y="1397" type="curve" smooth="yes"/>
      <point x="1022" y="1397"/>
      <point x="1151" y="1269"/>
      <point x="1151" y="1059" type="curve" smooth="yes"/>
      <point x="1151" y="1023" type="line" smooth="yes"/>
      <point x="1151" y="907"/>
      <point x="1007" y="905"/>
      <point x="749" y="873" type="curve" smooth="yes"/>
      <point x="402" y="830"/>
      <point x="159" y="733"/>
      <point x="159" y="429" type="curve" smooth="yes"/>
      <point x="159" y="133"/>
      <point x="385" y="-35"/>
    </contour>
    <contour>
      <point x="688" y="128" type="curve" smooth="yes"/>
      <point x="487" y="128"/>
      <point x="337" y="235"/>
      <point x="337" y="421" type="curve" smooth="yes"/>
      <point x="337" y="607"/>
      <point x="489" y="685"/>
      <point x="749" y="717" type="curve" smooth="yes"/>
      <point x="875" y="732"/>
      <point x="1099" y="760"/>
      <point x="1151" y="811" type="curve"/>
      <point x="1151" y="589" type="line" smooth="yes"/>
      <point x="1151" y="337"/>
      <point x="972" y="128"/>
    </contour>
  </outline>
</glyph>
<glyph name="b" format="2">
  <advance width="1727"/>
  <unicode hex="0062"/>
  <note>
top anchor should match top anchor of i
</note>
  <guideline x="640" y="639" angle="0.0"/>
  <outline>
    <contour>
      <point x="272" y="0" type="line"/>
      <point x="445" y="0" type="line"/>
      <point x="445" y="285" type="line"/>
      <point x="467" y="285" type="line"/>
      <point x="529" y="144"/>
      <point x="659" y="-32"/>
      <point x="939" y="-32" type="curve" smooth="yes"/>
      <point x="1316" y="-32"/>
      <point x="1571" y="287"/>
      <point x="1571" y="764" type="curve" smooth="yes"/>
      <point x="1571" y="1237"/>
      <point x="1315" y="1557"/>
      <point x="936" y="1557" type="curve" smooth="yes"/>
      <point x="655" y="1557"/>
      <point x="528" y="1381"/>
      <point x="467" y="1243" type="curve"/>
      <point x="451" y="1243" type="line"/>
      <point x="451" y="2048" type="line"/>
      <point x="272" y="2048" type="line"/>
    </contour>
    <contour>
      <point x="448" y="767" type="curve" smooth="yes"/>
      <point x="448" y="1135"/>
      <point x="617" y="1395"/>
      <point x="917" y="1395" type="curve" smooth="yes"/>
      <point x="1225" y="1395"/>
      <point x="1392" y="1121"/>
      <point x="1392" y="767" type="curve" smooth="yes"/>
      <point x="1392" y="409"/>
      <point x="1223" y="131"/>
      <point x="917" y="131" type="curve" smooth="yes"/>
      <point x="619" y="131"/>
      <point x="448" y="396"/>
    </contour>
  </outline>
</glyph>
<glyph name="c" format="2">
  <advance width="1567"/>
  <unicode hex="0063"/>
  <guideline x="824" y="1520" angle="90.0"/>
  <outline>
    <contour>
      <point x="835" y="-32" type="curve" smooth="yes"/>
      <point x="1155" y="-32"/>
      <point x="1380" y="170"/>
      <point x="1421" y="448" type="curve"/>
      <point x="1241" y="448" type="line"/>
      <point x="1200" y="252"/>
      <point x="1039" y="131"/>
      <point x="835" y="131" type="curve" smooth="yes"/>
      <point x="534" y="131"/>
      <point x="335" y="393"/>
      <point x="335" y="767" type="curve" smooth="yes"/>
      <point x="335" y="1139"/>
      <point x="540" y="1395"/>
      <point x="835" y="1395" type="curve" smooth="yes"/>
      <point x="1054" y="1395"/>
      <point x="1202" y="1254"/>
      <point x="1240" y="1080" type="curve"/>
      <point x="1420" y="1080" type="line"/>
      <point x="1378" y="1365"/>
      <point x="1140" y="1557"/>
      <point x="832" y="1557" type="curve" smooth="yes"/>
      <point x="430" y="1557"/>
      <point x="156" y="1223"/>
      <point x="156" y="761" type="curve" smooth="yes"/>
      <point x="156" y="303"/>
      <point x="422" y="-32"/>
    </contour>
  </outline>
</glyph>
<glyph name="d" format="2">
  <advance width="1727"/>
  <unicode hex="0064"/>
  <outline>
    <contour>
      <point x="788" y="-32" type="curve" smooth="yes"/>
      <point x="1067" y="-32"/>
      <point x="1197" y="145"/>
      <point x="1260" y="285" type="curve"/>
      <point x="1281" y="285" type="line"/>
      <point x="1281" y="0" type="line"/>
      <point x="1455" y="0" type="line"/>
      <point x="1455" y="2048" type="line"/>
      <point x="1276" y="2048" type="line"/>
      <point x="1276" y="1243" type="line"/>
      <point x="1260" y="1243" type="line"/>
      <point x="1199" y="1381"/>
      <point x="1072" y="1557"/>
      <point x="791" y="1557" type="curve" smooth="yes"/>
      <point x="412" y="1557"/>
      <point x="156" y="1237"/>
      <point x="156" y="764" type="curve" smooth="yes"/>
      <point x="156" y="287"/>
      <point x="411" y="-32"/>
    </contour>
    <contour>
      <point x="809" y="131" type="curve" smooth="yes"/>
      <point x="503" y="131"/>
      <point x="335" y="409"/>
      <point x="335" y="767" type="curve" smooth="yes"/>
      <point x="335" y="1121"/>
      <point x="501" y="1395"/>
      <point x="809" y="1395" type="curve" smooth="yes"/>
      <point x="1109" y="1395"/>
      <point x="1279" y="1135"/>
      <point x="1279" y="767" type="curve" smooth="yes"/>
      <point x="1279" y="396"/>
      <point x="1107" y="131"/>
    </contour>
  </outline>
</glyph>
<glyph name="e" format="2">
  <advance width="1635"/>
  <unicode hex="0065"/>
  <outline>
    <contour>
      <point x="856" y="-32" type="curve" smooth="yes"/>
      <point x="1164" y="-32"/>
      <point x="1371" y="135"/>
      <point x="1441" y="328" type="curve"/>
      <point x="1272" y="383" type="line"/>
      <point x="1213" y="245"/>
      <point x="1074" y="131"/>
      <point x="856" y="131" type="curve" smooth="yes"/>
      <point x="536" y="131"/>
      <point x="335" y="370"/>
      <point x="335" y="737" type="curve" smooth="yes"/>
      <point x="335" y="831" type="line" smooth="yes"/>
      <point x="337" y="1135"/>
      <point x="535" y="1395"/>
      <point x="829" y="1395" type="curve" smooth="yes"/>
      <point x="1104" y="1395"/>
      <point x="1297" y="1168"/>
      <point x="1297" y="872" type="curve"/>
      <point x="279" y="872" type="line"/>
      <point x="279" y="715" type="line"/>
      <point x="1479" y="715" type="line"/>
      <point x="1479" y="803" type="line" smooth="yes"/>
      <point x="1479" y="1316"/>
      <point x="1162" y="1557"/>
      <point x="829" y="1557" type="curve" smooth="yes"/>
      <point x="431" y="1557"/>
      <point x="156" y="1224"/>
      <point x="156" y="759" type="curve" smooth="yes"/>
      <point x="156" y="293"/>
      <point x="426" y="-32"/>
    </contour>
  </outline>
</glyph>
<glyph name="g" format="2">
  <advance width="1692"/>
  <unicode hex="0067"/>
  <outline>
    <contour>
      <point x="821" y="-608" type="curve" smooth="yes"/>
      <point x="1185" y="-608"/>
      <point x="1455" y="-430"/>
      <point x="1455" y="-40" type="curve" smooth="yes"/>
      <point x="1455" y="1536" type="line"/>
      <point x="1281" y="1536" type="line"/>
      <point x="1281" y="1243" type="line"/>
      <point x="1263" y="1243" type="line"/>
      <point x="1200" y="1381"/>
      <point x="1073" y="1557"/>
      <point x="791" y="1557" type="curve" smooth="yes"/>
      <point x="411" y="1557"/>
      <point x="156" y="1239"/>
      <point x="156" y="772" type="curve" smooth="yes"/>
      <point x="156" y="301"/>
      <point x="420" y="16"/>
      <point x="788" y="16" type="curve" smooth="yes"/>
      <point x="1064" y="16"/>
      <point x="1199" y="176"/>
      <point x="1260" y="317" type="curve"/>
      <point x="1276" y="317" type="line"/>
      <point x="1276" y="-29" type="line" smooth="yes"/>
      <point x="1276" y="-315"/>
      <point x="1093" y="-448"/>
      <point x="821" y="-448" type="curve" smooth="yes"/>
      <point x="558" y="-448"/>
      <point x="432" y="-321"/>
      <point x="367" y="-204" type="curve"/>
      <point x="221" y="-300" type="line"/>
      <point x="311" y="-476"/>
      <point x="507" y="-608"/>
    </contour>
    <contour>
      <point x="809" y="179" type="curve" smooth="yes"/>
      <point x="504" y="179"/>
      <point x="335" y="423"/>
      <point x="335" y="775" type="curve" smooth="yes"/>
      <point x="335" y="1121"/>
      <point x="501" y="1395"/>
      <point x="809" y="1395" type="curve" smooth="yes"/>
      <point x="1110" y="1395"/>
      <point x="1279" y="1135"/>
      <point x="1279" y="775" type="curve" smooth="yes"/>
      <point x="1279" y="404"/>
      <point x="1105" y="179"/>
    </contour>
  </outline>
</glyph>
<glyph name="h" format="2">
  <advance width="1643"/>
  <unicode hex="0068"/>
  <note>
based on "n" and made slightly wider, brining the top vertical stem with it out.
</note>
  <guideline x="325" y="1865" angle="90.0"/>
  <outline>
    <contour>
      <point x="413" y="960" type="line" smooth="yes"/>
      <point x="413" y="1228"/>
      <point x="593" y="1393"/>
      <point x="839" y="1393" type="curve" smooth="yes"/>
      <point x="1077" y="1393"/>
      <point x="1229" y="1237"/>
      <point x="1229" y="984" type="curve" smooth="yes"/>
      <point x="1229" y="0" type="line"/>
      <point x="1408" y="0" type="line"/>
      <point x="1408" y="995" type="line" smooth="yes"/>
      <point x="1408" y="1361"/>
      <point x="1196" y="1556"/>
      <point x="884" y="1556" type="curve" smooth="yes"/>
      <point x="652" y="1556"/>
      <point x="501" y="1454"/>
      <point x="429" y="1295" type="curve"/>
      <point x="413" y="1295" type="line"/>
      <point x="413" y="2048" type="line"/>
      <point x="235" y="2048" type="line"/>
      <point x="235" y="0" type="line"/>
      <point x="413" y="0" type="line"/>
    </contour>
  </outline>
</glyph>
<glyph name="k" format="2">
  <advance width="1479"/>
  <unicode hex="006B"/>
  <guideline x="325" y="1856" angle="90.0"/>
  <outline>
    <contour>
      <point x="397" y="580" type="line"/>
      <point x="653" y="821" type="line"/>
      <point x="669" y="824" type="line"/>
      <point x="1380" y="1536" type="line"/>
      <point x="1155" y="1536" type="line"/>
      <point x="435" y="813" type="line"/>
      <point x="395" y="813" type="line"/>
    </contour>
    <contour>
      <point x="235" y="0" type="line"/>
      <point x="413" y="0" type="line"/>
      <point x="413" y="2048" type="line"/>
      <point x="235" y="2048" type="line"/>
    </contour>
    <contour>
      <point x="1192" y="0" type="line"/>
      <point x="1420" y="0" type="line"/>
      <point x="696" y="912" type="line"/>
      <point x="568" y="789" type="line"/>
    </contour>
  </outline>
</glyph>
<glyph name="m" format="2">
  <advance width="2416"/>
  <unicode hex="006D"/>
  <outline>
    <contour>
      <point x="235" y="0" type="line"/>
      <point x="413" y="0" type="line"/>
      <point x="413" y="984" type="line" smooth="yes"/>
      <point x="413" y="1223"/>
      <point x="572" y="1393"/>
      <point x="785" y="1393" type="curve" smooth="yes"/>
      <point x="995" y="1393"/>
      <point x="1117" y="1253"/>
      <point x="1117" y="1045" type="curve" smooth="yes"/>
      <point x="1117" y="0" type="line"/>
      <point x="1299" y="0" type="line"/>
      <point x="1299" y="1011" type="line" smooth="yes"/>
      <point x="1299" y="1232"/>
      <point x="1431" y="1393"/>
      <point x="1665" y="1393" type="curve" smooth="yes"/>
      <point x="1868" y="1393"/>
      <point x="2003" y="1271"/>
      <point x="2003" y="1029" type="curve" smooth="yes"/>
      <point x="2003" y="0" type="line"/>
      <point x="2181" y="0" type="line"/>
      <point x="2181" y="1029" type="line" smooth="yes"/>
      <point x="2181" y="1373"/>
      <point x="2004" y="1556"/>
      <point x="1719" y="1556" type="curve" smooth="yes"/>
      <point x="1495" y="1556"/>
      <point x="1333" y="1447"/>
      <point x="1264" y="1277" type="curve"/>
      <point x="1251" y="1277" type="line"/>
      <point x="1183" y="1451"/>
      <point x="1048" y="1556"/>
      <point x="836" y="1556" type="curve" smooth="yes"/>
      <point x="635" y="1556"/>
      <point x="485" y="1459"/>
      <point x="424" y="1300" type="curve"/>
      <point x="408" y="1300" type="line"/>
      <point x="408" y="1536" type="line"/>
      <point x="235" y="1536" type="line"/>
    </contour>
  </outline>
</glyph>
<glyph name="o" format="2">
  <advance width="1664"/>
  <unicode hex="006F"/>
  <outline>
    <contour>
      <point x="832" y="-32" type="curve" smooth="yes"/>
      <point x="1230" y="-32"/>
      <point x="1508" y="293"/>
      <point x="1508" y="761" type="curve" smooth="yes"/>
      <point x="1508" y="1232"/>
      <point x="1230" y="1557"/>
      <point x="832" y="1557" type="curve" smooth="yes"/>
      <point x="434" y="1557"/>
      <point x="156" y="1232"/>
      <point x="156" y="761" type="curve" smooth="yes"/>
      <point x="156" y="293"/>
      <point x="434" y="-32"/>
    </contour>
    <contour>
      <point x="832" y="131" type="curve" smooth="yes"/>
      <point x="513" y="131"/>
      <point x="335" y="417"/>
      <point x="335" y="761" type="curve" smooth="yes"/>
      <point x="335" y="1105"/>
      <point x="513" y="1395"/>
      <point x="832" y="1395" type="curve" smooth="yes"/>
      <point x="1151" y="1395"/>
      <point x="1329" y="1105"/>
      <point x="1329" y="761" type="curve" smooth="yes"/>
      <point x="1329" y="417"/>
      <point x="1151" y="131"/>
    </contour>
  </outline>
</glyph>
<glyph name="p" format="2">
  <advance width="1687"/>
  <unicode hex="0070"/>
  <outline>
    <contour>
      <point x="232" y="-576" type="line"/>
      <point x="411" y="-576" type="line"/>
      <point x="411" y="285" type="line"/>
      <point x="427" y="285" type="line"/>
      <point x="488" y="144"/>
      <point x="620" y="-32"/>
      <point x="899" y="-32" type="curve" smooth="yes"/>
      <point x="1275" y="-32"/>
      <point x="1531" y="288"/>
      <point x="1531" y="764" type="curve" smooth="yes"/>
      <point x="1531" y="1238"/>
      <point x="1276" y="1557"/>
      <point x="896" y="1557" type="curve" smooth="yes"/>
      <point x="614" y="1557"/>
      <point x="489" y="1381"/>
      <point x="427" y="1243" type="curve"/>
      <point x="405" y="1243" type="line"/>
      <point x="405" y="1536" type="line"/>
      <point x="232" y="1536" type="line"/>
    </contour>
    <contour>
      <point x="408" y="767" type="curve" smooth="yes"/>
      <point x="408" y="1135"/>
      <point x="577" y="1395"/>
      <point x="877" y="1395" type="curve" smooth="yes"/>
      <point x="1186" y="1395"/>
      <point x="1352" y="1121"/>
      <point x="1352" y="767" type="curve" smooth="yes"/>
      <point x="1352" y="409"/>
      <point x="1183" y="131"/>
      <point x="877" y="131" type="curve" smooth="yes"/>
      <point x="580" y="131"/>
      <point x="408" y="396"/>
    </contour>
  </outline>
</glyph>
<glyph name="r" format="2">
  <advance width="1004"/>
  <unicode hex="0072"/>
  <outline>
    <contour>
      <point x="235" y="0" type="line"/>
      <point x="413" y="0" type="line"/>
      <point x="413" y="992" type="line" smooth="yes"/>
      <point x="413" y="1220"/>
      <point x="588" y="1385"/>
      <point x="828" y="1385" type="curve" smooth="yes"/>
      <point x="875" y="1385"/>
      <point x="919" y="1377"/>
      <point x="935" y="1375" type="curve"/>
      <point x="935" y="1556" type="line"/>
      <point x="911" y="1557"/>
      <point x="870" y="1559"/>
      <point x="841" y="1559" type="curve" smooth="yes"/>
      <point x="648" y="1559"/>
      <point x="483" y="1455"/>
      <point x="421" y="1300" type="curve"/>
      <point x="408" y="1300" type="line"/>
      <point x="408" y="1536" type="line"/>
      <point x="235" y="1536" type="line"/>
    </contour>
  </outline>
</glyph>
<glyph name="s" format="2">
  <advance width="1444"/>
  <unicode hex="0073"/>
  <guideline x="739" y="759" angle="90.0"/>
  <outline>
    <contour>
      <point x="1267" y="1199" type="line"/>
      <point x="1192" y="1421"/>
      <point x="1028" y="1557"/>
      <point x="747" y="1557" type="curve" smooth="yes"/>
      <point x="437" y="1557"/>
      <point x="212" y="1380"/>
      <point x="212" y="1127" type="curve" smooth="yes"/>
      <point x="212" y="921"/>
      <point x="337" y="781"/>
      <point x="604" y="717" type="curve" smooth="yes"/>
      <point x="855" y="657" type="line" smooth="yes"/>
      <point x="1024" y="617"/>
      <point x="1105" y="530"/>
      <point x="1105" y="407" type="curve" smooth="yes"/>
      <point x="1105" y="247"/>
      <point x="952" y="128"/>
      <point x="716" y="128" type="curve" smooth="yes"/>
      <point x="506" y="128"/>
      <point x="375" y="223"/>
      <point x="332" y="405" type="curve"/>
      <point x="161" y="363" type="line"/>
      <point x="215" y="107"/>
      <point x="418" y="-32"/>
      <point x="719" y="-32" type="curve" smooth="yes"/>
      <point x="1057" y="-32"/>
      <point x="1289" y="154"/>
      <point x="1289" y="415" type="curve" smooth="yes"/>
      <point x="1289" y="620"/>
      <point x="1160" y="757"/>
      <point x="903" y="820" type="curve" smooth="yes"/>
      <point x="671" y="877" type="line" smooth="yes"/>
      <point x="480" y="925"/>
      <point x="391" y="1002"/>
      <point x="391" y="1135" type="curve" smooth="yes"/>
      <point x="391" y="1291"/>
      <point x="540" y="1400"/>
      <point x="747" y="1400" type="curve" smooth="yes"/>
      <point x="954" y="1400"/>
      <point x="1056" y="1291"/>
      <point x="1104" y="1153" type="curve"/>
    </contour>
  </outline>
</glyph>
<glyph name="t" format="2">
  <advance width="1009"/>
  <unicode hex="0074"/>
  <guideline x="717" y="1229" angle="90.0"/>
  <outline>
    <contour>
      <point x="840" y="1536" type="line"/>
      <point x="107" y="1536" type="line"/>
      <point x="107" y="1381" type="line"/>
      <point x="840" y="1381" type="line"/>
    </contour>
    <component base="_part.t_base"/>
  </outline>
</glyph>
<glyph name="u" format="2">
  <advance width="1624"/>
  <unicode hex="0075"/>
  <outline>
    <contour>
      <point x="1211" y="587" type="line" smooth="yes"/>
      <point x="1211" y="305"/>
      <point x="999" y="153"/>
      <point x="791" y="153" type="curve" smooth="yes"/>
      <point x="569" y="153"/>
      <point x="413" y="312"/>
      <point x="413" y="552" type="curve" smooth="yes"/>
      <point x="413" y="1536" type="line"/>
      <point x="235" y="1536" type="line"/>
      <point x="235" y="541" type="line" smooth="yes"/>
      <point x="235" y="177"/>
      <point x="445" y="-20"/>
      <point x="740" y="-20" type="curve" smooth="yes"/>
      <point x="965" y="-20"/>
      <point x="1125" y="97"/>
      <point x="1197" y="255" type="curve"/>
      <point x="1211" y="255" type="line"/>
      <point x="1211" y="0" type="line"/>
      <point x="1389" y="0" type="line"/>
      <point x="1389" y="1536" type="line"/>
      <point x="1211" y="1536" type="line"/>
    </contour>
  </outline>
</glyph>
<glyph name="w" format="2">
  <advance width="2267"/>
  <unicode hex="0077"/>
  <guideline x="972" y="727" angle="90.0"/>
  <outline>
    <contour>
      <point x="576" y="0" type="line"/>
      <point x="760" y="0" type="line"/>
      <point x="1124" y="1259" type="line"/>
      <point x="1143" y="1259" type="line"/>
      <point x="1507" y="0" type="line"/>
      <point x="1691" y="0" type="line"/>
      <point x="2155" y="1536" type="line"/>
      <point x="1967" y="1536" type="line"/>
      <point x="1603" y="272" type="line"/>
      <point x="1589" y="272" type="line"/>
      <point x="1229" y="1536" type="line"/>
      <point x="1040" y="1536" type="line"/>
      <point x="677" y="269" type="line"/>
      <point x="664" y="269" type="line"/>
      <point x="300" y="1536" type="line"/>
      <point x="112" y="1536" type="line"/>
    </contour>
  </outline>
</glyph>
<glyph name="x" format="2">
  <advance width="1483"/>
  <unicode hex="0078"/>
  <outline>
    <contour>
      <point x="345" y="1536" type="line"/>
      <point x="139" y="1536" type="line"/>
      <point x="627" y="768" type="line"/>
      <point x="139" y="0" type="line"/>
      <point x="345" y="0" type="line"/>
      <point x="741" y="634" type="line"/>
      <point x="1137" y="0" type="line"/>
      <point x="1344" y="0" type="line"/>
      <point x="850" y="768" type="line"/>
      <point x="1344" y="1536" type="line"/>
      <point x="1137" y="1536" type="line"/>
      <point x="741" y="881" type="line"/>
    </contour>
  </outline>
</glyph>
<glyph name="y" format="2">
  <advance width="1537"/>
  <unicode hex="0079"/>
  <outline>
    <contour>
      <point x="359" y="-575" type="curve" smooth="yes"/>
      <point x="551" y="-575"/>
      <point x="692" y="-465"/>
      <point x="774" y="-243" type="curve" smooth="yes"/>
      <point x="1425" y="1533" type="line"/>
      <point x="1231" y="1536" type="line"/>
      <point x="775" y="235" type="line"/>
      <point x="761" y="235" type="line"/>
      <point x="305" y="1536" type="line"/>
      <point x="112" y="1536" type="line"/>
      <point x="677" y="-15" type="line"/>
      <point x="621" y="-171" type="line" smooth="yes"/>
      <point x="537" y="-402"/>
      <point x="416" y="-443"/>
      <point x="235" y="-385" type="curve"/>
      <point x="187" y="-543" type="line"/>
      <point x="223" y="-559"/>
      <point x="289" y="-575"/>
    </contour>
  </outline>
</glyph>
<glyph name="z" format="2">
  <advance width="1493"/>
  <unicode hex="007A"/>
  <guideline x="1304" y="811" angle="90.0"/>
  <guideline x="187" y="239" angle="90.0"/>
  <outline>
    <contour>
      <point x="187" y="0" type="line"/>
      <point x="1336" y="0" type="line"/>
      <point x="1336" y="168" type="line"/>
      <point x="432" y="168" type="line"/>
      <point x="432" y="181" type="line"/>
      <point x="1304" y="1389" type="line"/>
      <point x="1304" y="1536" type="line"/>
      <point x="225" y="1536" type="line"/>
      <point x="225" y="1368" type="line"/>
      <point x="1075" y="1368" type="line"/>
      <point x="1075" y="1355" type="line"/>
      <point x="187" y="141" type="line"/>
    </contour>
  </outline>
</glyph>
<glyph name="braceleft" format="2">
  <advance width="976"/>
  <unicode hex="007B"/>
  <guideline x="52" y="2144" angle="0.0"/>
  <guideline x="52" y="-416" angle="0.0"/>
  <guideline x="828" y="1757" angle="90.0"/>
  <outline>
    <contour>
      <point x="131" y="851" type="line"/>
      <point x="508" y="851"/>
      <point x="595" y="976"/>
      <point x="595" y="1203" type="curve" smooth="yes"/>
      <point x="595" y="1644" type="line" smooth="yes"/>
      <point x="595" y="1885"/>
      <point x="673" y="1992"/>
      <point x="897" y="1992" type="curve"/>
      <point x="897" y="2144" type="line"/>
      <point x="554" y="2144"/>
      <point x="429" y="1986"/>
      <point x="429" y="1644" type="curve" smooth="yes"/>
      <point x="429" y="1256" type="line" smooth="yes"/>
      <point x="429" y="1034"/>
      <point x="356" y="955"/>
      <point x="131" y="955" type="curve"/>
    </contour>
    <contour>
      <point x="897" y="-416" type="curve"/>
      <point x="897" y="-264" type="line"/>
      <point x="673" y="-264"/>
      <point x="595" y="-157"/>
      <point x="595" y="84" type="curve" smooth="yes"/>
      <point x="595" y="525" type="line" smooth="yes"/>
      <point x="595" y="752"/>
      <point x="508" y="877"/>
      <point x="131" y="877" type="curve"/>
      <point x="131" y="773" type="line"/>
      <point x="356" y="773"/>
      <point x="429" y="694"/>
      <point x="429" y="472" type="curve" smooth="yes"/>
      <point x="429" y="84" type="line" smooth="yes"/>
      <point x="429" y="-258"/>
      <point x="554" y="-416"/>
    </contour>
    <contour>
      <point x="131" y="773" type="line"/>
      <point x="360" y="773" type="line"/>
      <point x="360" y="955" type="line"/>
      <point x="131" y="955" type="line"/>
    </contour>
  </outline>
</glyph>
<glyph name="asciitilde" format="2">
  <advance width="1835"/>
  <unicode hex="007E"/>
  <guideline x="708" y="808" angle="320.0"/>
  <outline>
    <contour>
      <point x="243" y="629" type="curve"/>
      <point x="408" y="627" type="line"/>
      <point x="412" y="786"/>
      <point x="504" y="863"/>
      <point x="629" y="863" type="curve" smooth="yes"/>
      <point x="716" y="862"/>
      <point x="773" y="824"/>
      <point x="865" y="749" type="curve" smooth="yes"/>
      <point x="989" y="647"/>
      <point x="1082" y="590"/>
      <point x="1212" y="589" type="curve" smooth="yes"/>
      <point x="1404" y="589"/>
      <point x="1582" y="711"/>
      <point x="1592" y="984" type="curve"/>
      <point x="1427" y="989" type="line"/>
      <point x="1418" y="841"/>
      <point x="1332" y="754"/>
      <point x="1209" y="755" type="curve" smooth="yes"/>
      <point x="1129" y="755"/>
      <point x="1076" y="791"/>
      <point x="984" y="865" type="curve" smooth="yes"/>
      <point x="859" y="968"/>
      <point x="763" y="1028"/>
      <point x="627" y="1028" type="curve" smooth="yes"/>
      <point x="427" y="1028"/>
      <point x="247" y="905"/>
    </contour>
  </outline>
</glyph>
<glyph name="cent" format="2">
  <advance width="1567"/>
  <unicode hex="00A2"/>
  <outline>
    <contour>
      <point x="753" y="-256" type="line"/>
      <point x="884" y="-256" type="line"/>
      <point x="884" y="1780" type="line"/>
      <point x="753" y="1780" type="line"/>
    </contour>
    <component base="c"/>
  </outline>
</glyph>
<glyph name="sterling" format="2">
  <advance width="1776"/>
  <unicode hex="00A3"/>
  <outline>
    <contour>
      <point x="1517" y="0" type="line"/>
      <point x="1517" y="168" type="line"/>
      <point x="197" y="168" type="line"/>
      <point x="197" y="0" type="line"/>
    </contour>
    <contour>
      <point x="1101" y="815" type="line"/>
      <point x="1101" y="988" type="line"/>
      <point x="192" y="988" type="line"/>
      <point x="192" y="815" type="line"/>
    </contour>
    <contour>
      <point x="595" y="1455" type="line" smooth="yes"/>
      <point x="592" y="1752"/>
      <point x="786" y="1908"/>
      <point x="1008" y="1908" type="curve" smooth="yes"/>
      <point x="1218" y="1908"/>
      <point x="1401" y="1765"/>
      <point x="1367" y="1551" type="curve"/>
      <point x="1543" y="1503" type="line"/>
      <point x="1611" y="1795"/>
      <point x="1356" y="2076"/>
      <point x="1000" y="2076" type="curve" smooth="yes"/>
      <point x="686" y="2076"/>
      <point x="405" y="1857"/>
      <point x="419" y="1455" type="curve" smooth="yes"/>
      <point x="447" y="507" type="line" smooth="yes"/>
      <point x="451" y="365"/>
      <point x="414" y="168"/>
      <point x="285" y="168" type="curve"/>
      <point x="459" y="111" type="line"/>
      <point x="588" y="168"/>
      <point x="633" y="321"/>
      <point x="625" y="507" type="curve" smooth="yes"/>
    </contour>
  </outline>
</glyph>
<glyph name="currency" format="2">
  <advance width="1997"/>
  <unicode hex="00A4"/>
  <outline>
    <contour>
      <point x="991" y="-28" type="curve" smooth="yes"/>
      <point x="1440" y="-28"/>
      <point x="1804" y="348"/>
      <point x="1804" y="836" type="curve" smooth="yes"/>
      <point x="1804" y="1324"/>
      <point x="1440" y="1696"/>
      <point x="991" y="1696" type="curve" smooth="yes"/>
      <point x="543" y="1696"/>
      <point x="184" y="1324"/>
      <point x="184" y="836" type="curve"/>
      <point x="184" y="348"/>
      <point x="543" y="-28"/>
    </contour>
    <contour>
      <point x="991" y="179" type="curve" smooth="yes"/>
      <point x="663" y="178"/>
      <point x="392" y="479"/>
      <point x="392" y="836" type="curve"/>
      <point x="392" y="1197"/>
      <point x="663" y="1494"/>
      <point x="991" y="1493" type="curve" smooth="yes"/>
      <point x="1320" y="1494"/>
      <point x="1585" y="1197"/>
      <point x="1585" y="836" type="curve" smooth="yes"/>
      <point x="1585" y="479"/>
      <point x="1320" y="178"/>
    </contour>
    <contour>
      <point x="1561" y="1277" type="line"/>
      <point x="1839" y="1561" type="line"/>
      <point x="1685" y="1720" type="line"/>
      <point x="1412" y="1436" type="line"/>
    </contour>
    <contour>
      <point x="1685" y="-16" type="line"/>
      <point x="1839" y="144" type="line"/>
      <point x="1561" y="424" type="line"/>
      <point x="1412" y="269" type="line"/>
    </contour>
    <contour>
      <point x="305" y="-16" type="line"/>
      <point x="584" y="269" type="line"/>
      <point x="429" y="424" type="line"/>
      <point x="156" y="144" type="line"/>
    </contour>
    <contour>
      <point x="429" y="1277" type="line"/>
      <point x="584" y="1436" type="line"/>
      <point x="305" y="1720" type="line"/>
      <point x="156" y="1561" type="line"/>
    </contour>
  </outline>
</glyph>
<glyph name="yen" format="2">
  <advance width="1520"/>
  <unicode hex="00A5"/>
  <note>
line up with uni20BD
</note>
  <outline>
    <contour>
      <point x="255" y="2048" type="line"/>
      <point x="47" y="2048" type="line"/>
      <point x="664" y="847" type="line"/>
      <point x="816" y="900" type="line"/>
    </contour>
    <contour>
      <point x="704" y="900" type="line"/>
      <point x="856" y="847" type="line"/>
      <point x="1473" y="2048" type="line"/>
      <point x="1265" y="2048" type="line"/>
    </contour>
    <contour>
      <point x="853" y="1035" type="line"/>
      <point x="667" y="1035" type="line"/>
      <point x="667" y="0" type="line"/>
      <point x="853" y="0" type="line"/>
    </contour>
    <contour>
      <point x="1312" y="985" type="line"/>
      <point x="208" y="985" type="line"/>
      <point x="208" y="844" type="line"/>
      <point x="1312" y="844" type="line"/>
    </contour>
    <contour>
      <point x="1312" y="640" type="line"/>
      <point x="208" y="640" type="line"/>
      <point x="208" y="499" type="line"/>
      <point x="1312" y="499" type="line"/>
    </contour>
  </outline>
</glyph>
<glyph name="brokenbar" format="2">
  <advance width="674"/>
  <unicode hex="00A6"/>
  <outline>
    <contour>
      <point x="253" y="545" type="line"/>
      <point x="253" y="-384" type="line"/>
      <point x="420" y="-384" type="line"/>
      <point x="420" y="545" type="line"/>
    </contour>
    <contour>
      <point x="420" y="2048" type="line"/>
      <point x="253" y="2048" type="line"/>
      <point x="253" y="1123" type="line"/>
      <point x="420" y="1123" type="line"/>
    </contour>
  </outline>
</glyph>
<glyph name="section" format="2">
  <advance width="1532"/>
  <unicode hex="00A7"/>
  <note>
composed of "S" scaled down with RMX Tuner in temporary duplicate file
</note>
  <outline>
    <contour>
      <point x="1245" y="1588" type="line"/>
      <point x="1240" y="1873"/>
      <point x="1056" y="2076"/>
      <point x="764" y="2076" type="curve" smooth="yes"/>
      <point x="488" y="2076"/>
      <point x="291" y="1892"/>
      <point x="291" y="1648" type="curve" smooth="yes"/>
      <point x="291" y="1509"/>
      <point x="356" y="1407"/>
      <point x="459" y="1319" type="curve"/>
      <point x="459" y="1311" type="line"/>
      <point x="279" y="1283"/>
      <point x="157" y="1120"/>
      <point x="157" y="963" type="curve" smooth="yes"/>
      <point x="157" y="737"/>
      <point x="325" y="609"/>
      <point x="509" y="503" type="curve" smooth="yes"/>
      <point x="825" y="320" type="line" smooth="yes"/>
      <point x="980" y="229"/>
      <point x="1081" y="156"/>
      <point x="1081" y="11" type="curve" smooth="yes"/>
      <point x="1081" y="-161"/>
      <point x="932" y="-253"/>
      <point x="755" y="-253" type="curve" smooth="yes"/>
      <point x="551" y="-253"/>
      <point x="407" y="-129"/>
      <point x="401" y="77" type="curve"/>
      <point x="225" y="77" type="line"/>
      <point x="231" y="-225"/>
      <point x="451" y="-416"/>
      <point x="755" y="-416" type="curve" smooth="yes"/>
      <point x="1024" y="-416"/>
      <point x="1255" y="-272"/>
      <point x="1255" y="11" type="curve" smooth="yes"/>
      <point x="1255" y="140"/>
      <point x="1207" y="247"/>
      <point x="1071" y="351" type="curve"/>
      <point x="1071" y="355" type="line"/>
      <point x="1237" y="387"/>
      <point x="1375" y="539"/>
      <point x="1375" y="697" type="curve" smooth="yes"/>
      <point x="1375" y="941"/>
      <point x="1169" y="1069"/>
      <point x="1027" y="1153" type="curve" smooth="yes"/>
      <point x="712" y="1339" type="line" smooth="yes"/>
      <point x="592" y="1409"/>
      <point x="464" y="1503"/>
      <point x="464" y="1648" type="curve" smooth="yes"/>
      <point x="464" y="1781"/>
      <point x="568" y="1915"/>
      <point x="764" y="1915" type="curve" smooth="yes"/>
      <point x="967" y="1915"/>
      <point x="1068" y="1772"/>
      <point x="1072" y="1588" type="curve"/>
    </contour>
    <contour>
      <point x="1207" y="697" type="curve" smooth="yes"/>
      <point x="1207" y="528"/>
      <point x="1028" y="427"/>
      <point x="905" y="464" type="curve"/>
      <point x="597" y="643" type="line" smooth="yes"/>
      <point x="431" y="740"/>
      <point x="325" y="826"/>
      <point x="325" y="963" type="curve" smooth="yes"/>
      <point x="325" y="1129"/>
      <point x="468" y="1247"/>
      <point x="611" y="1207" type="curve"/>
      <point x="941" y="1013" type="line" smooth="yes"/>
      <point x="1071" y="937"/>
      <point x="1207" y="840"/>
    </contour>
  </outline>
</glyph>
<glyph name="dieresis" format="2">
  <advance width="1728"/>
  <unicode hex="00A8"/>
  <guideline x="487" y="1949" angle="0.0"/>
  <outline>
    <contour>
      <point x="608" y="1800" type="curve" smooth="yes"/>
      <point x="681" y="1800"/>
      <point x="736" y="1860"/>
      <point x="736" y="1928" type="curve" smooth="yes"/>
      <point x="736" y="2001"/>
      <point x="681" y="2056"/>
      <point x="608" y="2056" type="curve" smooth="yes"/>
      <point x="540" y="2056"/>
      <point x="480" y="2001"/>
      <point x="480" y="1928" type="curve" smooth="yes"/>
      <point x="480" y="1860"/>
      <point x="540" y="1800"/>
    </contour>
    <contour>
      <point x="1120" y="1800" type="curve" smooth="yes"/>
      <point x="1193" y="1800"/>
      <point x="1248" y="1860"/>
      <point x="1248" y="1928" type="curve" smooth="yes"/>
      <point x="1248" y="2001"/>
      <point x="1193" y="2056"/>
      <point x="1120" y="2056" type="curve" smooth="yes"/>
      <point x="1052" y="2056"/>
      <point x="992" y="2001"/>
      <point x="992" y="1928" type="curve" smooth="yes"/>
      <point x="992" y="1860"/>
      <point x="1052" y="1800"/>
    </contour>
  </outline>
</glyph>
<glyph name="copyright" format="2">
  <advance width="2576"/>
  <unicode hex="00A9"/>
  <note>
Stroke R: 116
Stroke B: 160
</note>
  <outline>
    <contour>
      <point x="710" y="1024" type="curve" smooth="yes"/>
      <point x="710" y="696"/>
      <point x="976" y="430"/>
      <point x="1304" y="430" type="curve" smooth="yes"/>
      <point x="1572" y="430"/>
      <point x="1779" y="609"/>
      <point x="1829" y="853" type="curve"/>
      <point x="1644" y="853" type="line"/>
      <point x="1602" y="707"/>
      <point x="1473" y="606"/>
      <point x="1304" y="606" type="curve" smooth="yes"/>
      <point x="1073" y="606"/>
      <point x="886" y="793"/>
      <point x="886" y="1024" type="curve" smooth="yes"/>
      <point x="886" y="1255"/>
      <point x="1073" y="1442"/>
      <point x="1304" y="1442" type="curve" smooth="yes"/>
      <point x="1473" y="1442"/>
      <point x="1616" y="1341"/>
      <point x="1657" y="1195" type="curve"/>
      <point x="1843" y="1195" type="line"/>
      <point x="1792" y="1439"/>
      <point x="1572" y="1618"/>
      <point x="1304" y="1618" type="curve" smooth="yes"/>
      <point x="976" y="1618"/>
      <point x="710" y="1352"/>
    </contour>
    <component base="circlewhite"/>
  </outline>
</glyph>
<glyph name="ordfeminine" format="2">
  <advance width="1228"/>
  <unicode hex="00AA"/>
  <outline>
    <contour>
      <point x="781" y="1184" type="line"/>
      <point x="781" y="1114"/>
      <point x="792" y="1038"/>
      <point x="812" y="973" type="curve"/>
      <point x="1053" y="973" type="line"/>
      <point x="1027" y="1050"/>
      <point x="1018" y="1129"/>
      <point x="1019" y="1220" type="curve" smooth="yes"/>
      <point x="1019" y="1652" type="line"/>
      <point x="1018" y="1904"/>
      <point x="860" y="2032"/>
      <point x="623" y="2032" type="curve" smooth="yes"/>
      <point x="364" y="2032"/>
      <point x="198" y="1896"/>
      <point x="199" y="1713" type="curve"/>
      <point x="432" y="1692" type="line"/>
      <point x="431" y="1780"/>
      <point x="503" y="1828"/>
      <point x="623" y="1828" type="curve" smooth="yes"/>
      <point x="729" y="1828"/>
      <point x="781" y="1770"/>
      <point x="781" y="1652" type="curve"/>
    </contour>
    <contour>
      <point x="840" y="1585" type="line"/>
      <point x="641" y="1585" type="line"/>
      <point x="329" y="1585"/>
      <point x="174" y="1468"/>
      <point x="173" y="1264" type="curve" smooth="yes"/>
      <point x="174" y="1076"/>
      <point x="297" y="952"/>
      <point x="516" y="952" type="curve" smooth="yes"/>
      <point x="702" y="952"/>
      <point x="805" y="1062"/>
      <point x="844" y="1149" type="curve"/>
      <point x="820" y="1308" type="line"/>
      <point x="820" y="1240"/>
      <point x="686" y="1153"/>
      <point x="575" y="1153" type="curve" smooth="yes"/>
      <point x="463" y="1153"/>
      <point x="416" y="1196"/>
      <point x="416" y="1273" type="curve" smooth="yes"/>
      <point x="416" y="1353"/>
      <point x="482" y="1425"/>
      <point x="641" y="1425" type="curve"/>
      <point x="840" y="1425" type="line"/>
    </contour>
  </outline>
</glyph>
<glyph name="logicalnot" format="2">
  <advance width="1482"/>
  <unicode hex="00AC"/>
  <outline>
    <contour>
      <point x="1312" y="1108" type="line"/>
      <point x="175" y="1108" type="line"/>
      <point x="175" y="872" type="line"/>
      <point x="1312" y="872" type="line"/>
    </contour>
    <contour>
      <point x="1312" y="1000" type="line"/>
      <point x="1037" y="1000" type="line"/>
      <point x="1037" y="516" type="line"/>
      <point x="1312" y="516" type="line"/>
    </contour>
  </outline>
</glyph>
<glyph name="registered" format="2">
  <advance width="2245"/>
  <unicode hex="00AE"/>
  <outline>
    <contour>
      <point x="1123" y="-28" type="curve" smooth="yes"/>
      <point x="1657" y="-28"/>
      <point x="2089" y="420"/>
      <point x="2089" y="1004" type="curve" smooth="yes"/>
      <point x="2089" y="1584"/>
      <point x="1657" y="2032"/>
      <point x="1123" y="2032" type="curve" smooth="yes"/>
      <point x="591" y="2032"/>
      <point x="156" y="1584"/>
      <point x="156" y="1004" type="curve" smooth="yes"/>
      <point x="156" y="420"/>
      <point x="591" y="-28"/>
    </contour>
    <contour>
      <point x="1356" y="436" type="curve"/>
      <point x="1565" y="436" type="line"/>
      <point x="1565" y="456" type="line"/>
      <point x="1549" y="501"/>
      <point x="1541" y="566"/>
      <point x="1541" y="632" type="curve"/>
      <point x="1541" y="708" type="line"/>
      <point x="1541" y="887"/>
      <point x="1455" y="1020"/>
      <point x="1169" y="1020" type="curve"/>
      <point x="1143" y="900" type="line"/>
      <point x="1285" y="900"/>
      <point x="1336" y="836"/>
      <point x="1336" y="708" type="curve"/>
      <point x="1336" y="632" type="line"/>
      <point x="1336" y="592"/>
      <point x="1336" y="480"/>
    </contour>
    <contour>
      <point x="1123" y="144" type="curve" smooth="yes"/>
      <point x="682" y="144"/>
      <point x="322" y="516"/>
      <point x="323" y="1004" type="curve" smooth="yes"/>
      <point x="322" y="1488"/>
      <point x="682" y="1860"/>
      <point x="1123" y="1860" type="curve" smooth="yes"/>
      <point x="1566" y="1860"/>
      <point x="1922" y="1488"/>
      <point x="1923" y="1004" type="curve" smooth="yes"/>
      <point x="1922" y="516"/>
      <point x="1566" y="144"/>
    </contour>
    <contour>
      <point x="723" y="436" type="line"/>
      <point x="928" y="436" type="line"/>
      <point x="928" y="1420" type="line"/>
      <point x="1108" y="1420" type="line"/>
      <point x="1281" y="1420"/>
      <point x="1344" y="1376"/>
      <point x="1344" y="1244" type="curve"/>
      <point x="1344" y="1141"/>
      <point x="1249" y="1084"/>
      <point x="1144" y="1084" type="curve"/>
      <point x="861" y="1084" type="line"/>
      <point x="865" y="900" type="line"/>
      <point x="1157" y="900" type="line"/>
      <point x="1206" y="900"/>
      <point x="1188" y="899"/>
      <point x="1235" y="928" type="curve" smooth="yes"/>
      <point x="1224" y="922"/>
      <point x="1257" y="953"/>
      <point x="1249" y="948" type="curve" smooth="yes"/>
      <point x="1444" y="1000"/>
      <point x="1545" y="1102"/>
      <point x="1545" y="1256" type="curve"/>
      <point x="1545" y="1491"/>
      <point x="1376" y="1604"/>
      <point x="1108" y="1604" type="curve"/>
      <point x="723" y="1604" type="line"/>
    </contour>
  </outline>
</glyph>
<glyph name="degree" format="2">
  <advance width="1280"/>
  <unicode hex="00B0"/>
  <outline>
    <contour>
      <point x="640" y="1177" type="curve" smooth="yes"/>
      <point x="886" y="1177"/>
      <point x="1085" y="1377"/>
      <point x="1085" y="1623" type="curve" smooth="yes"/>
      <point x="1085" y="1869"/>
      <point x="886" y="2068"/>
      <point x="640" y="2068" type="curve" smooth="yes"/>
      <point x="394" y="2068"/>
      <point x="195" y="1869"/>
      <point x="195" y="1623" type="curve" smooth="yes"/>
      <point x="195" y="1377"/>
      <point x="394" y="1177"/>
    </contour>
    <contour>
      <point x="640" y="1332" type="curve" smooth="yes"/>
      <point x="479" y="1332"/>
      <point x="349" y="1462"/>
      <point x="349" y="1623" type="curve" smooth="yes"/>
      <point x="349" y="1784"/>
      <point x="479" y="1913"/>
      <point x="640" y="1913" type="curve" smooth="yes"/>
      <point x="801" y="1913"/>
      <point x="931" y="1784"/>
      <point x="931" y="1623" type="curve" smooth="yes"/>
      <point x="931" y="1462"/>
      <point x="801" y="1332"/>
    </contour>
  </outline>
</glyph>
<glyph name="plusminus" format="2">
  <advance width="1835"/>
  <unicode hex="00B1"/>
  <guideline x="268" y="800" angle="0.0"/>
  <outline>
    <contour>
      <point x="295" y="128" type="line"/>
      <point x="1540" y="128" type="line"/>
      <point x="1540" y="299" type="line"/>
      <point x="295" y="299" type="line"/>
    </contour>
    <contour>
      <point x="295" y="923" type="line"/>
      <point x="1540" y="923" type="line"/>
      <point x="1540" y="1093" type="line"/>
      <point x="295" y="1093" type="line"/>
    </contour>
    <contour>
      <point x="832" y="480" type="line"/>
      <point x="1003" y="480" type="line"/>
      <point x="1003" y="1536" type="line"/>
      <point x="832" y="1536" type="line"/>
    </contour>
  </outline>
</glyph>
<glyph name="two.sups" format="2">
  <advance width="1176"/>
  <unicode hex="00B2"/>
  <outline>
    <contour>
      <point x="149" y="1024" type="line"/>
      <point x="1041" y="1024" type="line"/>
      <point x="1041" y="1161" type="line"/>
      <point x="388" y="1161" type="line"/>
      <point x="388" y="1168" type="line"/>
      <point x="691" y="1453" type="line" smooth="yes"/>
      <point x="909" y="1656"/>
      <point x="995" y="1764"/>
      <point x="995" y="1919" type="curve" smooth="yes"/>
      <point x="995" y="2117"/>
      <point x="823" y="2268"/>
      <point x="576" y="2268" type="curve" smooth="yes"/>
      <point x="328" y="2268"/>
      <point x="151" y="2119"/>
      <point x="151" y="1904" type="curve"/>
      <point x="311" y="1904" type="line"/>
      <point x="311" y="2037"/>
      <point x="416" y="2135"/>
      <point x="573" y="2135" type="curve" smooth="yes"/>
      <point x="723" y="2135"/>
      <point x="835" y="2047"/>
      <point x="835" y="1916" type="curve" smooth="yes"/>
      <point x="835" y="1804"/>
      <point x="764" y="1723"/>
      <point x="608" y="1575" type="curve" smooth="yes"/>
      <point x="149" y="1144" type="line"/>
    </contour>
  </outline>
</glyph>
<glyph name="three.sups" format="2">
  <advance width="1193"/>
  <unicode hex="00B3"/>
  <outline>
    <contour>
      <point x="597" y="1008" type="curve" smooth="yes"/>
      <point x="869" y="1008"/>
      <point x="1063" y="1159"/>
      <point x="1063" y="1359" type="curve" smooth="yes"/>
      <point x="1063" y="1508"/>
      <point x="953" y="1625"/>
      <point x="764" y="1656" type="curve"/>
      <point x="764" y="1664" type="line"/>
      <point x="909" y="1692"/>
      <point x="1017" y="1792"/>
      <point x="1017" y="1936" type="curve" smooth="yes"/>
      <point x="1017" y="2127"/>
      <point x="845" y="2268"/>
      <point x="599" y="2268" type="curve" smooth="yes"/>
      <point x="356" y="2268"/>
      <point x="168" y="2128"/>
      <point x="165" y="1923" type="curve"/>
      <point x="324" y="1923" type="line"/>
      <point x="328" y="2051"/>
      <point x="448" y="2135"/>
      <point x="599" y="2135" type="curve" smooth="yes"/>
      <point x="751" y="2135"/>
      <point x="855" y="2047"/>
      <point x="855" y="1928" type="curve" smooth="yes"/>
      <point x="855" y="1799"/>
      <point x="729" y="1717"/>
      <point x="565" y="1717" type="curve" smooth="yes"/>
      <point x="487" y="1717" type="line"/>
      <point x="487" y="1591" type="line"/>
      <point x="565" y="1591" type="line" smooth="yes"/>
      <point x="763" y="1591"/>
      <point x="893" y="1499"/>
      <point x="893" y="1369" type="curve" smooth="yes"/>
      <point x="893" y="1243"/>
      <point x="771" y="1148"/>
      <point x="597" y="1148" type="curve" smooth="yes"/>
      <point x="433" y="1148"/>
      <point x="307" y="1232"/>
      <point x="304" y="1356" type="curve"/>
      <point x="136" y="1356" type="line"/>
      <point x="139" y="1152"/>
      <point x="335" y="1008"/>
    </contour>
  </outline>
</glyph>
<glyph name="acute" format="2">
  <advance width="1400"/>
  <unicode hex="00B4"/>
  <outline>
    <contour>
      <point x="594" y="1749" type="line"/>
      <point x="754" y="1749" type="line"/>
      <point x="1061" y="2203" type="line"/>
      <point x="850" y="2203" type="line"/>
    </contour>
  </outline>
</glyph>
<glyph name="micro" format="2">
  <advance width="1710"/>
  <unicode hex="00B5"/>
  <outline>
    <contour>
      <point x="232" y="-583" type="line"/>
      <point x="409" y="-583" type="line"/>
      <point x="409" y="232" type="line"/>
      <point x="421" y="232" type="line"/>
      <point x="513" y="60"/>
      <point x="678" y="-30"/>
      <point x="856" y="-29" type="curve" smooth="yes"/>
      <point x="1032" y="-30"/>
      <point x="1199" y="60"/>
      <point x="1289" y="232" type="curve"/>
      <point x="1301" y="232" type="line"/>
      <point x="1301" y="0" type="line"/>
      <point x="1480" y="0" type="line"/>
      <point x="1480" y="1536" type="line"/>
      <point x="1307" y="1536" type="line"/>
      <point x="1307" y="620" type="line" smooth="yes"/>
      <point x="1306" y="350"/>
      <point x="1128" y="164"/>
      <point x="856" y="164" type="curve" smooth="yes"/>
      <point x="582" y="164"/>
      <point x="404" y="348"/>
      <point x="404" y="620" type="curve" smooth="yes"/>
      <point x="404" y="1536" type="line"/>
      <point x="232" y="1536" type="line"/>
    </contour>
  </outline>
</glyph>
<glyph name="paragraph" format="2">
  <advance width="1645"/>
  <unicode hex="00B6"/>
  <note>
aka PILCROW SIGN
</note>
  <outline>
    <contour>
      <point x="1373" y="1880" type="line"/>
      <point x="1373" y="2048" type="line"/>
      <point x="841" y="2048" type="line" smooth="yes"/>
      <point x="405" y="2048"/>
      <point x="165" y="1772"/>
      <point x="165" y="1404" type="curve" smooth="yes"/>
      <point x="165" y="1032"/>
      <point x="405" y="760"/>
      <point x="841" y="760" type="curve" smooth="yes"/>
      <point x="957" y="760" type="line"/>
      <point x="957" y="1880" type="line"/>
    </contour>
    <contour>
      <point x="1187" y="0" type="line"/>
      <point x="1373" y="0" type="line"/>
      <point x="1373" y="2048" type="line"/>
      <point x="1187" y="2048" type="line"/>
    </contour>
  </outline>
</glyph>
<glyph name="cedilla" format="2">
  <advance width="693"/>
  <unicode hex="00B8"/>
  <outline>
    <contour>
      <point x="274" y="8" type="line"/>
      <point x="238" y="-169" type="line"/>
      <point x="388" y="-176"/>
      <point x="456" y="-212"/>
      <point x="456" y="-312" type="curve" smooth="yes"/>
      <point x="456" y="-406"/>
      <point x="375" y="-445"/>
      <point x="243" y="-447" type="curve"/>
      <point x="249" y="-572" type="line"/>
      <point x="491" y="-570"/>
      <point x="618" y="-468"/>
      <point x="619" y="-307" type="curve" smooth="yes"/>
      <point x="618" y="-161"/>
      <point x="525" y="-90"/>
      <point x="411" y="-72" type="curve"/>
      <point x="426" y="8" type="line"/>
    </contour>
  </outline>
</glyph>
<glyph name="one.sups" format="2">
  <advance width="821"/>
  <unicode hex="00B9"/>
  <outline>
    <contour>
      <point x="571" y="2252" type="line"/>
      <point x="416" y="2252" type="line"/>
      <point x="408" y="2203"/>
      <point x="297" y="2059"/>
      <point x="116" y="2053" type="curve"/>
      <point x="116" y="1919" type="line"/>
      <point x="273" y="1920"/>
      <point x="369" y="1999"/>
      <point x="397" y="2032" type="curve"/>
      <point x="408" y="2032" type="line"/>
      <point x="408" y="1024" type="line"/>
      <point x="571" y="1024" type="line"/>
    </contour>
  </outline>
</glyph>
<glyph name="ordmasculine" format="2">
  <advance width="1230"/>
  <unicode hex="00BA"/>
  <outline>
    <contour>
      <point x="144" y="1436" type="line"/>
      <point x="144" y="1152"/>
      <point x="326" y="953"/>
      <point x="620" y="953" type="curve" smooth="yes"/>
      <point x="908" y="953"/>
      <point x="1086" y="1152"/>
      <point x="1087" y="1436" type="curve"/>
      <point x="1087" y="1545" type="line"/>
      <point x="1086" y="1828"/>
      <point x="909" y="2032"/>
      <point x="616" y="2032" type="curve" smooth="yes"/>
      <point x="326" y="2032"/>
      <point x="144" y="1828"/>
      <point x="144" y="1545" type="curve"/>
    </contour>
    <contour>
      <point x="381" y="1545" type="line"/>
      <point x="382" y="1705"/>
      <point x="461" y="1828"/>
      <point x="616" y="1828" type="curve" smooth="yes"/>
      <point x="774" y="1828"/>
      <point x="849" y="1705"/>
      <point x="849" y="1545" type="curve"/>
      <point x="849" y="1436" type="line"/>
      <point x="849" y="1272"/>
      <point x="774" y="1152"/>
      <point x="620" y="1152" type="curve" smooth="yes"/>
      <point x="461" y="1152"/>
      <point x="382" y="1272"/>
      <point x="381" y="1436" type="curve"/>
    </contour>
  </outline>
</glyph>
<glyph name="AE" format="2">
  <advance width="2759"/>
  <unicode hex="00C6"/>
  <outline>
    <contour>
      <point x="79" y="0" type="line"/>
      <point x="284" y="0" type="line"/>
      <point x="1195" y="1880" type="line"/>
      <point x="1360" y="1880" type="line"/>
      <point x="1360" y="0" type="line"/>
      <point x="2568" y="0" type="line"/>
      <point x="2568" y="168" type="line"/>
      <point x="1547" y="168" type="line"/>
      <point x="1547" y="941" type="line"/>
      <point x="2485" y="941" type="line"/>
      <point x="2485" y="1109" type="line"/>
      <point x="1547" y="1109" type="line"/>
      <point x="1547" y="1880" type="line"/>
      <point x="2548" y="1880" type="line"/>
      <point x="2548" y="2048" type="line"/>
      <point x="1088" y="2048" type="line"/>
    </contour>
    <contour>
      <point x="503" y="617" type="line"/>
      <point x="1455" y="617" type="line"/>
      <point x="1455" y="785" type="line"/>
      <point x="503" y="785" type="line"/>
    </contour>
  </outline>
</glyph>
<glyph name="multiply" format="2">
  <advance width="1835"/>
  <unicode hex="00D7"/>
  <guideline x="268" y="800" angle="0.0"/>
  <outline>
    <contour>
      <point x="1423" y="178" type="line"/>
      <point x="1540" y="294" type="line"/>
      <point x="412" y="1422" type="line"/>
      <point x="295" y="1306" type="line"/>
    </contour>
    <contour>
      <point x="412" y="178" type="line"/>
      <point x="1540" y="1306" type="line"/>
      <point x="1423" y="1422" type="line"/>
      <point x="295" y="294" type="line"/>
    </contour>
  </outline>
</glyph>
<glyph name="Oslash" format="2">
  <advance width="2131"/>
  <unicode hex="00D8"/>
  <outline>
    <contour>
      <point x="417" y="-72" type="line"/>
      <point x="1827" y="2036" type="line"/>
      <point x="1708" y="2117" type="line"/>
      <point x="299" y="9" type="line"/>
    </contour>
    <component base="O"/>
  </outline>
</glyph>
<glyph name="Thorn" format="2">
  <advance width="1738"/>
  <unicode hex="00DE"/>
  <outline>
    <contour>
      <point x="252" y="2048" type="line"/>
      <point x="252" y="0" type="line"/>
      <point x="437" y="0" type="line"/>
      <point x="437" y="2048" type="line"/>
    </contour>
    <contour>
      <point x="340" y="1608" type="line"/>
      <point x="340" y="1427" type="line"/>
      <point x="865" y="1427" type="line" smooth="yes"/>
      <point x="1162" y="1426"/>
      <point x="1335" y="1285"/>
      <point x="1336" y="1029" type="curve" smooth="yes"/>
      <point x="1335" y="772"/>
      <point x="1162" y="639"/>
      <point x="865" y="640" type="curve" smooth="yes"/>
      <point x="340" y="640" type="line"/>
      <point x="340" y="457" type="line"/>
      <point x="865" y="457" type="line" smooth="yes"/>
      <point x="1282" y="457"/>
      <point x="1512" y="721"/>
      <point x="1512" y="1033" type="curve" smooth="yes"/>
      <point x="1512" y="1345"/>
      <point x="1282" y="1608"/>
      <point x="865" y="1608" type="curve" smooth="yes"/>
    </contour>
  </outline>
</glyph>
<glyph name="germandbls" format="2">
  <advance width="1665"/>
  <unicode hex="00DF"/>
  <outline>
    <contour>
      <point x="272" y="0" type="line"/>
      <point x="444" y="0" type="line"/>
      <point x="444" y="1551" type="line" smooth="yes"/>
      <point x="444" y="1756"/>
      <point x="609" y="1902"/>
      <point x="827" y="1901" type="curve" smooth="yes"/>
      <point x="1061" y="1902"/>
      <point x="1207" y="1736"/>
      <point x="1208" y="1529" type="curve" smooth="yes"/>
      <point x="1208" y="1329"/>
      <point x="1071" y="1135"/>
      <point x="849" y="1136" type="curve" smooth="yes"/>
      <point x="715" y="1136" type="line"/>
      <point x="715" y="948" type="line"/>
      <point x="901" y="948" type="line" smooth="yes"/>
      <point x="1158" y="947"/>
      <point x="1320" y="778"/>
      <point x="1320" y="551" type="curve" smooth="yes"/>
      <point x="1319" y="334"/>
      <point x="1172" y="178"/>
      <point x="944" y="177" type="curve" smooth="yes"/>
      <point x="707" y="177" type="line"/>
      <point x="707" y="0" type="line"/>
      <point x="916" y="0" type="line" smooth="yes"/>
      <point x="1266" y="0"/>
      <point x="1491" y="252"/>
      <point x="1491" y="564" type="curve" smooth="yes"/>
      <point x="1490" y="848"/>
      <point x="1301" y="1031"/>
      <point x="1044" y="1060" type="curve"/>
      <point x="1044" y="1080" type="line"/>
      <point x="1238" y="1151"/>
      <point x="1377" y="1315"/>
      <point x="1377" y="1557" type="curve" smooth="yes"/>
      <point x="1377" y="1871"/>
      <point x="1146" y="2076"/>
      <point x="825" y="2076" type="curve" smooth="yes"/>
      <point x="504" y="2076"/>
      <point x="271" y="1868"/>
      <point x="272" y="1529" type="curve" smooth="yes"/>
    </contour>
  </outline>
</glyph>
<glyph name="ae" format="2">
  <advance width="2601"/>
  <unicode hex="00E6"/>
  <outline>
    <contour>
      <point x="1823" y="-32" type="curve" smooth="yes"/>
      <point x="2131" y="-32"/>
      <point x="2337" y="135"/>
      <point x="2408" y="328" type="curve"/>
      <point x="2239" y="383" type="line"/>
      <point x="2180" y="245"/>
      <point x="2041" y="131"/>
      <point x="1823" y="131" type="curve" smooth="yes"/>
      <point x="1504" y="131"/>
      <point x="1301" y="371"/>
      <point x="1301" y="737" type="curve" smooth="yes"/>
      <point x="1301" y="831" type="line" smooth="yes"/>
      <point x="1304" y="1135"/>
      <point x="1502" y="1395"/>
      <point x="1796" y="1395" type="curve" smooth="yes"/>
      <point x="2071" y="1395"/>
      <point x="2264" y="1168"/>
      <point x="2264" y="872" type="curve"/>
      <point x="1249" y="872" type="line"/>
      <point x="1249" y="715" type="line"/>
      <point x="2445" y="715" type="line"/>
      <point x="2445" y="803" type="line" smooth="yes"/>
      <point x="2445" y="1316"/>
      <point x="2128" y="1557"/>
      <point x="1796" y="1557" type="curve" smooth="yes"/>
      <point x="1528" y="1557"/>
      <point x="1330" y="1406"/>
      <point x="1229" y="1164" type="curve"/>
      <point x="1193" y="433" type="line"/>
      <point x="1259" y="157"/>
      <point x="1493" y="-32"/>
    </contour>
    <contour>
      <point x="688" y="128" type="curve" smooth="yes"/>
      <point x="487" y="128"/>
      <point x="337" y="235"/>
      <point x="337" y="421" type="curve" smooth="yes"/>
      <point x="337" y="607"/>
      <point x="489" y="685"/>
      <point x="749" y="717" type="curve" smooth="yes"/>
      <point x="875" y="732"/>
      <point x="1099" y="760"/>
      <point x="1151" y="811" type="curve"/>
      <point x="1151" y="589" type="line" smooth="yes"/>
      <point x="1151" y="337"/>
      <point x="972" y="128"/>
    </contour>
    <contour>
      <point x="664" y="-35" type="curve" smooth="yes"/>
      <point x="920" y="-35"/>
      <point x="1161" y="109"/>
      <point x="1232" y="347" type="curve"/>
      <point x="1249" y="347" type="line"/>
      <point x="1311" y="1181" type="line" smooth="yes"/>
      <point x="1249" y="1465"/>
      <point x="997" y="1557"/>
      <point x="784" y="1557" type="curve" smooth="yes"/>
      <point x="549" y="1557"/>
      <point x="307" y="1464"/>
      <point x="203" y="1213" type="curve"/>
      <point x="372" y="1152" type="line"/>
      <point x="428" y="1284"/>
      <point x="568" y="1397"/>
      <point x="789" y="1397" type="curve" smooth="yes"/>
      <point x="1021" y="1397"/>
      <point x="1151" y="1268"/>
      <point x="1151" y="1059" type="curve" smooth="yes"/>
      <point x="1151" y="1023" type="line" smooth="yes"/>
      <point x="1151" y="908"/>
      <point x="1007" y="905"/>
      <point x="749" y="873" type="curve" smooth="yes"/>
      <point x="403" y="831"/>
      <point x="159" y="733"/>
      <point x="159" y="429" type="curve" smooth="yes"/>
      <point x="159" y="133"/>
      <point x="385" y="-35"/>
    </contour>
  </outline>
</glyph>
<glyph name="eth" format="2">
  <advance width="1639"/>
  <unicode hex="00F0"/>
  <outline>
    <contour>
      <point x="1345" y="1972" type="line"/>
      <point x="1293" y="2097" type="line"/>
      <point x="485" y="1715" type="line"/>
      <point x="537" y="1589" type="line"/>
    </contour>
    <contour>
      <point x="820" y="-32" type="curve" smooth="yes"/>
      <point x="1220" y="-32"/>
      <point x="1485" y="256"/>
      <point x="1485" y="752" type="curve" smooth="yes"/>
      <point x="1485" y="1453"/>
      <point x="1010" y="1944"/>
      <point x="567" y="2176" type="curve"/>
      <point x="491" y="2041" type="line"/>
      <point x="1002" y="1783"/>
      <point x="1216" y="1388"/>
      <point x="1288" y="1136" type="curve"/>
      <point x="1268" y="1136" type="line"/>
      <point x="1205" y="1264"/>
      <point x="1062" y="1439"/>
      <point x="801" y="1445" type="curve" smooth="yes"/>
      <point x="434" y="1461"/>
      <point x="154" y="1146"/>
      <point x="155" y="704" type="curve" smooth="yes"/>
      <point x="154" y="276"/>
      <point x="411" y="-32"/>
    </contour>
    <contour>
      <point x="815" y="140" type="curve" smooth="yes"/>
      <point x="468" y="140"/>
      <point x="334" y="430"/>
      <point x="333" y="704" type="curve" smooth="yes"/>
      <point x="334" y="996"/>
      <point x="487" y="1289"/>
      <point x="815" y="1289" type="curve" smooth="yes"/>
      <point x="1172" y="1289"/>
      <point x="1305" y="939"/>
      <point x="1305" y="683" type="curve" smooth="yes"/>
      <point x="1305" y="393"/>
      <point x="1140" y="140"/>
    </contour>
  </outline>
</glyph>
<glyph name="divide" format="2">
  <advance width="1835"/>
  <unicode hex="00F7"/>
  <guideline x="268" y="800" angle="0.0"/>
  <outline>
    <contour>
      <point x="1537" y="885" type="line"/>
      <point x="297" y="885" type="line"/>
      <point x="297" y="715" type="line"/>
      <point x="1537" y="715" type="line"/>
    </contour>
    <contour>
      <point x="917" y="160" type="curve" smooth="yes"/>
      <point x="995" y="160"/>
      <point x="1059" y="224"/>
      <point x="1059" y="304" type="curve" smooth="yes"/>
      <point x="1059" y="381"/>
      <point x="995" y="445"/>
      <point x="917" y="445" type="curve" smooth="yes"/>
      <point x="837" y="445"/>
      <point x="773" y="381"/>
      <point x="773" y="304" type="curve" smooth="yes"/>
      <point x="773" y="224"/>
      <point x="837" y="160"/>
    </contour>
    <contour>
      <point x="917" y="1155" type="curve" smooth="yes"/>
      <point x="995" y="1155"/>
      <point x="1059" y="1219"/>
      <point x="1059" y="1299" type="curve" smooth="yes"/>
      <point x="1059" y="1376"/>
      <point x="995" y="1440"/>
      <point x="917" y="1440" type="curve" smooth="yes"/>
      <point x="837" y="1440"/>
      <point x="773" y="1376"/>
      <point x="773" y="1299" type="curve" smooth="yes"/>
      <point x="773" y="1219"/>
      <point x="837" y="1155"/>
    </contour>
  </outline>
</glyph>
<glyph name="thorn" format="2">
  <advance width="1713"/>
  <unicode hex="00FE"/>
  <outline>
    <contour>
      <point x="232" y="2048" type="line"/>
      <point x="232" y="-576" type="line"/>
      <point x="404" y="-576" type="line"/>
      <point x="404" y="284" type="line"/>
      <point x="373" y="796" type="line"/>
      <point x="404" y="1144" type="line"/>
      <point x="404" y="2048" type="line"/>
    </contour>
    <contour>
      <point x="333" y="1269" type="line"/>
      <point x="333" y="259" type="line"/>
      <point x="425" y="259" type="line"/>
      <point x="476" y="183"/>
      <point x="567" y="-34"/>
      <point x="897" y="-35" type="curve" smooth="yes"/>
      <point x="1293" y="-34"/>
      <point x="1558" y="285"/>
      <point x="1559" y="764" type="curve" smooth="yes"/>
      <point x="1558" y="1233"/>
      <point x="1297" y="1556"/>
      <point x="892" y="1556" type="curve" smooth="yes"/>
      <point x="559" y="1556"/>
      <point x="477" y="1341"/>
      <point x="425" y="1269" type="curve"/>
    </contour>
    <contour>
      <point x="1379" y="768" type="curve" smooth="yes"/>
      <point x="1378" y="423"/>
      <point x="1213" y="135"/>
      <point x="893" y="136" type="curve" smooth="yes"/>
      <point x="593" y="135"/>
      <point x="413" y="387"/>
      <point x="413" y="768" type="curve" smooth="yes"/>
      <point x="413" y="1142"/>
      <point x="587" y="1386"/>
      <point x="893" y="1387" type="curve" smooth="yes"/>
      <point x="1218" y="1386"/>
      <point x="1378" y="1108"/>
    </contour>
  </outline>
</glyph>
<glyph name="Hbar" format="2">
  <advance width="2157"/>
  <unicode hex="0126"/>
  <outline>
    <contour>
      <point x="2009" y="1591" type="line"/>
      <point x="148" y="1591" type="line"/>
      <point x="148" y="1393" type="line"/>
      <point x="2009" y="1393" type="line"/>
    </contour>
    <component base="H" xOffset="40"/>
  </outline>
</glyph>
<glyph name="idotless" format="2">
  <advance width="653"/>
  <unicode hex="0131"/>
  <outline>
    <contour>
      <point x="237" y="0" type="line"/>
      <point x="416" y="0" type="line"/>
      <point x="416" y="1536" type="line"/>
      <point x="237" y="1536" type="line"/>
    </contour>
  </outline>
</glyph>
<glyph name="kgreenlandic" format="2">
  <advance width="1738"/>
  <unicode hex="0138"/>
  <outline>
    <contour>
      <point x="480" y="1488" type="line"/>
      <point x="253" y="1488" type="line"/>
      <point x="253" y="0" type="line"/>
      <point x="480" y="0" type="line"/>
    </contour>
    <contour>
      <point x="1435" y="1488" type="line"/>
      <point x="1169" y="1488" type="line"/>
      <point x="588" y="840" type="line"/>
      <point x="340" y="840" type="line"/>
      <point x="381" y="659" type="line"/>
      <point x="681" y="659" type="line"/>
    </contour>
    <contour>
      <point x="1201" y="0" type="line"/>
      <point x="1485" y="0" type="line"/>
      <point x="688" y="881" type="line"/>
      <point x="573" y="685" type="line"/>
    </contour>
  </outline>
</glyph>
<glyph name="Lslash" format="2">
  <advance width="1562"/>
  <unicode hex="0141"/>
  <outline>
    <contour>
      <point x="840" y="1265" type="line"/>
      <point x="67" y="1011" type="line"/>
      <point x="67" y="849" type="line"/>
      <point x="840" y="1105" type="line"/>
    </contour>
    <component base="L" xOffset="-29"/>
  </outline>
</glyph>
<glyph name="lslash" format="2">
  <advance width="635"/>
  <unicode hex="0142"/>
  <outline>
    <contour>
      <point x="633" y="1263" type="line"/>
      <point x="1" y="1008" type="line"/>
      <point x="1" y="852" type="line"/>
      <point x="633" y="1107" type="line"/>
    </contour>
    <component base="l"/>
  </outline>
</glyph>
<glyph name="Eng" format="2">
  <advance width="2139"/>
  <unicode hex="014A"/>
  <outline>
    <contour>
      <point x="1671" y="0" type="line"/>
      <point x="1671" y="-184" type="line" smooth="yes"/>
      <point x="1670" y="-354"/>
      <point x="1569" y="-398"/>
      <point x="1445" y="-397" type="curve" smooth="yes"/>
      <point x="1425" y="-398"/>
      <point x="1406" y="-394"/>
      <point x="1393" y="-392" type="curve"/>
      <point x="1393" y="-557" type="line"/>
      <point x="1425" y="-568"/>
      <point x="1475" y="-566"/>
      <point x="1523" y="-565" type="curve" smooth="yes"/>
      <point x="1700" y="-566"/>
      <point x="1866" y="-413"/>
      <point x="1865" y="-192" type="curve" smooth="yes"/>
      <point x="1865" y="0" type="line"/>
    </contour>
    <component base="N"/>
  </outline>
</glyph>
<glyph name="eng" format="2">
  <advance width="1605"/>
  <unicode hex="014B"/>
  <outline>
    <contour>
      <point x="1208" y="0" type="line"/>
      <point x="1208" y="-191" type="line" smooth="yes"/>
      <point x="1208" y="-365"/>
      <point x="1103" y="-414"/>
      <point x="971" y="-413" type="curve" smooth="yes"/>
      <point x="949" y="-414"/>
      <point x="925" y="-410"/>
      <point x="912" y="-408" type="curve"/>
      <point x="921" y="-560" type="line"/>
      <point x="945" y="-570"/>
      <point x="991" y="-570"/>
      <point x="1031" y="-569" type="curve" smooth="yes"/>
      <point x="1220" y="-570"/>
      <point x="1381" y="-429"/>
      <point x="1381" y="-191" type="curve" smooth="yes"/>
      <point x="1381" y="0" type="line"/>
    </contour>
    <component base="n"/>
  </outline>
</glyph>
<glyph name="OE" format="2">
  <advance width="2652"/>
  <unicode hex="0152"/>
  <note>
!post:RemoveOverlap
</note>
  <outline>
    <contour>
      <point x="1063" y="0" type="curve" smooth="yes"/>
      <point x="1331" y="0" type="line"/>
      <point x="1331" y="168" type="line"/>
      <point x="1063" y="168" type="line" smooth="yes"/>
      <point x="642" y="168"/>
      <point x="359" y="515"/>
      <point x="359" y="1024" type="curve" smooth="yes"/>
      <point x="359" y="1539"/>
      <point x="644" y="1881"/>
      <point x="1063" y="1880" type="curve" smooth="yes"/>
      <point x="1331" y="1880" type="line"/>
      <point x="1331" y="2048" type="line"/>
      <point x="1063" y="2048" type="line" smooth="yes"/>
      <point x="534" y="2048"/>
      <point x="177" y="1638"/>
      <point x="177" y="1024" type="curve" smooth="yes"/>
      <point x="177" y="413"/>
      <point x="534" y="0"/>
    </contour>
    <component base="E" xOffset="981"/>
  </outline>
</glyph>
<glyph name="longs" format="2">
  <advance width="731"/>
  <unicode hex="017F"/>
  <outline>
    <contour>
      <point x="277" y="0" type="line"/>
      <point x="277" y="1649" type="line"/>
      <point x="278" y="1842"/>
      <point x="366" y="1958"/>
      <point x="535" y="1959" type="curve" smooth="yes"/>
      <point x="578" y="1958"/>
      <point x="620" y="1954"/>
      <point x="649" y="1947" type="curve"/>
      <point x="681" y="2112" type="line"/>
      <point x="621" y="2128"/>
      <point x="555" y="2140"/>
      <point x="495" y="2140" type="curve" smooth="yes"/>
      <point x="220" y="2140"/>
      <point x="51" y="1966"/>
      <point x="51" y="1649" type="curve"/>
      <point x="51" y="0" type="line"/>
    </contour>
  </outline>
</glyph>
<glyph name="Bhook" format="2">
  <advance width="2200"/>
  <unicode hex="0181"/>
  <outline>
    <contour>
      <point x="664" y="1873" type="line"/>
      <point x="664" y="2048" type="line"/>
      <point x="497" y="2048" type="line" smooth="yes"/>
      <point x="266" y="2048"/>
      <point x="148" y="1871"/>
      <point x="148" y="1680" type="curve" smooth="yes"/>
      <point x="148" y="1565" type="line"/>
      <point x="329" y="1565" type="line"/>
      <point x="329" y="1628" type="line" smooth="yes"/>
      <point x="329" y="1757"/>
      <point x="344" y="1873"/>
      <point x="501" y="1873" type="curve" smooth="yes"/>
    </contour>
    <component base="B" xOffset="377"/>
  </outline>
</glyph>
<glyph name="Btopbar" format="2">
  <advance width="1838"/>
  <unicode hex="0182"/>
  <outline>
    <contour>
      <point x="272" y="0" type="line"/>
      <point x="1040" y="0" type="line" smooth="yes"/>
      <point x="1465" y="0"/>
      <point x="1684" y="242"/>
      <point x="1684" y="588" type="curve" smooth="yes"/>
      <point x="1684" y="933"/>
      <point x="1465" y="1154"/>
      <point x="1040" y="1153" type="curve" smooth="yes"/>
      <point x="457" y="1153" type="line"/>
      <point x="457" y="1873" type="line"/>
      <point x="1467" y="1873" type="line"/>
      <point x="1467" y="2048" type="line"/>
      <point x="272" y="2048" type="line"/>
    </contour>
    <contour>
      <point x="457" y="172" type="line"/>
      <point x="457" y="975" type="line"/>
      <point x="1040" y="975" type="line" smooth="yes"/>
      <point x="1336" y="974"/>
      <point x="1502" y="798"/>
      <point x="1501" y="592" type="curve" smooth="yes"/>
      <point x="1502" y="381"/>
      <point x="1336" y="172"/>
      <point x="1040" y="172" type="curve" smooth="yes"/>
    </contour>
  </outline>
</glyph>
<glyph name="Tonesix" format="2">
  <advance width="1946"/>
  <unicode hex="0184"/>
  <outline>
    <contour>
      <point x="712" y="2048" type="line"/>
      <point x="25" y="2048" type="line"/>
      <point x="25" y="1873" type="line"/>
      <point x="712" y="1873" type="line"/>
    </contour>
    <contour>
      <point x="653" y="1153" type="line"/>
      <point x="653" y="975" type="line"/>
      <point x="1269" y="975" type="line"/>
      <point x="1566" y="974"/>
      <point x="1731" y="798"/>
      <point x="1732" y="592" type="curve"/>
      <point x="1731" y="381"/>
      <point x="1566" y="172"/>
      <point x="1269" y="172" type="curve"/>
      <point x="688" y="172" type="line"/>
      <point x="688" y="2048" type="line"/>
      <point x="501" y="2048" type="line"/>
      <point x="501" y="0" type="line"/>
      <point x="1269" y="0" type="line"/>
      <point x="1694" y="0"/>
      <point x="1914" y="242"/>
      <point x="1913" y="588" type="curve"/>
      <point x="1914" y="933"/>
      <point x="1694" y="1154"/>
      <point x="1269" y="1153" type="curve"/>
    </contour>
  </outline>
</glyph>
<glyph name="tonesix" format="2">
  <advance width="1741"/>
  <unicode hex="0185"/>
  <outline>
    <contour>
      <point x="313" y="2112" type="line"/>
      <point x="103" y="1817" type="line"/>
      <point x="103" y="1736" type="line"/>
      <point x="313" y="1440" type="line"/>
      <point x="376" y="1440" type="line"/>
      <point x="376" y="2112" type="line"/>
    </contour>
    <contour>
      <point x="444" y="1269" type="line"/>
      <point x="444" y="259" type="line"/>
      <point x="536" y="259" type="line"/>
      <point x="588" y="182"/>
      <point x="680" y="-34"/>
      <point x="1008" y="-35" type="curve" smooth="yes"/>
      <point x="1404" y="-34"/>
      <point x="1669" y="285"/>
      <point x="1669" y="764" type="curve" smooth="yes"/>
      <point x="1669" y="1233"/>
      <point x="1408" y="1556"/>
      <point x="1003" y="1556" type="curve" smooth="yes"/>
      <point x="664" y="1556"/>
      <point x="587" y="1338"/>
      <point x="536" y="1269" type="curve"/>
    </contour>
    <contour>
      <point x="1489" y="768" type="curve" smooth="yes"/>
      <point x="1489" y="422"/>
      <point x="1324" y="135"/>
      <point x="1004" y="136" type="curve" smooth="yes"/>
      <point x="704" y="135"/>
      <point x="524" y="387"/>
      <point x="524" y="768" type="curve" smooth="yes"/>
      <point x="524" y="1143"/>
      <point x="699" y="1386"/>
      <point x="1004" y="1387" type="curve" smooth="yes"/>
      <point x="1329" y="1386"/>
      <point x="1489" y="1109"/>
    </contour>
    <contour>
      <point x="341" y="2048" type="line"/>
      <point x="341" y="0" type="line"/>
      <point x="505" y="0" type="line"/>
      <point x="505" y="284" type="line"/>
      <point x="460" y="796" type="line"/>
      <point x="515" y="1144" type="line"/>
      <point x="515" y="2048" type="line"/>
    </contour>
  </outline>
</glyph>
<glyph name="Oopen" format="2">
  <advance width="2025"/>
  <unicode hex="0186"/>
  <outline>
    <contour>
      <point x="961" y="-28" type="curve" smooth="yes"/>
      <point x="1477" y="-28"/>
      <point x="1848" y="382"/>
      <point x="1848" y="1024" type="curve"/>
      <point x="1848" y="1665"/>
      <point x="1479" y="2076"/>
      <point x="961" y="2076" type="curve" smooth="yes"/>
      <point x="570" y="2076"/>
      <point x="241" y="1836"/>
      <point x="159" y="1433" type="curve"/>
      <point x="344" y="1433" type="line"/>
      <point x="412" y="1737"/>
      <point x="681" y="1894"/>
      <point x="964" y="1895" type="curve" smooth="yes"/>
      <point x="1354" y="1894"/>
      <point x="1674" y="1591"/>
      <point x="1675" y="1024" type="curve"/>
      <point x="1674" y="461"/>
      <point x="1355" y="154"/>
      <point x="964" y="153" type="curve" smooth="yes"/>
      <point x="678" y="154"/>
      <point x="410" y="314"/>
      <point x="344" y="620" type="curve"/>
      <point x="159" y="621" type="line"/>
      <point x="244" y="186"/>
      <point x="586" y="-28"/>
    </contour>
  </outline>
</glyph>
<glyph name="Chook" format="2">
  <advance width="2110"/>
  <unicode hex="0187"/>
  <outline>
    <contour>
      <point x="1867" y="1433" type="line"/>
      <point x="1867" y="1717" type="line" smooth="yes"/>
      <point x="1866" y="1866"/>
      <point x="1945" y="1910"/>
      <point x="2073" y="1909" type="curve"/>
      <point x="2099" y="1910"/>
      <point x="2118" y="1906"/>
      <point x="2133" y="1901" type="curve"/>
      <point x="2133" y="2053" type="line"/>
      <point x="2110" y="2065"/>
      <point x="2061" y="2065"/>
      <point x="2020" y="2065" type="curve" smooth="yes"/>
      <point x="1830" y="2065"/>
      <point x="1690" y="1932"/>
      <point x="1691" y="1700" type="curve" smooth="yes"/>
      <point x="1691" y="1433" type="line"/>
    </contour>
    <component base="C"/>
  </outline>
</glyph>
<glyph name="chook" format="2">
  <advance width="1690"/>
  <unicode hex="0188"/>
  <outline>
    <contour>
      <point x="1409" y="1112" type="line"/>
      <point x="1409" y="1271" type="line" smooth="yes"/>
      <point x="1409" y="1439"/>
      <point x="1510" y="1528"/>
      <point x="1647" y="1528" type="curve" smooth="yes"/>
      <point x="1672" y="1528"/>
      <point x="1696" y="1525"/>
      <point x="1716" y="1523" type="curve"/>
      <point x="1716" y="1677" type="line"/>
      <point x="1685" y="1685"/>
      <point x="1639" y="1685"/>
      <point x="1607" y="1685" type="curve" smooth="yes"/>
      <point x="1388" y="1685"/>
      <point x="1231" y="1513"/>
      <point x="1231" y="1271" type="curve" smooth="yes"/>
      <point x="1231" y="1112" type="line"/>
    </contour>
    <component base="c"/>
  </outline>
</glyph>
<glyph name="Dhook" format="2">
  <advance width="2412"/>
  <unicode hex="018A"/>
  <outline>
    <contour>
      <point x="148" y="1565" type="line"/>
      <point x="329" y="1565" type="line"/>
      <point x="329" y="1628" type="line" smooth="yes"/>
      <point x="329" y="1757"/>
      <point x="344" y="1878"/>
      <point x="501" y="1879" type="curve" smooth="yes"/>
      <point x="664" y="1879" type="line"/>
      <point x="664" y="2048" type="line"/>
      <point x="497" y="2048" type="line" smooth="yes"/>
      <point x="266" y="2048"/>
      <point x="148" y="1871"/>
      <point x="148" y="1680" type="curve" smooth="yes"/>
    </contour>
    <component base="D" xOffset="396"/>
  </outline>
</glyph>
<glyph name="Dtopbar" format="2">
  <advance width="1738"/>
  <unicode hex="018B"/>
  <outline>
    <contour>
      <point x="1576" y="0" type="line"/>
      <point x="1576" y="1992" type="line"/>
      <point x="385" y="1992" type="line"/>
      <point x="385" y="1801" type="line"/>
      <point x="1341" y="1801" type="line"/>
      <point x="1341" y="1164" type="line"/>
      <point x="812" y="1164" type="line" smooth="yes"/>
      <point x="386" y="1163"/>
      <point x="162" y="934"/>
      <point x="163" y="588" type="curve" smooth="yes"/>
      <point x="162" y="241"/>
      <point x="386" y="0"/>
      <point x="812" y="0" type="curve" smooth="yes"/>
    </contour>
    <contour>
      <point x="1341" y="188" type="line"/>
      <point x="812" y="188" type="line" smooth="yes"/>
      <point x="511" y="188"/>
      <point x="401" y="381"/>
      <point x="401" y="592" type="curve" smooth="yes"/>
      <point x="401" y="798"/>
      <point x="511" y="970"/>
      <point x="812" y="969" type="curve" smooth="yes"/>
      <point x="1341" y="969" type="line"/>
    </contour>
  </outline>
</glyph>
<glyph name="deltaturn" format="2">
  <advance width="1412"/>
  <unicode hex="018D"/>
  <outline>
    <contour>
      <point x="1157" y="-516" type="line"/>
      <point x="1157" y="-369" type="line"/>
      <point x="1013" y="-200"/>
      <point x="839" y="-66"/>
      <point x="668" y="97" type="curve"/>
      <point x="688" y="97"/>
      <point x="682" y="97"/>
      <point x="716" y="101" type="curve" smooth="yes"/>
      <point x="1132" y="149"/>
      <point x="1354" y="428"/>
      <point x="1355" y="740" type="curve" smooth="yes"/>
      <point x="1355" y="768" type="line" smooth="yes"/>
      <point x="1354" y="1192"/>
      <point x="1111" y="1516"/>
      <point x="705" y="1516" type="curve" smooth="yes"/>
      <point x="301" y="1516"/>
      <point x="62" y="1199"/>
      <point x="61" y="784" type="curve" smooth="yes"/>
      <point x="61" y="756" type="line" smooth="yes"/>
      <point x="62" y="439"/>
      <point x="274" y="203"/>
      <point x="576" y="-64" type="curve" smooth="yes"/>
      <point x="655" y="-131"/>
      <point x="820" y="-297"/>
      <point x="849" y="-344" type="curve"/>
      <point x="231" y="-344" type="line"/>
      <point x="231" y="-516" type="line"/>
    </contour>
    <contour>
      <point x="1127" y="756" type="line"/>
      <point x="1126" y="494"/>
      <point x="984" y="254"/>
      <point x="676" y="255" type="curve" smooth="yes"/>
      <point x="622" y="254"/>
      <point x="582" y="259"/>
      <point x="541" y="272" type="curve"/>
      <point x="410" y="362"/>
      <point x="285" y="537"/>
      <point x="285" y="756" type="curve" smooth="yes"/>
      <point x="285" y="784" type="line" smooth="yes"/>
      <point x="285" y="1082"/>
      <point x="420" y="1334"/>
      <point x="705" y="1335" type="curve" smooth="yes"/>
      <point x="993" y="1334"/>
      <point x="1126" y="1086"/>
      <point x="1127" y="784" type="curve" smooth="yes"/>
    </contour>
  </outline>
</glyph>
<glyph name="Schwa" format="2">
  <advance width="1992"/>
  <unicode hex="018F"/>
  <outline>
    <contour>
      <point x="995" y="-28" type="curve" smooth="yes"/>
      <point x="1441" y="-28"/>
      <point x="1809" y="374"/>
      <point x="1809" y="957" type="curve" smooth="yes"/>
      <point x="1809" y="1040" type="line" smooth="yes"/>
      <point x="1809" y="1622"/>
      <point x="1490" y="2032"/>
      <point x="920" y="2032" type="curve" smooth="yes"/>
      <point x="600" y="2032"/>
      <point x="449" y="1930"/>
      <point x="393" y="1892" type="curve"/>
      <point x="461" y="1733" type="line"/>
      <point x="557" y="1781"/>
      <point x="697" y="1846"/>
      <point x="928" y="1845" type="curve" smooth="yes"/>
      <point x="1377" y="1846"/>
      <point x="1570" y="1490"/>
      <point x="1571" y="1040" type="curve" smooth="yes"/>
      <point x="1571" y="957" type="line" smooth="yes"/>
      <point x="1570" y="512"/>
      <point x="1360" y="154"/>
      <point x="995" y="155" type="curve" smooth="yes"/>
      <point x="561" y="154"/>
      <point x="421" y="448"/>
      <point x="421" y="821" type="curve" smooth="yes"/>
      <point x="421" y="865" type="line"/>
      <point x="1681" y="865" type="line"/>
      <point x="1681" y="1036" type="line"/>
      <point x="188" y="1036" type="line"/>
      <point x="188" y="884" type="line" smooth="yes"/>
      <point x="188" y="325"/>
      <point x="458" y="-28"/>
    </contour>
  </outline>
</glyph>
<glyph name="Epsilon1" format="2">
  <advance width="1738"/>
  <unicode hex="0190"/>
  <outline>
    <contour>
      <point x="1085" y="960" type="line"/>
      <point x="1085" y="1119" type="line"/>
      <point x="871" y="1119" type="line" smooth="yes"/>
      <point x="548" y="1118"/>
      <point x="431" y="1270"/>
      <point x="431" y="1469" type="curve" smooth="yes"/>
      <point x="431" y="1675"/>
      <point x="568" y="1840"/>
      <point x="891" y="1840" type="curve" smooth="yes"/>
      <point x="1136" y="1840"/>
      <point x="1312" y="1688"/>
      <point x="1312" y="1485" type="curve"/>
      <point x="1545" y="1485" type="line"/>
      <point x="1546" y="1822"/>
      <point x="1248" y="2032"/>
      <point x="891" y="2032" type="curve" smooth="yes"/>
      <point x="473" y="2032"/>
      <point x="198" y="1832"/>
      <point x="197" y="1460" type="curve" smooth="yes"/>
      <point x="198" y="1141"/>
      <point x="478" y="960"/>
      <point x="881" y="960" type="curve"/>
    </contour>
    <contour>
      <point x="881" y="1080" type="line"/>
      <point x="432" y="1080"/>
      <point x="166" y="896"/>
      <point x="165" y="560" type="curve" smooth="yes"/>
      <point x="166" y="135"/>
      <point x="487" y="-28"/>
      <point x="891" y="-28" type="curve" smooth="yes"/>
      <point x="1225" y="-28"/>
      <point x="1573" y="148"/>
      <point x="1573" y="556" type="curve"/>
      <point x="1340" y="556" type="line"/>
      <point x="1340" y="341"/>
      <point x="1168" y="160"/>
      <point x="891" y="160" type="curve" smooth="yes"/>
      <point x="588" y="160"/>
      <point x="404" y="290"/>
      <point x="404" y="552" type="curve" smooth="yes"/>
      <point x="404" y="805"/>
      <point x="559" y="926"/>
      <point x="871" y="925" type="curve" smooth="yes"/>
      <point x="1085" y="925" type="line"/>
      <point x="1085" y="1080" type="line"/>
    </contour>
  </outline>
</glyph>
<glyph name="Fhook" format="2">
  <advance width="1629"/>
  <unicode hex="0191"/>
  <outline>
    <contour>
      <point x="251" y="0" type="line"/>
      <point x="251" y="-184" type="line" smooth="yes"/>
      <point x="251" y="-353"/>
      <point x="165" y="-415"/>
      <point x="29" y="-415" type="curve" smooth="yes"/>
      <point x="1" y="-415"/>
      <point x="-20" y="-411"/>
      <point x="-39" y="-406" type="curve"/>
      <point x="-49" y="-560" type="line"/>
      <point x="-1" y="-573"/>
      <point x="6" y="-575"/>
      <point x="29" y="-575" type="curve" smooth="yes"/>
      <point x="298" y="-575"/>
      <point x="437" y="-437"/>
      <point x="437" y="-187" type="curve" smooth="yes"/>
      <point x="437" y="0" type="line"/>
    </contour>
    <component base="F" xOffset="-21"/>
  </outline>
</glyph>
<glyph name="florin" format="2">
  <advance width="1010"/>
  <unicode hex="0192"/>
  <outline>
    <contour>
      <point x="840" y="1488" type="line"/>
      <point x="565" y="1488" type="line"/>
      <point x="565" y="1649" type="line" smooth="yes"/>
      <point x="565" y="1842"/>
      <point x="652" y="1938"/>
      <point x="823" y="1937" type="curve" smooth="yes"/>
      <point x="864" y="1938"/>
      <point x="900" y="1929"/>
      <point x="925" y="1921" type="curve"/>
      <point x="992" y="2101" type="line"/>
      <point x="945" y="2123"/>
      <point x="829" y="2140"/>
      <point x="757" y="2140" type="curve" smooth="yes"/>
      <point x="541" y="2140"/>
      <point x="372" y="1966"/>
      <point x="373" y="1649" type="curve" smooth="yes"/>
      <point x="373" y="1488" type="line"/>
      <point x="120" y="1488" type="line"/>
      <point x="120" y="1317" type="line"/>
      <point x="373" y="1317" type="line"/>
      <point x="373" y="-145" type="line" smooth="yes"/>
      <point x="372" y="-317"/>
      <point x="278" y="-418"/>
      <point x="176" y="-419" type="curve" smooth="yes"/>
      <point x="156" y="-418"/>
      <point x="65" y="-415"/>
      <point x="39" y="-403" type="curve"/>
      <point x="19" y="-580" type="line"/>
      <point x="63" y="-596"/>
      <point x="106" y="-600"/>
      <point x="157" y="-600" type="curve" smooth="yes"/>
      <point x="421" y="-600"/>
      <point x="565" y="-439"/>
      <point x="565" y="-145" type="curve" smooth="yes"/>
      <point x="565" y="1317" type="line"/>
      <point x="840" y="1317" type="line"/>
    </contour>
  </outline>
</glyph>
<glyph name="Ghook" format="2">
  <advance width="2118"/>
  <unicode hex="0193"/>
  <outline>
    <contour>
      <point x="1876" y="1416" type="line"/>
      <point x="1876" y="1600" type="line" smooth="yes"/>
      <point x="1875" y="1757"/>
      <point x="1962" y="1810"/>
      <point x="2085" y="1809" type="curve" smooth="yes"/>
      <point x="2110" y="1810"/>
      <point x="2134" y="1806"/>
      <point x="2148" y="1803" type="curve"/>
      <point x="2148" y="1956" type="line"/>
      <point x="2122" y="1966"/>
      <point x="2074" y="1964"/>
      <point x="2033" y="1964" type="curve" smooth="yes"/>
      <point x="1803" y="1964"/>
      <point x="1722" y="1832"/>
      <point x="1701" y="1600" type="curve" smooth="yes"/>
      <point x="1687" y="1416" type="line"/>
    </contour>
    <component base="G"/>
  </outline>
</glyph>
<glyph name="Gamma1" format="2">
  <advance width="1669"/>
  <unicode hex="0194"/>
  <outline>
    <contour>
      <point x="-1" y="2060" type="line"/>
      <point x="797" y="153" type="line" smooth="yes"/>
      <point x="906" y="-104"/>
      <point x="967" y="-217"/>
      <point x="968" y="-297" type="curve" smooth="yes"/>
      <point x="967" y="-350"/>
      <point x="909" y="-402"/>
      <point x="835" y="-401" type="curve" smooth="yes"/>
      <point x="759" y="-402"/>
      <point x="702" y="-353"/>
      <point x="701" y="-297" type="curve" smooth="yes"/>
      <point x="702" y="-218"/>
      <point x="771" y="-95"/>
      <point x="876" y="153" type="curve" smooth="yes"/>
      <point x="1671" y="2060" type="line"/>
      <point x="1477" y="2060" type="line"/>
      <point x="724" y="289" type="line" smooth="yes"/>
      <point x="574" y="-64"/>
      <point x="509" y="-155"/>
      <point x="509" y="-292" type="curve" smooth="yes"/>
      <point x="509" y="-478"/>
      <point x="616" y="-600"/>
      <point x="835" y="-600" type="curve" smooth="yes"/>
      <point x="1053" y="-600"/>
      <point x="1164" y="-478"/>
      <point x="1164" y="-292" type="curve" smooth="yes"/>
      <point x="1164" y="-166"/>
      <point x="1083" y="-66"/>
      <point x="935" y="289" type="curve" smooth="yes"/>
      <point x="192" y="2060" type="line"/>
    </contour>
  </outline>
</glyph>
<glyph name="hv" format="2">
  <advance width="2630"/>
  <unicode hex="0195"/>
  <note>
Note: Must be split in two, or conversion to quadratic curves will fail.
</note>
  <outline>
    <contour>
      <point x="232" y="0" type="line"/>
      <point x="404" y="0" type="line"/>
      <point x="404" y="936" type="line" smooth="yes"/>
      <point x="404" y="1227"/>
      <point x="591" y="1391"/>
      <point x="844" y="1392" type="curve" smooth="yes"/>
      <point x="1082" y="1391"/>
      <point x="1227" y="1242"/>
      <point x="1228" y="980" type="curve" smooth="yes"/>
      <point x="1228" y="768" type="line"/>
      <point x="1400" y="768" type="line"/>
      <point x="1400" y="976" type="line" smooth="yes"/>
      <point x="1400" y="1382"/>
      <point x="1190" y="1556"/>
      <point x="879" y="1556" type="curve" smooth="yes"/>
      <point x="633" y="1556"/>
      <point x="501" y="1458"/>
      <point x="429" y="1307" type="curve"/>
      <point x="408" y="1307" type="line"/>
      <point x="408" y="2048" type="line"/>
      <point x="232" y="2048" type="line"/>
    </contour>
    <contour>
      <point x="1704" y="-28" type="curve" smooth="yes"/>
      <point x="2063" y="-28"/>
      <point x="2398" y="347"/>
      <point x="2399" y="1316" type="curve"/>
      <point x="2399" y="1536" type="line"/>
      <point x="2225" y="1536" type="line"/>
      <point x="2225" y="1316" type="line" smooth="yes"/>
      <point x="2226" y="417"/>
      <point x="1972" y="132"/>
      <point x="1720" y="132" type="curve" smooth="yes"/>
      <point x="1596" y="132"/>
      <point x="1400" y="201"/>
      <point x="1400" y="612" type="curve"/>
      <point x="1400" y="768" type="line"/>
      <point x="1228" y="768" type="line"/>
      <point x="1228" y="612" type="line" smooth="yes"/>
      <point x="1227" y="153"/>
      <point x="1454" y="-28"/>
    </contour>
  </outline>
</glyph>
<glyph name="Iota1" format="2">
  <advance width="979"/>
  <unicode hex="0196"/>
  <outline>
    <contour>
      <point x="401" y="2112" type="line"/>
      <point x="175" y="2112" type="line"/>
      <point x="175" y="464" type="line" smooth="yes"/>
      <point x="174" y="150"/>
      <point x="344" y="-28"/>
      <point x="619" y="-28" type="curve" smooth="yes"/>
      <point x="679" y="-28"/>
      <point x="745" y="-16"/>
      <point x="805" y="0" type="curve"/>
      <point x="773" y="169" type="line"/>
      <point x="743" y="162"/>
      <point x="701" y="153"/>
      <point x="659" y="153" type="curve" smooth="yes"/>
      <point x="490" y="153"/>
      <point x="402" y="274"/>
      <point x="401" y="464" type="curve" smooth="yes"/>
    </contour>
  </outline>
</glyph>
<glyph name="Khook" format="2">
  <advance width="1838"/>
  <unicode hex="0198"/>
  <outline>
    <contour>
      <point x="272" y="0" type="line"/>
      <point x="457" y="0" type="line"/>
      <point x="457" y="709" type="line"/>
      <point x="716" y="1004" type="line"/>
      <point x="1464" y="0" type="line"/>
      <point x="1692" y="0" type="line"/>
      <point x="827" y="1132" type="line"/>
      <point x="1444" y="1801" type="line" smooth="yes"/>
      <point x="1549" y="1916"/>
      <point x="1646" y="1913"/>
      <point x="1725" y="1857" type="curve"/>
      <point x="1813" y="2001" type="line"/>
      <point x="1680" y="2105"/>
      <point x="1482" y="2106"/>
      <point x="1340" y="1945" type="curve" smooth="yes"/>
      <point x="481" y="988" type="line"/>
      <point x="457" y="988" type="line"/>
      <point x="457" y="2048" type="line"/>
      <point x="272" y="2048" type="line"/>
    </contour>
  </outline>
</glyph>
<glyph name="khook" format="2">
  <advance width="1458"/>
  <unicode hex="0199"/>
  <outline>
    <contour>
      <point x="1185" y="0" type="line"/>
      <point x="1408" y="0" type="line"/>
      <point x="723" y="880" type="line"/>
      <point x="1335" y="1536" type="line"/>
      <point x="1100" y="1536" type="line"/>
      <point x="424" y="793" type="line"/>
      <point x="404" y="793" type="line"/>
      <point x="404" y="1636" type="line"/>
      <point x="232" y="1636" type="line"/>
      <point x="232" y="0" type="line"/>
      <point x="404" y="0" type="line"/>
      <point x="404" y="540" type="line"/>
      <point x="600" y="752" type="line"/>
    </contour>
    <contour>
      <point x="404" y="1505" type="line"/>
      <point x="404" y="1688" type="line" smooth="yes"/>
      <point x="404" y="1861"/>
      <point x="497" y="1914"/>
      <point x="632" y="1915" type="curve" smooth="yes"/>
      <point x="657" y="1914"/>
      <point x="682" y="1910"/>
      <point x="697" y="1907" type="curve"/>
      <point x="697" y="2065" type="line"/>
      <point x="667" y="2078"/>
      <point x="623" y="2076"/>
      <point x="589" y="2076" type="curve" smooth="yes"/>
      <point x="377" y="2076"/>
      <point x="231" y="1907"/>
      <point x="232" y="1688" type="curve" smooth="yes"/>
      <point x="232" y="1505" type="line"/>
    </contour>
  </outline>
</glyph>
<glyph name="lambdabar" format="2">
  <advance width="1741"/>
  <unicode hex="019B"/>
  <outline>
    <contour>
      <point x="893" y="1973" type="line"/>
      <point x="261" y="1712" type="line"/>
      <point x="261" y="1493" type="line"/>
      <point x="893" y="1749" type="line"/>
    </contour>
    <contour>
      <point x="824" y="1140" type="line"/>
      <point x="892" y="1496" type="line"/>
      <point x="732" y="1512" type="line"/>
      <point x="153" y="0" type="line"/>
      <point x="408" y="0" type="line"/>
    </contour>
    <contour>
      <point x="441" y="2073" type="curve"/>
      <point x="408" y="2074"/>
      <point x="349" y="2066"/>
      <point x="337" y="2061" type="curve"/>
      <point x="335" y="1889" type="line"/>
      <point x="344" y="1893"/>
      <point x="378" y="1893"/>
      <point x="392" y="1893" type="curve" smooth="yes"/>
      <point x="451" y="1893"/>
      <point x="496" y="1868"/>
      <point x="537" y="1763" type="curve" smooth="yes"/>
      <point x="699" y="1353" type="line"/>
      <point x="1136" y="241" type="line" smooth="yes"/>
      <point x="1239" y="-24"/>
      <point x="1315" y="-23"/>
      <point x="1456" y="-24" type="curve" smooth="yes"/>
      <point x="1493" y="-23"/>
      <point x="1534" y="-13"/>
      <point x="1548" y="-4" type="curve"/>
      <point x="1537" y="179" type="line"/>
      <point x="1525" y="178"/>
      <point x="1504" y="178"/>
      <point x="1489" y="179" type="curve" smooth="yes"/>
      <point x="1435" y="178"/>
      <point x="1406" y="185"/>
      <point x="1369" y="277" type="curve" smooth="yes"/>
      <point x="771" y="1849" type="line" smooth="yes"/>
      <point x="716" y="1990"/>
      <point x="644" y="2074"/>
    </contour>
  </outline>
</glyph>
<glyph name="mcapturn" format="2">
  <advance width="2497"/>
  <unicode hex="019C"/>
  <outline>
    <contour>
      <point x="2044" y="272" type="line"/>
      <point x="2045" y="0" type="line"/>
      <point x="2265" y="0" type="line"/>
      <point x="2265" y="2004" type="line"/>
      <point x="2044" y="2004" type="line"/>
    </contour>
    <contour>
      <point x="2053" y="692" type="line"/>
      <point x="2054" y="396"/>
      <point x="1949" y="163"/>
      <point x="1636" y="164" type="curve" smooth="yes"/>
      <point x="1507" y="163"/>
      <point x="1361" y="244"/>
      <point x="1361" y="616" type="curve"/>
      <point x="1361" y="2004" type="line"/>
      <point x="1137" y="2004" type="line"/>
      <point x="1137" y="616" type="line"/>
      <point x="1137" y="126"/>
      <point x="1331" y="-28"/>
      <point x="1617" y="-28" type="curve" smooth="yes"/>
      <point x="2033" y="-28"/>
      <point x="2180" y="280"/>
      <point x="2180" y="696" type="curve"/>
    </contour>
    <contour>
      <point x="1152" y="692" type="line"/>
      <point x="1152" y="397"/>
      <point x="1042" y="163"/>
      <point x="729" y="164" type="curve" smooth="yes"/>
      <point x="601" y="163"/>
      <point x="459" y="244"/>
      <point x="460" y="616" type="curve" smooth="yes"/>
      <point x="460" y="2004" type="line"/>
      <point x="231" y="2004" type="line"/>
      <point x="231" y="616" type="line" smooth="yes"/>
      <point x="230" y="130"/>
      <point x="429" y="-28"/>
      <point x="712" y="-28" type="curve" smooth="yes"/>
      <point x="1123" y="-28"/>
      <point x="1277" y="282"/>
      <point x="1277" y="696" type="curve"/>
    </contour>
  </outline>
</glyph>
<glyph name="Nhook" format="2">
  <advance width="2152"/>
  <unicode hex="019D"/>
  <outline>
    <contour>
      <point x="287" y="0" type="line"/>
      <point x="287" y="-183" type="line" smooth="yes"/>
      <point x="286" y="-356"/>
      <point x="197" y="-410"/>
      <point x="64" y="-409" type="curve"/>
      <point x="35" y="-410"/>
      <point x="9" y="-404"/>
      <point x="-8" y="-400" type="curve"/>
      <point x="-8" y="-564" type="line"/>
      <point x="23" y="-576"/>
      <point x="60" y="-576"/>
      <point x="107" y="-576" type="curve"/>
      <point x="317" y="-576"/>
      <point x="473" y="-407"/>
      <point x="473" y="-188" type="curve" smooth="yes"/>
      <point x="473" y="0" type="line"/>
    </contour>
    <component base="N" xOffset="16"/>
  </outline>
</glyph>
<glyph name="Ohorn" format="2">
  <advance width="2143"/>
  <unicode hex="01A0"/>
  <outline>
    <contour>
      <point x="1879" y="2212" type="line"/>
      <point x="1878" y="1986"/>
      <point x="1776" y="1853"/>
      <point x="1564" y="1853" type="curve"/>
      <point x="1564" y="1665" type="line"/>
      <point x="1916" y="1665"/>
      <point x="2102" y="1862"/>
      <point x="2101" y="2212" type="curve"/>
    </contour>
    <component base="O"/>
  </outline>
</glyph>
<glyph name="ohorn" format="2">
  <advance width="1652"/>
  <unicode hex="01A1"/>
  <outline>
    <contour>
      <point x="1444" y="1661" type="line"/>
      <point x="1443" y="1475"/>
      <point x="1421" y="1346"/>
      <point x="1225" y="1345" type="curve"/>
      <point x="1225" y="1179" type="line"/>
      <point x="1548" y="1178"/>
      <point x="1652" y="1368"/>
      <point x="1652" y="1661" type="curve"/>
    </contour>
    <component base="o"/>
  </outline>
</glyph>
<glyph name="OI" format="2">
  <advance width="2177"/>
  <unicode hex="01A2"/>
  <outline>
    <contour>
      <point x="1628" y="944" type="line"/>
      <point x="1405" y="944" type="line"/>
      <point x="1405" y="320" type="line"/>
      <point x="1353" y="258"/>
      <point x="1260" y="160"/>
      <point x="960" y="160" type="curve" smooth="yes"/>
      <point x="571" y="160"/>
      <point x="361" y="466"/>
      <point x="361" y="929" type="curve" smooth="yes"/>
      <point x="361" y="1072" type="line"/>
      <point x="129" y="1068" type="line"/>
      <point x="129" y="929" type="line" smooth="yes"/>
      <point x="130" y="303"/>
      <point x="483" y="-28"/>
      <point x="952" y="-28" type="curve" smooth="yes"/>
      <point x="1409" y="-28"/>
      <point x="1564" y="166"/>
      <point x="1628" y="277" type="curve"/>
    </contour>
    <contour>
      <point x="1628" y="1727" type="line"/>
      <point x="1564" y="1838"/>
      <point x="1408" y="2032"/>
      <point x="952" y="2032" type="curve" smooth="yes"/>
      <point x="479" y="2032"/>
      <point x="130" y="1676"/>
      <point x="129" y="1076" type="curve" smooth="yes"/>
      <point x="129" y="956" type="line"/>
      <point x="361" y="956" type="line"/>
      <point x="361" y="1076" type="line" smooth="yes"/>
      <point x="361" y="1562"/>
      <point x="607" y="1839"/>
      <point x="944" y="1840" type="curve" smooth="yes"/>
      <point x="1266" y="1839"/>
      <point x="1356" y="1742"/>
      <point x="1405" y="1680" type="curve"/>
      <point x="1405" y="1025" type="line"/>
      <point x="1628" y="1024" type="line"/>
    </contour>
    <contour>
      <point x="2048" y="2004" type="line"/>
      <point x="1869" y="2004" type="line"/>
      <point x="1539" y="1879" type="line"/>
      <point x="1539" y="1720" type="line"/>
      <point x="1819" y="1808" type="line"/>
      <point x="1819" y="-572" type="line"/>
      <point x="2048" y="-572" type="line"/>
    </contour>
  </outline>
</glyph>
<glyph name="oi" format="2">
  <advance width="1670"/>
  <unicode hex="01A3"/>
  <outline>
    <contour>
      <point x="748" y="153" type="curve" smooth="yes"/>
      <point x="492" y="153"/>
      <point x="319" y="346"/>
      <point x="320" y="713" type="curve" smooth="yes"/>
      <point x="320" y="776" type="line" smooth="yes"/>
      <point x="319" y="1042"/>
      <point x="417" y="1334"/>
      <point x="749" y="1335" type="curve"/>
      <point x="827" y="1334"/>
      <point x="898" y="1312"/>
      <point x="953" y="1276" type="curve"/>
      <point x="953" y="673" type="line"/>
      <point x="1181" y="683" type="line"/>
      <point x="1181" y="1347" type="line"/>
      <point x="1071" y="1472"/>
      <point x="922" y="1516"/>
      <point x="745" y="1516" type="curve" smooth="yes"/>
      <point x="301" y="1516"/>
      <point x="91" y="1162"/>
      <point x="91" y="776" type="curve" smooth="yes"/>
      <point x="91" y="713" type="line" smooth="yes"/>
      <point x="91" y="326"/>
      <point x="296" y="-28"/>
      <point x="745" y="-28" type="curve"/>
      <point x="895" y="-28"/>
      <point x="1071" y="43"/>
      <point x="1181" y="157" type="curve"/>
      <point x="1181" y="717" type="line"/>
      <point x="953" y="717" type="line"/>
      <point x="953" y="212" type="line"/>
      <point x="892" y="178"/>
      <point x="823" y="153"/>
    </contour>
    <contour>
      <point x="1580" y="1488" type="line"/>
      <point x="1388" y="1488" type="line"/>
      <point x="1067" y="1309" type="line"/>
      <point x="1067" y="980" type="line"/>
      <point x="1357" y="1171" type="line"/>
      <point x="1357" y="-572" type="line"/>
      <point x="1580" y="-572" type="line"/>
    </contour>
  </outline>
</glyph>
<glyph name="Phook" format="2">
  <advance width="2116"/>
  <unicode hex="01A4"/>
  <note>
!post:RemoveOverlap
</note>
  <outline>
    <contour>
      <point x="324" y="1579" type="line"/>
      <point x="324" y="1640" type="line" smooth="yes"/>
      <point x="324" y="1777"/>
      <point x="361" y="1880"/>
      <point x="519" y="1880" type="curve" smooth="yes"/>
      <point x="668" y="1880" type="line"/>
      <point x="668" y="2048" type="line"/>
      <point x="516" y="2048" type="line" smooth="yes"/>
      <point x="277" y="2048"/>
      <point x="148" y="1892"/>
      <point x="148" y="1680" type="curve" smooth="yes"/>
      <point x="148" y="1579" type="line"/>
    </contour>
    <component base="P" xOffset="340"/>
  </outline>
</glyph>
<glyph name="phook" format="2">
  <advance width="1694"/>
  <unicode hex="01A5"/>
  <outline>
    <contour>
      <point x="396" y="1536" type="line"/>
      <point x="395" y="1648"/>
      <point x="487" y="1709"/>
      <point x="639" y="1709" type="curve" smooth="yes"/>
      <point x="649" y="1710"/>
      <point x="669" y="1710"/>
      <point x="695" y="1705" type="curve"/>
      <point x="695" y="1877" type="line"/>
      <point x="678" y="1884"/>
      <point x="635" y="1886"/>
      <point x="585" y="1885" type="curve" smooth="yes"/>
      <point x="376" y="1886"/>
      <point x="231" y="1751"/>
      <point x="232" y="1536" type="curve"/>
    </contour>
    <component base="p"/>
  </outline>
</glyph>
<glyph name="YR" format="2">
  <advance width="1994"/>
  <unicode hex="01A6"/>
  <outline>
    <contour>
      <point x="156" y="1864" type="line"/>
      <point x="395" y="1864" type="line"/>
      <point x="395" y="2144" type="line"/>
      <point x="156" y="2144" type="line"/>
    </contour>
    <contour>
      <point x="157" y="2004" type="line"/>
      <point x="157" y="0" type="line"/>
      <point x="395" y="0" type="line"/>
      <point x="395" y="1812" type="line"/>
      <point x="789" y="1812" type="line" smooth="yes"/>
      <point x="1115" y="1812"/>
      <point x="1239" y="1652"/>
      <point x="1240" y="1413" type="curve" smooth="yes"/>
      <point x="1239" y="1199"/>
      <point x="1090" y="1024"/>
      <point x="789" y="1024" type="curve" smooth="yes"/>
      <point x="360" y="1024" type="line"/>
      <point x="360" y="836" type="line"/>
      <point x="949" y="836" type="line"/>
      <point x="1004" y="848" type="line"/>
      <point x="1302" y="922"/>
      <point x="1473" y="1144"/>
      <point x="1473" y="1401" type="curve" smooth="yes"/>
      <point x="1473" y="1792"/>
      <point x="1239" y="2004"/>
      <point x="789" y="2004" type="curve" smooth="yes"/>
    </contour>
    <contour>
      <point x="1588" y="-501" type="line"/>
      <point x="1837" y="-501" type="line"/>
      <point x="1837" y="-485" type="line"/>
      <point x="1077" y="919" type="line"/>
      <point x="832" y="919" type="line"/>
    </contour>
  </outline>
</glyph>
<glyph name="eshlooprev" format="2">
  <advance width="1414"/>
  <unicode hex="01AA"/>
  <outline>
    <contour>
      <point x="784" y="1616" type="line"/>
      <point x="784" y="-97" type="line" smooth="yes"/>
      <point x="784" y="-391"/>
      <point x="888" y="-549"/>
      <point x="1124" y="-549" type="curve" smooth="yes"/>
      <point x="1164" y="-549"/>
      <point x="1236" y="-540"/>
      <point x="1268" y="-524" type="curve"/>
      <point x="1268" y="-345" type="line"/>
      <point x="1247" y="-354"/>
      <point x="1212" y="-358"/>
      <point x="1192" y="-357" type="curve" smooth="yes"/>
      <point x="1073" y="-358"/>
      <point x="1012" y="-296"/>
      <point x="1012" y="-97" type="curve" smooth="yes"/>
      <point x="1012" y="1700" type="line"/>
    </contour>
    <contour>
      <point x="147" y="1700" type="curve" smooth="yes"/>
      <point x="147" y="1462"/>
      <point x="338" y="1263"/>
      <point x="580" y="1264" type="curve" smooth="yes"/>
      <point x="816" y="1263"/>
      <point x="1012" y="1461"/>
      <point x="1012" y="1700" type="curve" smooth="yes"/>
      <point x="1012" y="1943"/>
      <point x="816" y="2135"/>
      <point x="580" y="2136" type="curve" smooth="yes"/>
      <point x="339" y="2135"/>
      <point x="147" y="1943"/>
    </contour>
    <contour>
      <point x="579" y="1480" type="curve" smooth="yes"/>
      <point x="459" y="1480"/>
      <point x="365" y="1553"/>
      <point x="365" y="1704" type="curve" smooth="yes"/>
      <point x="365" y="1850"/>
      <point x="459" y="1928"/>
      <point x="579" y="1928" type="curve" smooth="yes"/>
      <point x="697" y="1928"/>
      <point x="789" y="1850"/>
      <point x="789" y="1704" type="curve" smooth="yes"/>
      <point x="789" y="1553"/>
      <point x="696" y="1480"/>
    </contour>
  </outline>
</glyph>
<glyph name="tpalatalhook" format="2">
  <advance width="1017"/>
  <unicode hex="01AB"/>
  <outline>
    <contour>
      <point x="669" y="148" type="line"/>
      <point x="669" y="-188" type="line" smooth="yes"/>
      <point x="670" y="-350"/>
      <point x="586" y="-402"/>
      <point x="452" y="-403" type="curve" smooth="yes"/>
      <point x="428" y="-402"/>
      <point x="402" y="-398"/>
      <point x="385" y="-395" type="curve"/>
      <point x="385" y="-568" type="line"/>
      <point x="414" y="-578"/>
      <point x="465" y="-577"/>
      <point x="508" y="-577" type="curve" smooth="yes"/>
      <point x="711" y="-577"/>
      <point x="885" y="-437"/>
      <point x="885" y="-188" type="curve" smooth="yes"/>
      <point x="885" y="191" type="line"/>
    </contour>
    <component base="t"/>
  </outline>
</glyph>
<glyph name="Thook" format="2">
  <advance width="1900"/>
  <unicode hex="01AC"/>
  <note>
!post:RemoveOverlap
</note>
  <outline>
    <contour>
      <point x="1009" y="2048" type="line"/>
      <point x="505" y="2048" type="line" smooth="yes"/>
      <point x="290" y="2048"/>
      <point x="148" y="1897"/>
      <point x="148" y="1685" type="curve" smooth="yes"/>
      <point x="148" y="1592" type="line"/>
      <point x="328" y="1592" type="line"/>
      <point x="328" y="1653" type="line" smooth="yes"/>
      <point x="327" y="1766"/>
      <point x="373" y="1874"/>
      <point x="505" y="1873" type="curve" smooth="yes"/>
      <point x="1009" y="1873" type="line"/>
    </contour>
    <contour>
      <point x="1752" y="2048" type="line"/>
      <point x="683" y="2048" type="line"/>
      <point x="683" y="1873" type="line"/>
      <point x="915" y="1873" type="line"/>
      <point x="915" y="0" type="line"/>
      <point x="1103" y="0" type="line"/>
      <point x="1103" y="1873" type="line"/>
      <point x="1752" y="1873" type="line"/>
    </contour>
  </outline>
</glyph>
<glyph name="thook" format="2">
  <advance width="907"/>
  <unicode hex="01AD"/>
  <outline>
    <contour>
      <point x="580" y="1565" type="line"/>
      <point x="580" y="1752" type="line" smooth="yes"/>
      <point x="580" y="1914"/>
      <point x="644" y="1975"/>
      <point x="777" y="1976" type="curve" smooth="yes"/>
      <point x="791" y="1975"/>
      <point x="821" y="1972"/>
      <point x="845" y="1964" type="curve"/>
      <point x="845" y="2116" type="line"/>
      <point x="811" y="2127"/>
      <point x="758" y="2135"/>
      <point x="736" y="2136" type="curve" smooth="yes"/>
      <point x="530" y="2135"/>
      <point x="351" y="1975"/>
      <point x="352" y="1752" type="curve" smooth="yes"/>
      <point x="352" y="1565" type="line"/>
    </contour>
    <contour>
      <point x="856" y="1488" type="line"/>
      <point x="68" y="1488" type="line"/>
      <point x="68" y="1317" type="line"/>
      <point x="856" y="1317" type="line"/>
    </contour>
    <contour>
      <point x="352" y="1569" type="line"/>
      <point x="352" y="408" type="line"/>
      <point x="351" y="94"/>
      <point x="507" y="-28"/>
      <point x="668" y="-28" type="curve" smooth="yes"/>
      <point x="763" y="-28"/>
      <point x="826" y="-10"/>
      <point x="856" y="-4" type="curve"/>
      <point x="856" y="185" type="line"/>
      <point x="834" y="182"/>
      <point x="777" y="167"/>
      <point x="736" y="168" type="curve" smooth="yes"/>
      <point x="663" y="167"/>
      <point x="580" y="214"/>
      <point x="580" y="392" type="curve"/>
      <point x="580" y="1569" type="line"/>
    </contour>
  </outline>
</glyph>
<glyph name="Trthook" format="2">
  <advance width="1783"/>
  <unicode hex="01AE"/>
  <outline>
    <contour>
      <point x="985" y="0" type="line"/>
      <point x="797" y="0" type="line"/>
      <point x="797" y="-193" type="line" smooth="yes"/>
      <point x="798" y="-413"/>
      <point x="980" y="-576"/>
      <point x="1191" y="-576" type="curve"/>
      <point x="1305" y="-576" type="line"/>
      <point x="1305" y="-395" type="line"/>
      <point x="1233" y="-395" type="line"/>
      <point x="1099" y="-394"/>
      <point x="986" y="-361"/>
      <point x="985" y="-188" type="curve" smooth="yes"/>
    </contour>
    <component base="T"/>
  </outline>
</glyph>
<glyph name="Uhorn" format="2">
  <advance width="2431"/>
  <unicode hex="01AF"/>
  <outline>
    <contour>
      <point x="2065" y="2189" type="line"/>
      <point x="2066" y="1925"/>
      <point x="1974" y="1791"/>
      <point x="1703" y="1792" type="curve"/>
      <point x="1703" y="1605" type="line"/>
      <point x="2111" y="1605"/>
      <point x="2283" y="1802"/>
      <point x="2284" y="2189" type="curve"/>
    </contour>
    <component base="U"/>
  </outline>
</glyph>
<glyph name="uhorn" format="2">
  <advance width="1670"/>
  <unicode hex="01B0"/>
  <outline>
    <contour>
      <point x="1536" y="1599" type="line"/>
      <point x="1536" y="1397"/>
      <point x="1540" y="1316"/>
      <point x="1303" y="1316" type="curve"/>
      <point x="1303" y="1161" type="line"/>
      <point x="1642" y="1161"/>
      <point x="1731" y="1309"/>
      <point x="1731" y="1599" type="curve"/>
    </contour>
    <component base="u" xOffset="-4"/>
  </outline>
</glyph>
<glyph name="Upsilon2" format="2">
  <advance width="2128"/>
  <unicode hex="01B1"/>
  <outline>
    <contour>
      <point x="181" y="979" type="curve" smooth="yes"/>
      <point x="182" y="388"/>
      <point x="549" y="-28"/>
      <point x="1064" y="-28" type="curve" smooth="yes"/>
      <point x="1579" y="-28"/>
      <point x="1946" y="388"/>
      <point x="1947" y="979" type="curve"/>
      <point x="1946" y="1382"/>
      <point x="1777" y="1683"/>
      <point x="1504" y="1857" type="curve"/>
      <point x="1504" y="1873" type="line"/>
      <point x="1947" y="1873" type="line"/>
      <point x="1947" y="2048" type="line"/>
      <point x="1247" y="2048" type="line"/>
      <point x="1247" y="1824" type="line"/>
      <point x="1526" y="1704"/>
      <point x="1772" y="1380"/>
      <point x="1772" y="968" type="curve" smooth="yes"/>
      <point x="1772" y="514"/>
      <point x="1478" y="153"/>
      <point x="1064" y="153" type="curve" smooth="yes"/>
      <point x="650" y="153"/>
      <point x="356" y="514"/>
      <point x="356" y="968" type="curve"/>
      <point x="356" y="1380"/>
      <point x="602" y="1704"/>
      <point x="881" y="1824" type="curve"/>
      <point x="881" y="2048" type="line"/>
      <point x="181" y="2048" type="line"/>
      <point x="181" y="1873" type="line"/>
      <point x="625" y="1873" type="line"/>
      <point x="625" y="1857" type="line"/>
      <point x="351" y="1678"/>
      <point x="182" y="1382"/>
    </contour>
  </outline>
</glyph>
<glyph name="Vcursive" format="2">
  <advance width="1741"/>
  <unicode hex="01B2"/>
  <outline>
    <contour>
      <point x="869" y="-28" type="curve" smooth="yes"/>
      <point x="1233" y="-28"/>
      <point x="1581" y="186"/>
      <point x="1581" y="635" type="curve" smooth="yes"/>
      <point x="1581" y="1581" type="line" smooth="yes"/>
      <point x="1581" y="1870"/>
      <point x="1405" y="2033"/>
      <point x="1165" y="2033" type="curve" smooth="yes"/>
      <point x="1133" y="2033"/>
      <point x="1057" y="2019"/>
      <point x="1027" y="2009" type="curve"/>
      <point x="1027" y="1831" type="line"/>
      <point x="1044" y="1838"/>
      <point x="1083" y="1838"/>
      <point x="1104" y="1837" type="curve" smooth="yes"/>
      <point x="1253" y="1838"/>
      <point x="1344" y="1769"/>
      <point x="1344" y="1581" type="curve" smooth="yes"/>
      <point x="1344" y="635" type="line" smooth="yes"/>
      <point x="1344" y="304"/>
      <point x="1147" y="160"/>
      <point x="869" y="160" type="curve" smooth="yes"/>
      <point x="593" y="160"/>
      <point x="397" y="304"/>
      <point x="397" y="635" type="curve" smooth="yes"/>
      <point x="397" y="2004" type="line"/>
      <point x="164" y="2004" type="line"/>
      <point x="164" y="635" type="line" smooth="yes"/>
      <point x="164" y="187"/>
      <point x="475" y="-28"/>
    </contour>
  </outline>
</glyph>
<glyph name="Yhook" format="2">
  <advance width="1910"/>
  <unicode hex="01B3"/>
  <note>
!post:RemoveOverlap
</note>
  <outline>
    <contour>
      <point x="1509" y="1725" type="line"/>
      <point x="1549" y="1795" type="line" smooth="yes"/>
      <point x="1614" y="1909"/>
      <point x="1712" y="1915"/>
      <point x="1795" y="1876" type="curve"/>
      <point x="1849" y="2035" type="line"/>
      <point x="1672" y="2125"/>
      <point x="1496" y="2058"/>
      <point x="1377" y="1864" type="curve" smooth="yes"/>
      <point x="1341" y="1805" type="line"/>
    </contour>
    <contour>
      <point x="868" y="1020" type="line"/>
      <point x="916" y="1020" type="line"/>
      <point x="916" y="1068" type="line"/>
      <point x="868" y="1068" type="line"/>
    </contour>
    <contour>
      <point x="299" y="2048" type="line"/>
      <point x="77" y="2048" type="line"/>
      <point x="799" y="861" type="line"/>
      <point x="799" y="0" type="line"/>
      <point x="985" y="0" type="line"/>
      <point x="985" y="861" type="line"/>
      <point x="1509" y="1725" type="line"/>
      <point x="1341" y="1805" type="line"/>
      <point x="892" y="1048" type="line"/>
    </contour>
  </outline>
</glyph>
<glyph name="yhook" format="2">
  <advance width="1717"/>
  <unicode hex="01B4"/>
  <outline>
    <contour>
      <point x="1307" y="1313" type="line"/>
      <point x="1327" y="1368" type="line" smooth="yes"/>
      <point x="1419" y="1628"/>
      <point x="1479" y="1744"/>
      <point x="1613" y="1736" type="curve" smooth="yes"/>
      <point x="1672" y="1732"/>
      <point x="1742" y="1703"/>
      <point x="1796" y="1669" type="curve"/>
      <point x="1871" y="1779" type="line"/>
      <point x="1811" y="1846"/>
      <point x="1723" y="1894"/>
      <point x="1628" y="1908" type="curve" smooth="yes"/>
      <point x="1365" y="1924"/>
      <point x="1245" y="1670"/>
      <point x="1157" y="1425" type="curve" smooth="yes"/>
      <point x="1143" y="1389" type="line"/>
    </contour>
    <contour>
      <point x="588" y="-168" type="line" smooth="yes"/>
      <point x="516" y="-370"/>
      <point x="397" y="-408"/>
      <point x="231" y="-408" type="curve"/>
      <point x="149" y="-408"/>
      <point x="108" y="-403"/>
      <point x="100" y="-400" type="curve"/>
      <point x="100" y="-583" type="line"/>
      <point x="115" y="-586"/>
      <point x="249" y="-600"/>
      <point x="276" y="-600" type="curve" smooth="yes"/>
      <point x="469" y="-600"/>
      <point x="657" y="-490"/>
      <point x="751" y="-231" type="curve" smooth="yes"/>
      <point x="1307" y="1313" type="line"/>
      <point x="1143" y="1389" type="line"/>
      <point x="741" y="245" type="line"/>
      <point x="299" y="1536" type="line"/>
      <point x="105" y="1536" type="line"/>
      <point x="644" y="-13" type="line"/>
    </contour>
  </outline>
</glyph>
<glyph name="Ezh" format="2">
  <advance width="1931"/>
  <unicode hex="01B7"/>
  <outline>
    <contour>
      <point x="148" y="105" type="line"/>
      <point x="163" y="-293"/>
      <point x="510" y="-579"/>
      <point x="947" y="-579" type="curve" smooth="yes"/>
      <point x="1439" y="-579"/>
      <point x="1752" y="-209"/>
      <point x="1752" y="249" type="curve" smooth="yes"/>
      <point x="1752" y="725"/>
      <point x="1413" y="1072"/>
      <point x="925" y="1093" type="curve"/>
      <point x="925" y="1109" type="line"/>
      <point x="1695" y="1911" type="line"/>
      <point x="1695" y="2048" type="line"/>
      <point x="261" y="2048" type="line"/>
      <point x="261" y="1877" type="line"/>
      <point x="1444" y="1877" type="line"/>
      <point x="1444" y="1879" type="line"/>
      <point x="691" y="1101" type="line"/>
      <point x="691" y="941" type="line"/>
      <point x="823" y="941" type="line" smooth="yes"/>
      <point x="1260" y="934"/>
      <point x="1568" y="654"/>
      <point x="1568" y="249" type="curve" smooth="yes"/>
      <point x="1568" y="-127"/>
      <point x="1320" y="-408"/>
      <point x="949" y="-408" type="curve" smooth="yes"/>
      <point x="618" y="-408"/>
      <point x="350" y="-191"/>
      <point x="337" y="105" type="curve"/>
    </contour>
  </outline>
</glyph>
<glyph name="ezhtail" format="2">
  <advance width="1486"/>
  <unicode hex="01BA"/>
  <outline>
    <contour>
      <point x="193" y="1488" type="line"/>
      <point x="193" y="1307" type="line"/>
      <point x="1073" y="1307" type="line"/>
      <point x="475" y="840" type="line"/>
      <point x="475" y="692" type="line"/>
      <point x="665" y="692" type="line"/>
      <point x="1373" y="1343" type="line"/>
      <point x="1373" y="1488" type="line"/>
    </contour>
    <contour>
      <point x="349" y="-181" type="curve" smooth="yes"/>
      <point x="349" y="-63"/>
      <point x="409" y="20"/>
      <point x="676" y="77" type="curve" smooth="yes"/>
      <point x="1028" y="155"/>
      <point x="1226" y="254"/>
      <point x="1225" y="513" type="curve" smooth="yes"/>
      <point x="1226" y="745"/>
      <point x="1008" y="888"/>
      <point x="684" y="888" type="curve" smooth="yes"/>
      <point x="627" y="888" type="line"/>
      <point x="627" y="692" type="line"/>
      <point x="684" y="692" type="line" smooth="yes"/>
      <point x="912" y="691"/>
      <point x="992" y="625"/>
      <point x="992" y="517" type="curve" smooth="yes"/>
      <point x="992" y="384"/>
      <point x="928" y="332"/>
      <point x="676" y="277" type="curve" smooth="yes"/>
      <point x="313" y="198"/>
      <point x="122" y="72"/>
      <point x="121" y="-161" type="curve" smooth="yes"/>
      <point x="122" y="-425"/>
      <point x="341" y="-600"/>
      <point x="679" y="-600" type="curve" smooth="yes"/>
      <point x="1064" y="-600"/>
      <point x="1274" y="-362"/>
      <point x="1273" y="-112" type="curve"/>
      <point x="1044" y="-112" type="line"/>
      <point x="1030" y="-335"/>
      <point x="841" y="-405"/>
      <point x="681" y="-405" type="curve" smooth="yes"/>
      <point x="461" y="-405"/>
      <point x="349" y="-310"/>
    </contour>
  </outline>
</glyph>
<glyph name="Tonefive" format="2">
  <advance width="1643"/>
  <unicode hex="01BC"/>
  <outline>
    <contour>
      <point x="496" y="2048" type="line"/>
      <point x="89" y="2048" type="line"/>
      <point x="89" y="1880" type="line"/>
      <point x="496" y="1880" type="line"/>
    </contour>
    <component base="five" xOffset="-16"/>
  </outline>
</glyph>
<glyph name="tonefive" format="2">
  <advance width="1412"/>
  <unicode hex="01BD"/>
  <outline>
    <contour>
      <point x="449" y="653" type="line"/>
      <point x="507" y="742"/>
      <point x="590" y="822"/>
      <point x="757" y="823" type="curve" smooth="yes"/>
      <point x="977" y="822"/>
      <point x="1086" y="688"/>
      <point x="1085" y="492" type="curve" smooth="yes"/>
      <point x="1086" y="302"/>
      <point x="983" y="162"/>
      <point x="745" y="161" type="curve" smooth="yes"/>
      <point x="556" y="162"/>
      <point x="419" y="274"/>
      <point x="421" y="437" type="curve"/>
      <point x="208" y="412" type="line"/>
      <point x="208" y="121"/>
      <point x="519" y="-24"/>
      <point x="745" y="-24" type="curve" smooth="yes"/>
      <point x="1149" y="-24"/>
      <point x="1309" y="208"/>
      <point x="1309" y="501" type="curve" smooth="yes"/>
      <point x="1309" y="838"/>
      <point x="1115" y="1033"/>
      <point x="788" y="1024" type="curve" smooth="yes"/>
      <point x="693" y="1018"/>
      <point x="566" y="976"/>
      <point x="507" y="933" type="curve"/>
      <point x="548" y="1284" type="line"/>
      <point x="1243" y="1284" type="line"/>
      <point x="1243" y="1488" type="line"/>
      <point x="352" y="1488" type="line"/>
      <point x="261" y="673" type="line"/>
    </contour>
    <contour>
      <point x="512" y="1488" type="line"/>
      <point x="104" y="1488" type="line"/>
      <point x="104" y="1284" type="line"/>
      <point x="512" y="1284" type="line"/>
    </contour>
  </outline>
</glyph>
<glyph name="glottalstopbarinv" format="2">
  <advance width="1486"/>
  <unicode hex="01BE"/>
  <outline>
    <contour>
      <point x="1092" y="389" type="curve" smooth="yes"/>
      <point x="1092" y="266"/>
      <point x="977" y="167"/>
      <point x="764" y="168" type="curve" smooth="yes"/>
      <point x="599" y="167"/>
      <point x="410" y="241"/>
      <point x="403" y="465" type="curve"/>
      <point x="168" y="465" type="line"/>
      <point x="167" y="209"/>
      <point x="377" y="-28"/>
      <point x="767" y="-28" type="curve" smooth="yes"/>
      <point x="1099" y="-28"/>
      <point x="1324" y="153"/>
      <point x="1324" y="417" type="curve" smooth="yes"/>
      <point x="1324" y="816"/>
      <point x="825" y="746"/>
      <point x="825" y="1071" type="curve" smooth="yes"/>
      <point x="825" y="1840" type="line"/>
      <point x="599" y="1840" type="line"/>
      <point x="599" y="1059" type="line" smooth="yes"/>
      <point x="598" y="634"/>
      <point x="1092" y="677"/>
    </contour>
    <contour>
      <point x="1101" y="1488" type="line"/>
      <point x="313" y="1488" type="line"/>
      <point x="313" y="1317" type="line"/>
      <point x="1101" y="1317" type="line"/>
    </contour>
  </outline>
</glyph>
<glyph name="wynn" format="2">
  <advance width="1735"/>
  <unicode hex="01BF"/>
  <outline>
    <contour>
      <point x="479" y="1204" type="line"/>
      <point x="456" y="1488" type="line"/>
      <point x="252" y="1488" type="line"/>
      <point x="252" y="-572" type="line"/>
      <point x="479" y="-572" type="line"/>
    </contour>
    <contour>
      <point x="399" y="931" type="line"/>
      <point x="455" y="1123"/>
      <point x="582" y="1324"/>
      <point x="829" y="1324" type="curve" smooth="yes"/>
      <point x="1121" y="1324"/>
      <point x="1257" y="1062"/>
      <point x="1257" y="753" type="curve" smooth="yes"/>
      <point x="1257" y="728" type="line" smooth="yes"/>
      <point x="1257" y="270"/>
      <point x="898" y="76"/>
      <point x="420" y="-56" type="curve"/>
      <point x="408" y="-240" type="line"/>
      <point x="1064" y="-45"/>
      <point x="1484" y="158"/>
      <point x="1484" y="728" type="curve" smooth="yes"/>
      <point x="1484" y="753" type="line" smooth="yes"/>
      <point x="1484" y="1206"/>
      <point x="1283" y="1516"/>
      <point x="905" y="1516" type="curve" smooth="yes"/>
      <point x="525" y="1516"/>
      <point x="321" y="1258"/>
      <point x="281" y="797" type="curve"/>
    </contour>
  </outline>
</glyph>
<glyph name="pipe" format="2">
  <advance width="716"/>
  <unicode hex="01C0"/>
  <outline>
    <contour>
      <point x="464" y="2060" type="line"/>
      <point x="253" y="2060" type="line"/>
      <point x="253" y="0" type="line"/>
      <point x="464" y="0" type="line"/>
    </contour>
  </outline>
</glyph>
<glyph name="Gbar" format="2">
  <advance width="2088"/>
  <unicode hex="01E4"/>
  <outline>
    <contour>
      <point x="2037" y="603" type="line"/>
      <point x="1117" y="603" type="line"/>
      <point x="1117" y="448" type="line"/>
      <point x="2037" y="448" type="line"/>
    </contour>
    <component base="G"/>
  </outline>
</glyph>
<glyph name="uni01F6" format="2">
  <advance width="3127"/>
  <unicode hex="01F6"/>
  <outline>
    <contour>
      <point x="2265" y="-28" type="curve" smooth="yes"/>
      <point x="2630" y="-28"/>
      <point x="2896" y="184"/>
      <point x="2896" y="635" type="curve" smooth="yes"/>
      <point x="2896" y="1549" type="line"/>
      <point x="2709" y="1549" type="line"/>
      <point x="2709" y="635" type="line" smooth="yes"/>
      <point x="2710" y="301"/>
      <point x="2556" y="154"/>
      <point x="2265" y="155" type="curve" smooth="yes"/>
      <point x="1975" y="154"/>
      <point x="1807" y="301"/>
      <point x="1808" y="635" type="curve" smooth="yes"/>
      <point x="1808" y="2048" type="line"/>
      <point x="1621" y="2048" type="line"/>
      <point x="1621" y="1113" type="line"/>
      <point x="457" y="1113" type="line"/>
      <point x="457" y="2048" type="line"/>
      <point x="272" y="2048" type="line"/>
      <point x="272" y="0" type="line"/>
      <point x="457" y="0" type="line"/>
      <point x="457" y="940" type="line"/>
      <point x="1621" y="940" type="line"/>
      <point x="1621" y="635" type="line" smooth="yes"/>
      <point x="1621" y="194"/>
      <point x="1886" y="-28"/>
    </contour>
  </outline>
</glyph>
<glyph name="uni01F7" format="2">
  <advance width="1666"/>
  <unicode hex="01F7"/>
  <outline>
    <contour>
      <point x="369" y="2004" type="line"/>
      <point x="129" y="2004" type="line"/>
      <point x="129" y="-572" type="line"/>
      <point x="369" y="-572" type="line"/>
    </contour>
    <contour>
      <point x="232" y="-245" type="line"/>
      <point x="933" y="-200"/>
      <point x="1535" y="410"/>
      <point x="1535" y="1140" type="curve" smooth="yes"/>
      <point x="1535" y="1212" type="line" smooth="yes"/>
      <point x="1535" y="1769"/>
      <point x="1232" y="2032"/>
      <point x="740" y="2032" type="curve" smooth="yes"/>
      <point x="552" y="2032"/>
      <point x="408" y="1986"/>
      <point x="284" y="1901" type="curve"/>
      <point x="284" y="1367" type="line"/>
      <point x="324" y="1658"/>
      <point x="412" y="1839"/>
      <point x="740" y="1840" type="curve" smooth="yes"/>
      <point x="1098" y="1839"/>
      <point x="1304" y="1678"/>
      <point x="1304" y="1216" type="curve" smooth="yes"/>
      <point x="1304" y="1140" type="line" smooth="yes"/>
      <point x="1304" y="658"/>
      <point x="977" y="33"/>
      <point x="232" y="-59" type="curve"/>
    </contour>
  </outline>
</glyph>
<glyph name="uni021C" format="2">
  <advance width="1739"/>
  <unicode hex="021C"/>
  <outline>
    <contour>
      <point x="297" y="453" type="line"/>
      <point x="973" y="618"/>
      <point x="1530" y="1002"/>
      <point x="1529" y="1460" type="curve" smooth="yes"/>
      <point x="1530" y="1832"/>
      <point x="1263" y="2033"/>
      <point x="836" y="2033" type="curve" smooth="yes"/>
      <point x="475" y="2033"/>
      <point x="182" y="1814"/>
      <point x="181" y="1481" type="curve"/>
      <point x="416" y="1481" type="line"/>
      <point x="415" y="1690"/>
      <point x="607" y="1840"/>
      <point x="836" y="1840" type="curve" smooth="yes"/>
      <point x="1156" y="1840"/>
      <point x="1295" y="1670"/>
      <point x="1296" y="1484" type="curve" smooth="yes"/>
      <point x="1295" y="1023"/>
      <point x="900" y="803"/>
      <point x="297" y="621" type="curve"/>
    </contour>
    <contour>
      <point x="1121" y="912" type="line"/>
      <point x="1271" y="835"/>
      <point x="1324" y="693"/>
      <point x="1324" y="441" type="curve" smooth="yes"/>
      <point x="1324" y="-84"/>
      <point x="938" y="-280"/>
      <point x="297" y="-412" type="curve"/>
      <point x="297" y="-600" type="line"/>
      <point x="1027" y="-434"/>
      <point x="1562" y="-225"/>
      <point x="1563" y="440" type="curve" smooth="yes"/>
      <point x="1562" y="748"/>
      <point x="1464" y="928"/>
      <point x="1280" y="1036" type="curve"/>
    </contour>
  </outline>
</glyph>
<glyph name="uni021D" format="2">
  <advance width="1486"/>
  <unicode hex="021D"/>
  <outline>
    <contour>
      <point x="288" y="313" type="line"/>
      <point x="734" y="378"/>
      <point x="1274" y="676"/>
      <point x="1273" y="1080" type="curve" smooth="yes"/>
      <point x="1274" y="1364"/>
      <point x="1075" y="1516"/>
      <point x="745" y="1516" type="curve" smooth="yes"/>
      <point x="443" y="1516"/>
      <point x="189" y="1344"/>
      <point x="189" y="1077" type="curve"/>
      <point x="412" y="1077" type="line"/>
      <point x="412" y="1210"/>
      <point x="557" y="1327"/>
      <point x="737" y="1328" type="curve" smooth="yes"/>
      <point x="959" y="1327"/>
      <point x="1046" y="1210"/>
      <point x="1045" y="1100" type="curve" smooth="yes"/>
      <point x="1046" y="713"/>
      <point x="596" y="546"/>
      <point x="288" y="484" type="curve"/>
    </contour>
    <contour>
      <point x="904" y="649" type="line"/>
      <point x="1025" y="583"/>
      <point x="1075" y="426"/>
      <point x="1075" y="252" type="curve" smooth="yes"/>
      <point x="1075" y="-182"/>
      <point x="738" y="-335"/>
      <point x="288" y="-416" type="curve"/>
      <point x="288" y="-600" type="line"/>
      <point x="956" y="-527"/>
      <point x="1302" y="-282"/>
      <point x="1301" y="261" type="curve" smooth="yes"/>
      <point x="1302" y="465"/>
      <point x="1231" y="671"/>
      <point x="1077" y="779" type="curve"/>
    </contour>
  </outline>
</glyph>
<glyph name="uni0220" format="2">
  <advance width="1738"/>
  <unicode hex="0220"/>
  <outline>
    <contour>
      <point x="1587" y="-572" type="line"/>
      <point x="1587" y="1337" type="line" smooth="yes"/>
      <point x="1587" y="1808"/>
      <point x="1226" y="2032"/>
      <point x="848" y="2032" type="curve" smooth="yes"/>
      <point x="663" y="2032"/>
      <point x="493" y="1990"/>
      <point x="376" y="1929" type="curve"/>
      <point x="376" y="1764" type="line"/>
      <point x="485" y="1804"/>
      <point x="635" y="1840"/>
      <point x="864" y="1840" type="curve" smooth="yes"/>
      <point x="1151" y="1840"/>
      <point x="1360" y="1694"/>
      <point x="1360" y="1337" type="curve" smooth="yes"/>
      <point x="1360" y="-572" type="line"/>
    </contour>
    <contour>
      <point x="377" y="2004" type="line"/>
      <point x="156" y="2004" type="line"/>
      <point x="156" y="0" type="line"/>
      <point x="377" y="0" type="line"/>
    </contour>
  </outline>
</glyph>
<glyph name="uni0221" format="2">
  <advance width="2025"/>
  <unicode hex="0221"/>
  <outline>
    <contour>
      <point x="1292" y="333" type="line"/>
      <point x="1292" y="-169" type="line"/>
      <point x="1291" y="-347"/>
      <point x="1398" y="-576"/>
      <point x="1669" y="-576" type="curve" smooth="yes"/>
      <point x="1889" y="-576"/>
      <point x="2039" y="-425"/>
      <point x="2040" y="-209" type="curve" smooth="yes"/>
      <point x="2039" y="7"/>
      <point x="1884" y="146"/>
      <point x="1700" y="147" type="curve" smooth="yes"/>
      <point x="1568" y="146"/>
      <point x="1399" y="75"/>
      <point x="1280" y="-65" type="curve"/>
      <point x="993" y="-388" type="line"/>
      <point x="1135" y="-511" type="line"/>
      <point x="1499" y="-115" type="line" smooth="yes"/>
      <point x="1537" y="-65"/>
      <point x="1604" y="-26"/>
      <point x="1704" y="-45" type="curve" smooth="yes"/>
      <point x="1782" y="-61"/>
      <point x="1836" y="-123"/>
      <point x="1836" y="-213" type="curve" smooth="yes"/>
      <point x="1836" y="-314"/>
      <point x="1769" y="-389"/>
      <point x="1665" y="-389" type="curve" smooth="yes"/>
      <point x="1558" y="-389"/>
      <point x="1463" y="-309"/>
      <point x="1464" y="-164" type="curve"/>
      <point x="1464" y="333" type="line"/>
    </contour>
    <component base="d" xOffset="-1"/>
  </outline>
</glyph>
<glyph name="uni0222" format="2">
  <advance width="1738"/>
  <unicode hex="0222"/>
  <outline>
    <contour>
      <point x="852" y="1192" type="line"/>
      <point x="431" y="1192"/>
      <point x="101" y="982"/>
      <point x="101" y="583" type="curve" smooth="yes"/>
      <point x="101" y="166"/>
      <point x="432" y="-28"/>
      <point x="852" y="-28" type="curve" smooth="yes"/>
      <point x="885" y="-28" type="line" smooth="yes"/>
      <point x="1306" y="-28"/>
      <point x="1638" y="166"/>
      <point x="1637" y="587" type="curve" smooth="yes"/>
      <point x="1638" y="982"/>
      <point x="1307" y="1192"/>
      <point x="885" y="1192" type="curve" smooth="yes"/>
    </contour>
    <contour>
      <point x="885" y="1008" type="line"/>
      <point x="1196" y="1007"/>
      <point x="1407" y="878"/>
      <point x="1407" y="587" type="curve" smooth="yes"/>
      <point x="1407" y="286"/>
      <point x="1196" y="171"/>
      <point x="885" y="172" type="curve" smooth="yes"/>
      <point x="852" y="172" type="line" smooth="yes"/>
      <point x="540" y="171"/>
      <point x="332" y="286"/>
      <point x="332" y="583" type="curve" smooth="yes"/>
      <point x="332" y="877"/>
      <point x="539" y="1007"/>
      <point x="852" y="1008" type="curve" smooth="yes"/>
    </contour>
    <contour>
      <point x="839" y="1204" type="line"/>
      <point x="582" y="1204"/>
      <point x="332" y="1265"/>
      <point x="332" y="1535" type="curve" smooth="yes"/>
      <point x="332" y="1728"/>
      <point x="431" y="1806"/>
      <point x="624" y="1856" type="curve"/>
      <point x="624" y="2032" type="line"/>
      <point x="343" y="2011"/>
      <point x="101" y="1862"/>
      <point x="101" y="1535" type="curve" smooth="yes"/>
      <point x="101" y="1146"/>
      <point x="457" y="1018"/>
      <point x="839" y="1019" type="curve" smooth="yes"/>
      <point x="900" y="1019" type="line" smooth="yes"/>
      <point x="1283" y="1018"/>
      <point x="1636" y="1146"/>
      <point x="1636" y="1535" type="curve" smooth="yes"/>
      <point x="1636" y="1862"/>
      <point x="1401" y="2011"/>
      <point x="1113" y="2032" type="curve"/>
      <point x="1113" y="1856" type="line"/>
      <point x="1307" y="1806"/>
      <point x="1405" y="1728"/>
      <point x="1405" y="1535" type="curve" smooth="yes"/>
      <point x="1405" y="1267"/>
      <point x="1166" y="1204"/>
      <point x="900" y="1204" type="curve" smooth="yes"/>
    </contour>
  </outline>
</glyph>
<glyph name="uni0223" format="2">
  <advance width="1739"/>
  <unicode hex="0223"/>
  <outline>
    <contour>
      <point x="853" y="1195" type="line"/>
      <point x="432" y="1194"/>
      <point x="103" y="985"/>
      <point x="104" y="585" type="curve" smooth="yes"/>
      <point x="103" y="168"/>
      <point x="432" y="-28"/>
      <point x="853" y="-28" type="curve" smooth="yes"/>
      <point x="885" y="-28" type="line" smooth="yes"/>
      <point x="1307" y="-28"/>
      <point x="1636" y="168"/>
      <point x="1636" y="589" type="curve" smooth="yes"/>
      <point x="1636" y="985"/>
      <point x="1308" y="1194"/>
      <point x="885" y="1195" type="curve" smooth="yes"/>
    </contour>
    <contour>
      <point x="885" y="1017" type="line"/>
      <point x="1190" y="1017"/>
      <point x="1409" y="882"/>
      <point x="1409" y="589" type="curve" smooth="yes"/>
      <point x="1409" y="288"/>
      <point x="1190" y="153"/>
      <point x="885" y="153" type="curve" smooth="yes"/>
      <point x="853" y="153" type="line" smooth="yes"/>
      <point x="542" y="153"/>
      <point x="330" y="288"/>
      <point x="331" y="585" type="curve" smooth="yes"/>
      <point x="330" y="882"/>
      <point x="542" y="1017"/>
      <point x="853" y="1017" type="curve" smooth="yes"/>
    </contour>
    <contour>
      <point x="901" y="1199" type="curve" smooth="yes"/>
      <point x="839" y="1199" type="line" smooth="yes"/>
      <point x="580" y="1198"/>
      <point x="330" y="1270"/>
      <point x="331" y="1575" type="curve" smooth="yes"/>
      <point x="330" y="1792"/>
      <point x="430" y="1896"/>
      <point x="625" y="1976" type="curve"/>
      <point x="625" y="2140" type="line"/>
      <point x="342" y="2125"/>
      <point x="103" y="1923"/>
      <point x="104" y="1572" type="curve" smooth="yes"/>
      <point x="103" y="1166"/>
      <point x="456" y="1025"/>
      <point x="839" y="1025" type="curve" smooth="yes"/>
      <point x="901" y="1025" type="line" smooth="yes"/>
      <point x="1282" y="1025"/>
      <point x="1636" y="1166"/>
      <point x="1636" y="1572" type="curve" smooth="yes"/>
      <point x="1636" y="1922"/>
      <point x="1398" y="2125"/>
      <point x="1115" y="2140" type="curve"/>
      <point x="1115" y="1976" type="line"/>
      <point x="1310" y="1896"/>
      <point x="1407" y="1792"/>
      <point x="1408" y="1575" type="curve" smooth="yes"/>
      <point x="1407" y="1270"/>
      <point x="1163" y="1198"/>
    </contour>
  </outline>
</glyph>
<glyph name="uni0224" format="2">
  <advance width="1721"/>
  <unicode hex="0224"/>
  <note>
!post:RemoveOverlap
</note>
  <outline>
    <contour>
      <point x="996" y="175" type="line"/>
      <point x="996" y="0" type="line"/>
      <point x="1203" y="0" type="line" smooth="yes"/>
      <point x="1333" y="0"/>
      <point x="1379" y="-110"/>
      <point x="1380" y="-221" type="curve"/>
      <point x="1380" y="-288" type="line"/>
      <point x="1560" y="-288" type="line"/>
      <point x="1560" y="-189" type="line"/>
      <point x="1559" y="22"/>
      <point x="1418" y="174"/>
      <point x="1203" y="175" type="curve" smooth="yes"/>
    </contour>
    <contour>
      <point x="996" y="175" type="line"/>
      <point x="405" y="175" type="line"/>
      <point x="1533" y="1893" type="line"/>
      <point x="1533" y="2048" type="line"/>
      <point x="173" y="2048" type="line"/>
      <point x="173" y="1873" type="line"/>
      <point x="1316" y="1873" type="line"/>
      <point x="188" y="155" type="line"/>
      <point x="188" y="0" type="line"/>
      <point x="996" y="0" type="line"/>
    </contour>
  </outline>
</glyph>
<glyph name="zhook" format="2">
  <advance width="1494"/>
  <unicode hex="0225"/>
  <outline>
    <contour>
      <point x="1205" y="-303" type="line"/>
      <point x="1371" y="-303" type="line"/>
      <point x="1371" y="-181" type="line"/>
      <point x="1370" y="14"/>
      <point x="1240" y="181"/>
      <point x="1013" y="181" type="curve" smooth="yes"/>
      <point x="415" y="181" type="line"/>
      <point x="1317" y="1368" type="line"/>
      <point x="1317" y="1536" type="line"/>
      <point x="152" y="1536" type="line"/>
      <point x="152" y="1356" type="line"/>
      <point x="1088" y="1356" type="line"/>
      <point x="180" y="184" type="line"/>
      <point x="180" y="0" type="line"/>
      <point x="1013" y="0" type="line" smooth="yes"/>
      <point x="1168" y="0"/>
      <point x="1206" y="-106"/>
      <point x="1205" y="-236" type="curve" smooth="yes"/>
    </contour>
  </outline>
</glyph>
<glyph name="lcurl" format="2">
  <advance width="890"/>
  <unicode hex="0234"/>
  <outline>
    <contour>
      <point x="240" y="319" type="line"/>
      <point x="240" y="-185" type="line"/>
      <point x="240" y="-334"/>
      <point x="297" y="-576"/>
      <point x="617" y="-576" type="curve" smooth="yes"/>
      <point x="856" y="-576"/>
      <point x="1006" y="-446"/>
      <point x="1005" y="-229" type="curve" smooth="yes"/>
      <point x="1006" y="-6"/>
      <point x="844" y="127"/>
      <point x="633" y="128" type="curve" smooth="yes"/>
      <point x="511" y="127"/>
      <point x="388" y="89"/>
      <point x="292" y="-35" type="curve" smooth="yes"/>
      <point x="-51" y="-399" type="line"/>
      <point x="83" y="-527" type="line"/>
      <point x="363" y="-216" type="line" smooth="yes"/>
      <point x="417" y="-143"/>
      <point x="484" y="-58"/>
      <point x="604" y="-57" type="curve" smooth="yes"/>
      <point x="719" y="-58"/>
      <point x="795" y="-114"/>
      <point x="795" y="-225" type="curve" smooth="yes"/>
      <point x="795" y="-328"/>
      <point x="724" y="-401"/>
      <point x="616" y="-401" type="curve" smooth="yes"/>
      <point x="514" y="-401"/>
      <point x="412" y="-321"/>
      <point x="412" y="-229" type="curve" smooth="yes"/>
      <point x="412" y="-134"/>
      <point x="412" y="318"/>
      <point x="412" y="319" type="curve"/>
    </contour>
    <contour>
      <point x="412" y="2048" type="line"/>
      <point x="240" y="2048" type="line"/>
      <point x="240" y="0" type="line"/>
      <point x="412" y="0" type="line"/>
    </contour>
  </outline>
</glyph>
<glyph name="ncurl" format="2">
  <advance width="2117"/>
  <unicode hex="0235"/>
  <outline>
    <contour>
      <point x="1208" y="152" type="line"/>
      <point x="1208" y="105" type="line" smooth="yes"/>
      <point x="1208" y="-64"/>
      <point x="1289" y="-316"/>
      <point x="1604" y="-316" type="curve" smooth="yes"/>
      <point x="1831" y="-316"/>
      <point x="1974" y="-176"/>
      <point x="1975" y="32" type="curve" smooth="yes"/>
      <point x="1975" y="244"/>
      <point x="1820" y="380"/>
      <point x="1611" y="380" type="curve" smooth="yes"/>
      <point x="1488" y="380"/>
      <point x="1338" y="294"/>
      <point x="1248" y="212" type="curve" smooth="yes"/>
      <point x="907" y="-133" type="line"/>
      <point x="1039" y="-277" type="line"/>
      <point x="1333" y="24" type="line" smooth="yes"/>
      <point x="1402" y="90"/>
      <point x="1439" y="185"/>
      <point x="1577" y="185" type="curve" smooth="yes"/>
      <point x="1692" y="186"/>
      <point x="1763" y="126"/>
      <point x="1764" y="24" type="curve" smooth="yes"/>
      <point x="1763" y="-73"/>
      <point x="1693" y="-147"/>
      <point x="1588" y="-148" type="curve" smooth="yes"/>
      <point x="1479" y="-147"/>
      <point x="1381" y="-64"/>
      <point x="1381" y="33" type="curve" smooth="yes"/>
      <point x="1381" y="152" type="line"/>
    </contour>
    <component base="n"/>
  </outline>
</glyph>
